ply
format ascii 1.0
comment object: vertex cloud
element vertex 52
property double x
property double y
property double z
property uchar red                   { start of face colors }
property uchar green
property uchar blue
element face 48
property list uchar int vertex_indices
end_header
3006 -4783 999 255 0 0
3999 -4783 -6 255 0 0
2993 -4783 -999 255 0 0
2000 -4783 6 255 0 0
3006 -3212 999 255 0 0
3999 -3212 -6 255 0 0
2993 -3212 -999 255 0 0
2000 -3212 6 255 0 0
3006 -1641 999 255 0 0
3999 -1641 -6 255 0 0
2993 -1641 -999 255 0 0
2000 -1641 6 255 0 0
3349 -26 935 255 0 0
3928 47 -352 255 0 0
2650 -115 -935 255 0 0
2071 -189 352 255 0 0
3313 1901 571 255 0 0
3096 1780 -820 255 0 0
1883 1098 -571 255 0 0
2099 1219 820 255 0 0
1964 3403 367 255 0 0
1683 2916 -929 255 0 0
1035 1792 -367 255 0 0
1316 2279 929 255 0 0
0 3945 324 255 0 0
0 3324 -945 255 0 0
0 2054 -324 255 0 0
0 2675 945 255 0 0
-1964 3403 368 255 0 0
-1684 2917 -929 255 0 0
-1035 1793 -368 255 0 0
-1315 2278 929 255 0 0
-3311 1900 575 255 0 0
-3099 1781 -818 255 0 0
-1884 1099 -575 255 0 0
-2096 1218 818 255 0 0
-3338 -27 939 255 0 0
-3932 48 -341 255 0 0
-2661 -114 -939 255 0 0
-2067 -190 341 255 0 0
-2993 -1641 999 255 0 0
-3999 -1641 6 255 0 0
-3006 -1641 -999 255 0 0
-2000 -1641 -6 255 0 0
-2993 -3212 999 255 0 0
-3999 -3212 6 255 0 0
-3006 -3212 -999 255 0 0
-2000 -3212 -6 255 0 0
-2993 -4783 999 255 0 0
-3999 -4783 6 255 0 0
-3006 -4783 -999 255 0 0
-2000 -4783 -6 255 0 0
4 0 4 5 1
4 1 5 6 2
4 2 6 7 3
4 3 7 4 0
4 4 8 9 5
4 5 9 10 6
4 6 10 11 7
4 7 11 8 4
4 8 12 13 9
4 9 13 14 10
4 10 14 15 11
4 11 15 12 8
4 12 16 17 13
4 13 17 18 14
4 14 18 19 15
4 15 19 16 12
4 16 20 21 17
4 17 21 22 18
4 18 22 23 19
4 19 23 20 16
4 20 24 25 21
4 21 25 26 22
4 22 26 27 23
4 23 27 24 20
4 24 28 29 25
4 25 29 30 26
4 26 30 31 27
4 27 31 28 24
4 28 32 33 29
4 29 33 34 30
4 30 34 35 31
4 31 35 32 28
4 32 36 37 33
4 33 37 38 34
4 34 38 39 35
4 35 39 36 32
4 36 40 41 37
4 37 41 42 38
4 38 42 43 39
4 39 43 40 36
4 40 44 45 41
4 41 45 46 42
4 42 46 47 43
4 43 47 44 40
4 44 48 49 45
4 45 49 50 46
4 46 50 51 47
4 47 51 48 44
