ply
format ascii 1.0
comment object: vertex cloud
element vertex 732
property double x
property double y
property double z
element face 660
property list uchar int vertex_indices
end_header
10057 714 0
10053 713 -28
10042 712 -54
10025 709 -76
10003 706 -93
9977 702 -104
9950 698 -108
9922 694 -104
9896 691 -93
9874 687 -76
9857 685 -54
9846 683 -28
10009 1451 0
10002 1449 -56
9981 1443 -108
9948 1433 -154
9905 1420 -188
9854 1406 -210
9800 1390 -217
9746 1375 -210
9696 1360 -188
9652 1347 -154
9619 1338 -108
9598 1332 -56
9830 2191 0
9821 2186 -78
9793 2174 -151
9749 2155 -214
9691 2129 -262
9625 2100 -292
9553 2068 -303
9481 2036 -292
9414 2007 -262
9357 1982 -214
9313 1962 -151
9285 1950 -78
9524 2915 0
9514 2909 -95
9482 2890 -183
9432 2860 -259
9367 2820 -318
9291 2775 -354
9210 2725 -367
9129 2676 -354
9053 2630 -318
8988 2591 -259
8938 2561 -183
8906 2542 -95
9128 3631 0
9116 3621 -115
9081 3594 -223
9025 3550 -316
8952 3493 -387
8867 3427 -432
8775 3355 -447
8684 3284 -432
8599 3218 -387
8526 3161 -316
8470 3117 -223
8435 3090 -115
8664 4354 0
8650 4340 -148
8609 4300 -287
8543 4236 -406
8458 4153 -497
8359 4056 -554
8253 3952 -574
8147 3848 -554
8047 3751 -497
7962 3668 -406
7897 3604 -287
7856 3564 -148
8115 5071 0
8099 5052 -189
8052 4996 -365
7978 4906 -516
7881 4790 -632
7769 4655 -705
7648 4509 -730
7527 4364 -705
7414 4228 -632
7318 4112 -516
7243 4022 -365
7197 3966 -189
7448 5729 0
7431 5705 -221
7383 5634 -427
7307 5521 -605
7207 5375 -741
7091 5204 -826
6967 5021 -855
6842 4838 -826
6726 4667 -741
6626 4520 -605
6550 4408 -427
6502 4337 -221
6655 6275 0
6640 6248 -234
6597 6169 -452
6527 6043 -640
6436 5879 -784
6329 5688 -874
6216 5483 -905
6102 5278 -874
5996 5087 -784
5905 4923 -640
5835 4797 -452
5791 4718 -234
5774 6717 0
5762 6689 -234
5724 6606 -453
5665 6475 -641
5588 6303 -785
5499 6104 -875
5403 5890 -906
5306 5676 -875
5217 5476 -785
5140 5305 -641
5081 5174 -453
5043 5091 -234
4851 7124 0
4840 7094 -243
4809 7005 -470
4759 6865 -665
4693 6681 -814
4617 6467 -908
4535 6238 -940
4454 6009 -908
4378 5795 -814
4312 5611 -665
4262 5470 -470
4230 5382 -243
3904 7555 0
3894 7520 -276
3866 7417 -534
3822 7253 -755
3763 7039 -925
3696 6791 -1032
3623 6524 -1068
3550 6257 -1032
3483 6008 -925
3425 5795 -755
3380 5631 -534
3352 5528 -276
2915 7982 0
2907 7940 -326
2883 7817 -630
2845 7620 -891
2795 7363 -1092
2737 7065 -1218
2674 6744 -1261
2612 6424 -1218
2554 6125 -1092
2504 5869 -891
2466 5672 -630
2442 5549 -326
1869 8304 0
1863 8256 -366
1846 8115 -708
1819 7892 -1001
1784 7601 -1226
1743 7262 -1367
1699 6898 -1416
1655 6534 -1367
1614 6195 -1226
1579 5904 -1001
1552 5680 -708
1535 5540 -366
779 8432 0
776 8383 -375
769 8238 -725
758 8007 -1026
743 7707 -1257
726 7357 -1402
707 6982 -1451
688 6607 -1402
671 6257 -1257
656 5957 -1026
645 5726 -725
637 5581 -375
-320 8390 0
-319 8342 -360
-316 8203 -696
-312 7982 -985
-306 7693 -1206
-299 7357 -1345
-291 6997 -1393
-284 6636 -1345
-277 6300 -1206
-271 6011 -985
-267 5790 -696
-264 5651 -360
-1411 8294 0
-1407 8248 -351
-1394 8112 -679
-1375 7898 -960
-1349 7617 -1176
-1320 7291 -1311
-1288 6941 -1358
-1256 6591 -1311
-1226 6265 -1176
-1201 5985 -960
-1181 5770 -679
-1169 5635 -351
-2505 8246 0
-2497 8198 -375
-2474 8055 -724
-2437 7828 -1024
-2388 7531 -1254
-2332 7187 -1399
-2272 6816 -1449
-2211 6446 -1399
-2155 6101 -1254
-2106 5805 -1024
-2069 5578 -724
-2046 5435 -375
-3616 8230 0
-3603 8175 -427
-3565 8014 -825
-3504 7759 -1167
-3424 7427 -1429
-3332 7039 -1594
-3232 6624 -1651
-3133 6208 -1594
-3040 5821 -1429
-2961 5488 -1167
-2900 5233 -825
-2861 5072 -427
-4721 8114 0
-4702 8054 -475
-4646 7879 -918
-4557 7601 -1298
-4441 7239 -1590
-4306 6817 -1774
-4161 6365 -1836
-4016 5912 -1774
-3881 5490 -1590
-3765 5128 -1298
-3676 4850 -918
-3620 4675 -475
-5760 7782 0
-5736 7723 -486
-5665 7549 -939
-5552 7272 -1329
-5404 6912 -1628
-5232 6492 -1815
-5048 6042 -1879
-4864 5592 -1815
-4692 5172 -1628
-4544 4812 -1329
-4431 4535 -939
-4360 4361 -486
-6693 7246 0
-6665 7192 -460
-6585 7033 -890
-6456 6781 -1259
-6289 6452 -1542
-6094 6070 -1720
-5885 5659 -1780
-5675 5248 -1720
-5480 4866 -1542
-5313 4537 -1259
-5184 4285 -890
-5104 4126 -460
-7548 6636 0
-7518 6588 -432
-7430 6446 -835
-7289 6221 -1181
-7105 5928 -1447
-6892 5586 -1614
-6662 5219 -1671
-6433 4853 -1614
-6219 4511 -1447
-6036 4218 -1181
-5895 3992 -835
-5806 3851 -432
-8403 6075 0
-8368 6029 -438
-8265 5894 -847
-8101 5680 -1198
-7888 5401 -1468
-7640 5076 -1637
-7373 4728 -1695
-7107 4379 -1637
-6859 4054 -1468
-6646 3775 -1198
-6482 3561 -847
-6379 3427 -438
-9292 5555 0
-9248 5509 -484
-9120 5372 -936
-8916 5155 -1324
-8651 4872 -1621
-8342 4543 -1809
-8011 4189 -1872
-7679 3835 -1809
-7371 3505 -1621
-7105 3222 -1324
-6902 3005 -936
-6774 2869 -484
-10141 4960 0
-10088 4914 -536
-9931 4779 -1037
-9681 4564 -1466
-9355 4284 -1796
-8976 3958 -2003
-8568 3608 -2074
-8161 3258 -2003
-7782 2932 -1796
-7456 2652 -1466
-7206 2437 -1037
-7049 2302 -536
-10812 4188 0
-10752 4147 -553
-10575 4027 -1069
-10293 3837 -1511
-9926 3589 -1851
-9499 3301 -2065
-9040 2991 -2138
-8582 2681 -2065
-8154 2393 -1851
-7787 2145 -1511
-7506 1955 -1069
-7329 1835 -553
-11227 3261 0
-11165 3230 -523
-10985 3138 -1012
-10698 2993 -1431
-10324 2803 -1753
-9889 2582 -1955
-9422 2344 -2024
-8955 2107 -1955
-8519 1886 -1753
-8146 1696 -1431
-7859 1551 -1012
-7678 1459 -523
-11458 2290 0
-11398 2269 -479
-11223 2207 -926
-10945 2109 -1310
-10583 1982 -1605
-10162 1834 -1790
-9709 1674 -1853
-9257 1515 -1790
-8835 1367 -1605
-8473 1239 -1310
-8195 1141 -926
-8020 1080 -479
-11661 1346 0
-11601 1334 -465
-11425 1298 -898
-11145 1241 -1271
-10780 1167 -1557
-10355 1080 -1736
-9899 987 -1797
-9443 894 -1736
-9019 808 -1557
-8654 734 -1271
-8374 677 -898
-8198 641 -465
-11906 404 0
-11841 401 -496
-11650 389 -959
-11345 371 -1356
-10949 348 -1661
-10487 320 -1853
-9991 291 -1918
-9495 261 -1853
-9033 234 -1661
-8636 210 -1356
-8332 192 -959
-8141 181 -496
-12085 -584 0
-12013 -578 -545
-11803 -560 -1054
-11469 -532 -1491
-11033 -496 -1826
-10527 -454 -2037
-9982 -408 -2109
-9438 -363 -2037
-8931 -320 -1826
-8496 -284 -1491
-8162 -256 -1054
-7952 -239 -545
-12012 -1592 0
-11940 -1575 -567
-11726 -1526 -1096
-11386 -1449 -1550
-10943 -1348 -1899
-10428 -1230 -2118
-9874 -1104 -2193
-9321 -977 -2118
-8805 -860 -1899
-8362 -759 -1550
-8023 -681 -1096
-7809 -632 -567
-11621 -2526 0
-11555 -2501 -540
-11359 -2427 -1044
-11049 -2310 -1476
-10644 -2157 -1808
-10173 -1979 -2017
-9667 -1788 -2088
-9162 -1597 -2017
-8691 -1419 -1808
-8286 -1267 -1476
-7976 -1149 -1044
-7780 -1076 -540
-11025 -3344 0
-10968 -3313 -487
-10802 -3225 -941
-10538 -3083 -1331
-10194 -2899 -1631
-9794 -2685 -1819
-9364 -2455 -1883
-8934 -2225 -1819
-8534 -2011 -1631
-8190 -1827 -1331
-7926 -1685 -941
-7760 -1597 -487
-10401 -4108 0
-10352 -4074 -454
-10209 -3973 -877
-9981 -3812 -1240
-9684 -3603 -1519
-9338 -3359 -1694
-8967 -3097 -1754
-8596 -2835 -1694
-8250 -2592 -1519
-7953 -2382 -1240
-7725 -2222 -877
-7582 -2121 -454
-9823 -4906 0
-9777 -4865 -465
-9643 -4746 -899
-9429 -4555 -1271
-9152 -4307 -1557
-8828 -4018 -1737
-8481 -3708 -1798
-8133 -3398 -1737
-7809 -3109 -1557
-7532 -2861 -1271
-7318 -2671 -899
-7184 -2551 -465
-9217 -5727 0
-9172 -5678 -504
-9042 -5534 -974
-8834 -5304 -1377
-8563 -5005 -1687
-8248 -4656 -1882
-7909 -4283 -1948
-7571 -3909 -1882
-7255 -3560 -1687
-6985 -3261 -1377
-6777 -3031 -974
-6646 -2887 -504
-8469 -6452 0
-8428 -6396 -527
-8307 -6233 -1018
-8115 -5972 -1440
-7864 -5633 -1764
-7572 -5238 -1967
-7259 -4814 -2036
-6946 -4390 -1967
-6654 -3995 -1764
-6403 -3655 -1440
-6211 -3395 -1018
-6090 -3231 -527
-7547 -6969 0
-7512 -6912 -505
-7411 -6745 -977
-7251 -6480 -1381
-7041 -6133 -1692
-6798 -5730 -1887
-6536 -5297 -1954
-6274 -4864 -1887
-6030 -4461 -1692
-5821 -4115 -1381
-5660 -3849 -977
-5559 -3682 -505
-6518 -7295 0
-6492 -7241 -452
-6415 -7085 -873
-6293 -6836 -1235
-6133 -6511 -1512
-5947 -6133 -1687
-5748 -5727 -1746
-5548 -5322 -1687
-5362 -4944 -1512
-5203 -4619 -1235
-5080 -4370 -873
-5003 -4214 -452
-5477 -7560 0
-5457 -7510 -405
-5400 -7364 -784
-5308 -7132 -1108
-5189 -6830 -1358
-5051 -6478 -1514
-4902 -6101 -1568
-4753 -5723 -1514
-4615 -5371 -1358
-4496 -5069 -1108
-4405 -4837 -784
-4347 -4691 -405
-4457 -7880 0
-4442 -7830 -397
-4397 -7683 -767
-4325 -7450 -1085
-4232 -7146 -1328
-4124 -6792 -1482
-4007 -6413 -1534
-3891 -6033 -1482
-3783 -5679 -1328
-3690 -5375 -1085
-3618 -5142 -767
-3573 -4995 -397
-3430 -8241 0
-3418 -8187 -419
-3382 -8029 -809
-3325 -7778 -1145
-3251 -7451 -1402
-3165 -7070 -1564
-3073 -6661 -1619
-2980 -6252 -1564
-2894 -5871 -1402
-2820 -5543 -1145
-2763 -5292 -809
-2728 -5135 -419
-2359 -8512 0
-2351 -8455 -437
-2326 -8288 -844
-2286 -8023 -1193
-2233 -7677 -1462
-2173 -7274 -1631
-2107 -6842 -1688
-2042 -6410 -1631
-1981 -6007 -1462
-1929 -5662 -1193
-1889 -5396 -844
-1864 -5229 -437
-1249 -8576 0
-1245 -8521 -420
-1232 -8359 -812
-1212 -8101 -1149
-1185 -7766 -1408
-1154 -7375 -1570
-1121 -6955 -1625
-1088 -6536 -1570
-1057 -6145 -1408
-1030 -5809 -1149
-1010 -5552 -812
-997 -5390 -420
-136 -8439 0
-135 -8390 -372
-134 -8246 -720
-132 -8018 -1018
-130 -7719 -1247
-127 -7372 -1391
-123 -6999 -1440
-120 -6626 -1391
-117 -6279 -1247
-115 -5980 -1018
-113 -5751 -720
-111 -5608 -372
951 -8217 0
948 -8175 -322
941 -8051 -623
929 -7853 -881
913 -7595 -1080
894 -7295 -1204
874 -6973 -1247
855 -6650 -1204
836 -6350 -1080
820 -6092 -881
808 -5895 -623
801 -5770 -322
2017 -8020 0
2011 -7982 -298
1996 -7867 -576
1972 -7685 -815
1941 -7449 -999
1904 -7173 -1114
1865 -6877 -1153
1825 -6581 -1114
1789 -6305 -999
1757 -6068 -815
1733 -5886 -576
1718 -5772 -298
3072 -7853 0
3064 -7814 -301
3041 -7700 -582
3003 -7519 -824
2954 -7283 -1009
2897 -7007 -1125
2836 -6712 -1165
2775 -6417 -1125
2718 -6141 -1009
2669 -5905 -824
2631 -5724 -582
2608 -5610 -301
4106 -7625 0
4095 -7586 -308
4062 -7471 -595
4011 -7289 -841
3943 -7052 -1030
3864 -6776 -1149
3779 -6480 -1190
3695 -6184 -1149
3616 -5908 -1030
3548 -5671 -841
3496 -5489 -595
3463 -5375 -308
5079 -7246 0
5065 -7209 -293
5026 -7103 -566
4963 -6935 -800
4882 -6715 -980
4787 -6459 -1094
4685 -6184 -1132
4583 -5909 -1094
4488 -5653 -980
4406 -5433 -800
4343 -5264 -566
4304 -5158 -293
5958 -6715 0
5944 -6685 -254
5902 -6596 -490
5837 -6454 -693
5751 -6270 -849
5651 -6056 -947
5543 -5825 -981
5436 -5595 -947
5336 -5381 -849
5250 -5196 -693
5184 -5055 -490
5143 -4966 -254
6749 -6108 0
6735 -6085 -208
6695 -6015 -403
6631 -5904 -570
6548 -5759 -698
6451 -5590 -779
6346 -5409 -806
6242 -5228 -779
6145 -5059 -698
6062 -4914 -570
5998 -4803 -403
5958 -4733 -208
7481 -5500 0
7468 -5481 -177
7428 -5425 -343
7366 -5336 -485
7284 -5219 -594
7188 -5084 -663
7086 -4938 -687
6984 -4793 -663
6889 -4657 -594
6807 -4541 -485
6744 -4452 -343
6705 -4395 -177
8169 -4900 0
8155 -4883 -164
8114 -4835 -317
8048 -4759 -449
7962 -4659 -549
7862 -4543 -613
7755 -4418 -635
7648 -4294 -613
7548 -4178 -549
7462 -4078 -449
7397 -4001 -317
7355 -3953 -164
8783 -4266 0
8768 -4252 -155
8725 -4211 -300
8655 -4145 -424
8565 -4060 -519
8460 -3961 -579
8347 -3854 -600
8234 -3748 -579
8128 -3649 -519
8038 -3563 -424
7968 -3498 -300
7925 -3457 -155
9276 -3567 0
9261 -3556 -136
9219 -3525 -263
9152 -3475 -371
9065 -3409 -455
8964 -3333 -508
8855 -3252 -526
8746 -3170 -508
8644 -3094 -455
8557 -3029 -371
8490 -2979 -263
8448 -2947 -136
9625 -2819 0
9613 -2812 -104
9578 -2792 -202
9523 -2760 -286
9450 -2718 -350
9365 -2669 -391
9274 -2617 -405
9183 -2564 -391
9099 -2516 -350
9026 -2474 -286
8970 -2442 -202
8935 -2421 -104
9854 -2060 0
9845 -2057 -70
9820 -2046 -136
9780 -2030 -193
9728 -2008 -236
9667 -1983 -264
9601 -1955 -273
9536 -1928 -264
9475 -1903 -236
9423 -1881 -193
9382 -1864 -136
9357 -1854 -70
9992 -1317 0
9986 -1315 -42
9971 -1311 -82
9945 -1305 -116
9912 -1296 -143
9874 -1286 -159
9832 -1275 -165
9791 -1264 -159
9752 -1253 -143
9719 -1245 -116
9694 -1238 -82
9678 -1234 -42
4 0 12 13 1
4 1 13 14 2
4 2 14 15 3
4 3 15 16 4
4 4 16 17 5
4 5 17 18 6
4 6 18 19 7
4 7 19 20 8
4 8 20 21 9
4 9 21 22 10
4 10 22 23 11
4 12 24 25 13
4 13 25 26 14
4 14 26 27 15
4 15 27 28 16
4 16 28 29 17
4 17 29 30 18
4 18 30 31 19
4 19 31 32 20
4 20 32 33 21
4 21 33 34 22
4 22 34 35 23
4 24 36 37 25
4 25 37 38 26
4 26 38 39 27
4 27 39 40 28
4 28 40 41 29
4 29 41 42 30
4 30 42 43 31
4 31 43 44 32
4 32 44 45 33
4 33 45 46 34
4 34 46 47 35
4 36 48 49 37
4 37 49 50 38
4 38 50 51 39
4 39 51 52 40
4 40 52 53 41
4 41 53 54 42
4 42 54 55 43
4 43 55 56 44
4 44 56 57 45
4 45 57 58 46
4 46 58 59 47
4 48 60 61 49
4 49 61 62 50
4 50 62 63 51
4 51 63 64 52
4 52 64 65 53
4 53 65 66 54
4 54 66 67 55
4 55 67 68 56
4 56 68 69 57
4 57 69 70 58
4 58 70 71 59
4 60 72 73 61
4 61 73 74 62
4 62 74 75 63
4 63 75 76 64
4 64 76 77 65
4 65 77 78 66
4 66 78 79 67
4 67 79 80 68
4 68 80 81 69
4 69 81 82 70
4 70 82 83 71
4 72 84 85 73
4 73 85 86 74
4 74 86 87 75
4 75 87 88 76
4 76 88 89 77
4 77 89 90 78
4 78 90 91 79
4 79 91 92 80
4 80 92 93 81
4 81 93 94 82
4 82 94 95 83
4 84 96 97 85
4 85 97 98 86
4 86 98 99 87
4 87 99 100 88
4 88 100 101 89
4 89 101 102 90
4 90 102 103 91
4 91 103 104 92
4 92 104 105 93
4 93 105 106 94
4 94 106 107 95
4 96 108 109 97
4 97 109 110 98
4 98 110 111 99
4 99 111 112 100
4 100 112 113 101
4 101 113 114 102
4 102 114 115 103
4 103 115 116 104
4 104 116 117 105
4 105 117 118 106
4 106 118 119 107
4 108 120 121 109
4 109 121 122 110
4 110 122 123 111
4 111 123 124 112
4 112 124 125 113
4 113 125 126 114
4 114 126 127 115
4 115 127 128 116
4 116 128 129 117
4 117 129 130 118
4 118 130 131 119
4 120 132 133 121
4 121 133 134 122
4 122 134 135 123
4 123 135 136 124
4 124 136 137 125
4 125 137 138 126
4 126 138 139 127
4 127 139 140 128
4 128 140 141 129
4 129 141 142 130
4 130 142 143 131
4 132 144 145 133
4 133 145 146 134
4 134 146 147 135
4 135 147 148 136
4 136 148 149 137
4 137 149 150 138
4 138 150 151 139
4 139 151 152 140
4 140 152 153 141
4 141 153 154 142
4 142 154 155 143
4 144 156 157 145
4 145 157 158 146
4 146 158 159 147
4 147 159 160 148
4 148 160 161 149
4 149 161 162 150
4 150 162 163 151
4 151 163 164 152
4 152 164 165 153
4 153 165 166 154
4 154 166 167 155
4 156 168 169 157
4 157 169 170 158
4 158 170 171 159
4 159 171 172 160
4 160 172 173 161
4 161 173 174 162
4 162 174 175 163
4 163 175 176 164
4 164 176 177 165
4 165 177 178 166
4 166 178 179 167
4 168 180 181 169
4 169 181 182 170
4 170 182 183 171
4 171 183 184 172
4 172 184 185 173
4 173 185 186 174
4 174 186 187 175
4 175 187 188 176
4 176 188 189 177
4 177 189 190 178
4 178 190 191 179
4 180 192 193 181
4 181 193 194 182
4 182 194 195 183
4 183 195 196 184
4 184 196 197 185
4 185 197 198 186
4 186 198 199 187
4 187 199 200 188
4 188 200 201 189
4 189 201 202 190
4 190 202 203 191
4 192 204 205 193
4 193 205 206 194
4 194 206 207 195
4 195 207 208 196
4 196 208 209 197
4 197 209 210 198
4 198 210 211 199
4 199 211 212 200
4 200 212 213 201
4 201 213 214 202
4 202 214 215 203
4 204 216 217 205
4 205 217 218 206
4 206 218 219 207
4 207 219 220 208
4 208 220 221 209
4 209 221 222 210
4 210 222 223 211
4 211 223 224 212
4 212 224 225 213
4 213 225 226 214
4 214 226 227 215
4 216 228 229 217
4 217 229 230 218
4 218 230 231 219
4 219 231 232 220
4 220 232 233 221
4 221 233 234 222
4 222 234 235 223
4 223 235 236 224
4 224 236 237 225
4 225 237 238 226
4 226 238 239 227
4 228 240 241 229
4 229 241 242 230
4 230 242 243 231
4 231 243 244 232
4 232 244 245 233
4 233 245 246 234
4 234 246 247 235
4 235 247 248 236
4 236 248 249 237
4 237 249 250 238
4 238 250 251 239
4 240 252 253 241
4 241 253 254 242
4 242 254 255 243
4 243 255 256 244
4 244 256 257 245
4 245 257 258 246
4 246 258 259 247
4 247 259 260 248
4 248 260 261 249
4 249 261 262 250
4 250 262 263 251
4 252 264 265 253
4 253 265 266 254
4 254 266 267 255
4 255 267 268 256
4 256 268 269 257
4 257 269 270 258
4 258 270 271 259
4 259 271 272 260
4 260 272 273 261
4 261 273 274 262
4 262 274 275 263
4 264 276 277 265
4 265 277 278 266
4 266 278 279 267
4 267 279 280 268
4 268 280 281 269
4 269 281 282 270
4 270 282 283 271
4 271 283 284 272
4 272 284 285 273
4 273 285 286 274
4 274 286 287 275
4 276 288 289 277
4 277 289 290 278
4 278 290 291 279
4 279 291 292 280
4 280 292 293 281
4 281 293 294 282
4 282 294 295 283
4 283 295 296 284
4 284 296 297 285
4 285 297 298 286
4 286 298 299 287
4 288 300 301 289
4 289 301 302 290
4 290 302 303 291
4 291 303 304 292
4 292 304 305 293
4 293 305 306 294
4 294 306 307 295
4 295 307 308 296
4 296 308 309 297
4 297 309 310 298
4 298 310 311 299
4 300 312 313 301
4 301 313 314 302
4 302 314 315 303
4 303 315 316 304
4 304 316 317 305
4 305 317 318 306
4 306 318 319 307
4 307 319 320 308
4 308 320 321 309
4 309 321 322 310
4 310 322 323 311
4 312 324 325 313
4 313 325 326 314
4 314 326 327 315
4 315 327 328 316
4 316 328 329 317
4 317 329 330 318
4 318 330 331 319
4 319 331 332 320
4 320 332 333 321
4 321 333 334 322
4 322 334 335 323
4 324 336 337 325
4 325 337 338 326
4 326 338 339 327
4 327 339 340 328
4 328 340 341 329
4 329 341 342 330
4 330 342 343 331
4 331 343 344 332
4 332 344 345 333
4 333 345 346 334
4 334 346 347 335
4 336 348 349 337
4 337 349 350 338
4 338 350 351 339
4 339 351 352 340
4 340 352 353 341
4 341 353 354 342
4 342 354 355 343
4 343 355 356 344
4 344 356 357 345
4 345 357 358 346
4 346 358 359 347
4 348 360 361 349
4 349 361 362 350
4 350 362 363 351
4 351 363 364 352
4 352 364 365 353
4 353 365 366 354
4 354 366 367 355
4 355 367 368 356
4 356 368 369 357
4 357 369 370 358
4 358 370 371 359
4 360 372 373 361
4 361 373 374 362
4 362 374 375 363
4 363 375 376 364
4 364 376 377 365
4 365 377 378 366
4 366 378 379 367
4 367 379 380 368
4 368 380 381 369
4 369 381 382 370
4 370 382 383 371
4 372 384 385 373
4 373 385 386 374
4 374 386 387 375
4 375 387 388 376
4 376 388 389 377
4 377 389 390 378
4 378 390 391 379
4 379 391 392 380
4 380 392 393 381
4 381 393 394 382
4 382 394 395 383
4 384 396 397 385
4 385 397 398 386
4 386 398 399 387
4 387 399 400 388
4 388 400 401 389
4 389 401 402 390
4 390 402 403 391
4 391 403 404 392
4 392 404 405 393
4 393 405 406 394
4 394 406 407 395
4 396 408 409 397
4 397 409 410 398
4 398 410 411 399
4 399 411 412 400
4 400 412 413 401
4 401 413 414 402
4 402 414 415 403
4 403 415 416 404
4 404 416 417 405
4 405 417 418 406
4 406 418 419 407
4 408 420 421 409
4 409 421 422 410
4 410 422 423 411
4 411 423 424 412
4 412 424 425 413
4 413 425 426 414
4 414 426 427 415
4 415 427 428 416
4 416 428 429 417
4 417 429 430 418
4 418 430 431 419
4 420 432 433 421
4 421 433 434 422
4 422 434 435 423
4 423 435 436 424
4 424 436 437 425
4 425 437 438 426
4 426 438 439 427
4 427 439 440 428
4 428 440 441 429
4 429 441 442 430
4 430 442 443 431
4 432 444 445 433
4 433 445 446 434
4 434 446 447 435
4 435 447 448 436
4 436 448 449 437
4 437 449 450 438
4 438 450 451 439
4 439 451 452 440
4 440 452 453 441
4 441 453 454 442
4 442 454 455 443
4 444 456 457 445
4 445 457 458 446
4 446 458 459 447
4 447 459 460 448
4 448 460 461 449
4 449 461 462 450
4 450 462 463 451
4 451 463 464 452
4 452 464 465 453
4 453 465 466 454
4 454 466 467 455
4 456 468 469 457
4 457 469 470 458
4 458 470 471 459
4 459 471 472 460
4 460 472 473 461
4 461 473 474 462
4 462 474 475 463
4 463 475 476 464
4 464 476 477 465
4 465 477 478 466
4 466 478 479 467
4 468 480 481 469
4 469 481 482 470
4 470 482 483 471
4 471 483 484 472
4 472 484 485 473
4 473 485 486 474
4 474 486 487 475
4 475 487 488 476
4 476 488 489 477
4 477 489 490 478
4 478 490 491 479
4 480 492 493 481
4 481 493 494 482
4 482 494 495 483
4 483 495 496 484
4 484 496 497 485
4 485 497 498 486
4 486 498 499 487
4 487 499 500 488
4 488 500 501 489
4 489 501 502 490
4 490 502 503 491
4 492 504 505 493
4 493 505 506 494
4 494 506 507 495
4 495 507 508 496
4 496 508 509 497
4 497 509 510 498
4 498 510 511 499
4 499 511 512 500
4 500 512 513 501
4 501 513 514 502
4 502 514 515 503
4 504 516 517 505
4 505 517 518 506
4 506 518 519 507
4 507 519 520 508
4 508 520 521 509
4 509 521 522 510
4 510 522 523 511
4 511 523 524 512
4 512 524 525 513
4 513 525 526 514
4 514 526 527 515
4 516 528 529 517
4 517 529 530 518
4 518 530 531 519
4 519 531 532 520
4 520 532 533 521
4 521 533 534 522
4 522 534 535 523
4 523 535 536 524
4 524 536 537 525
4 525 537 538 526
4 526 538 539 527
4 528 540 541 529
4 529 541 542 530
4 530 542 543 531
4 531 543 544 532
4 532 544 545 533
4 533 545 546 534
4 534 546 547 535
4 535 547 548 536
4 536 548 549 537
4 537 549 550 538
4 538 550 551 539
4 540 552 553 541
4 541 553 554 542
4 542 554 555 543
4 543 555 556 544
4 544 556 557 545
4 545 557 558 546
4 546 558 559 547
4 547 559 560 548
4 548 560 561 549
4 549 561 562 550
4 550 562 563 551
4 552 564 565 553
4 553 565 566 554
4 554 566 567 555
4 555 567 568 556
4 556 568 569 557
4 557 569 570 558
4 558 570 571 559
4 559 571 572 560
4 560 572 573 561
4 561 573 574 562
4 562 574 575 563
4 564 576 577 565
4 565 577 578 566
4 566 578 579 567
4 567 579 580 568
4 568 580 581 569
4 569 581 582 570
4 570 582 583 571
4 571 583 584 572
4 572 584 585 573
4 573 585 586 574
4 574 586 587 575
4 576 588 589 577
4 577 589 590 578
4 578 590 591 579
4 579 591 592 580
4 580 592 593 581
4 581 593 594 582
4 582 594 595 583
4 583 595 596 584
4 584 596 597 585
4 585 597 598 586
4 586 598 599 587
4 588 600 601 589
4 589 601 602 590
4 590 602 603 591
4 591 603 604 592
4 592 604 605 593
4 593 605 606 594
4 594 606 607 595
4 595 607 608 596
4 596 608 609 597
4 597 609 610 598
4 598 610 611 599
4 600 612 613 601
4 601 613 614 602
4 602 614 615 603
4 603 615 616 604
4 604 616 617 605
4 605 617 618 606
4 606 618 619 607
4 607 619 620 608
4 608 620 621 609
4 609 621 622 610
4 610 622 623 611
4 612 624 625 613
4 613 625 626 614
4 614 626 627 615
4 615 627 628 616
4 616 628 629 617
4 617 629 630 618
4 618 630 631 619
4 619 631 632 620
4 620 632 633 621
4 621 633 634 622
4 622 634 635 623
4 624 636 637 625
4 625 637 638 626
4 626 638 639 627
4 627 639 640 628
4 628 640 641 629
4 629 641 642 630
4 630 642 643 631
4 631 643 644 632
4 632 644 645 633
4 633 645 646 634
4 634 646 647 635
4 636 648 649 637
4 637 649 650 638
4 638 650 651 639
4 639 651 652 640
4 640 652 653 641
4 641 653 654 642
4 642 654 655 643
4 643 655 656 644
4 644 656 657 645
4 645 657 658 646
4 646 658 659 647
4 648 660 661 649
4 649 661 662 650
4 650 662 663 651
4 651 663 664 652
4 652 664 665 653
4 653 665 666 654
4 654 666 667 655
4 655 667 668 656
4 656 668 669 657
4 657 669 670 658
4 658 670 671 659
4 660 672 673 661
4 661 673 674 662
4 662 674 675 663
4 663 675 676 664
4 664 676 677 665
4 665 677 678 666
4 666 678 679 667
4 667 679 680 668
4 668 680 681 669
4 669 681 682 670
4 670 682 683 671
4 672 684 685 673
4 673 685 686 674
4 674 686 687 675
4 675 687 688 676
4 676 688 689 677
4 677 689 690 678
4 678 690 691 679
4 679 691 692 680
4 680 692 693 681
4 681 693 694 682
4 682 694 695 683
4 684 696 697 685
4 685 697 698 686
4 686 698 699 687
4 687 699 700 688
4 688 700 701 689
4 689 701 702 690
4 690 702 703 691
4 691 703 704 692
4 692 704 705 693
4 693 705 706 694
4 694 706 707 695
4 696 708 709 697
4 697 709 710 698
4 698 710 711 699
4 699 711 712 700
4 700 712 713 701
4 701 713 714 702
4 702 714 715 703
4 703 715 716 704
4 704 716 717 705
4 705 717 718 706
4 706 718 719 707
4 708 720 721 709
4 709 721 722 710
4 710 722 723 711
4 711 723 724 712
4 712 724 725 713
4 713 725 726 714
4 714 726 727 715
4 715 727 728 716
4 716 728 729 717
4 717 729 730 718
4 718 730 731 719
