ply
format ascii 1.0
comment object: vertex cloud
element vertex 372
property double x
property double y
property double z
property uchar red                   { start of face colors }
property uchar green
property uchar blue
element face 369
property list uchar int vertex_indices
end_header
0 4 0 0 0 255
0 -2 3.4641 0 0 255
0 -2 -3.4641 0 0 255
8.37758 4 0 0 0 255
8.37758 -2 3.4641 0 0 255
8.37758 -2 -3.4641 0 0 255
16.7552 4 0 0 0 255
16.7552 -2 3.4641 0 0 255
16.7552 -2 -3.4641 0 0 255
25.1327 4 0 0 25 255
25.1327 -2 3.4641 0 25 255
25.1327 -2 -3.4641 0 25 255
33.5103 4 0 0 25 255
33.5103 -2 3.4641 0 25 255
33.5103 -2 -3.4641 0 25 255
41.8879 4 0 0 25 255
41.8879 -2 3.4641 0 25 255
41.8879 -2 -3.4641 0 25 255
50.2655 4 0 0 51 255
50.2655 -2 3.4641 0 51 255
50.2655 -2 -3.4641 0 51 255
58.6431 4 0 0 51 255
58.6431 -2 3.4641 0 51 255
58.6431 -2 -3.4641 0 51 255
67.0206 4 0 0 51 255
67.0206 -2 3.4641 0 51 255
67.0206 -2 -3.4641 0 51 255
75.3982 4 0 0 76 255
75.3982 -2 3.4641 0 76 255
75.3982 -2 -3.4641 0 76 255
83.7758 4 0 0 76 255
83.7758 -2 3.4641 0 76 255
83.7758 -2 -3.4641 0 76 255
92.1534 4 0 0 76 255
92.1534 -2 3.4641 0 76 255
92.1534 -2 -3.4641 0 76 255
100.531 4 0 0 102 255
100.531 -2 3.4641 0 102 255
100.531 -2 -3.4641 0 102 255
108.909 4 0 0 102 255
108.909 -2 3.4641 0 102 255
108.909 -2 -3.4641 0 102 255
117.286 4 0 0 102 255
117.286 -2 3.4641 0 102 255
117.286 -2 -3.4641 0 102 255
125.664 4 0 0 127 255
125.664 -2 3.4641 0 127 255
125.664 -2 -3.4641 0 127 255
134.041 4 0 0 127 255
134.041 -2 3.4641 0 127 255
134.041 -2 -3.4641 0 127 255
142.419 4 0 0 127 255
142.419 -2 3.4641 0 127 255
142.419 -2 -3.4641 0 127 255
150.796 4 0 0 153 255
150.796 -2 3.4641 0 153 255
150.796 -2 -3.4641 0 153 255
159.174 4 0 0 153 255
159.174 -2 3.4641 0 153 255
159.174 -2 -3.4641 0 153 255
167.552 4 0 0 153 255
167.552 -2 3.4641 0 153 255
167.552 -2 -3.4641 0 153 255
175.929 4 0 0 178 255
175.929 -2 3.4641 0 178 255
175.929 -2 -3.4641 0 178 255
184.307 4 0 0 178 255
184.307 -2 3.4641 0 178 255
184.307 -2 -3.4641 0 178 255
192.684 4 0 0 178 255
192.684 -2 3.4641 0 178 255
192.684 -2 -3.4641 0 178 255
201.062 4 0 0 204 255
201.062 -2 3.4641 0 204 255
201.062 -2 -3.4641 0 204 255
209.44 4 0 0 204 255
209.44 -2 3.4641 0 204 255
209.44 -2 -3.4641 0 204 255
217.817 4 0 0 204 255
217.817 -2 3.4641 0 204 255
217.817 -2 -3.4641 0 204 255
226.195 4 0 0 229 255
226.195 -2 3.4641 0 229 255
226.195 -2 -3.4641 0 229 255
234.572 4 0 0 229 255
234.572 -2 3.4641 0 229 255
234.572 -2 -3.4641 0 229 255
242.95 4 0 0 229 255
242.95 -2 3.4641 0 229 255
242.95 -2 -3.4641 0 229 255
251.327 4 0 0 255 255
251.327 -2 3.4641 0 255 255
251.327 -2 -3.4641 0 255 255
259.705 4 0 0 255 255
259.705 -2 3.4641 0 255 255
259.705 -2 -3.4641 0 255 255
268.083 4 0 0 255 255
268.083 -2 3.4641 0 255 255
268.083 -2 -3.4641 0 255 255
276.46 4 0 0 255 229
276.46 -2 3.4641 0 255 229
276.46 -2 -3.4641 0 255 229
284.838 4 0 0 255 229
284.838 -2 3.4641 0 255 229
284.838 -2 -3.4641 0 255 229
293.215 4 0 0 255 229
293.215 -2 3.4641 0 255 229
293.215 -2 -3.4641 0 255 229
301.593 4 0 0 255 204
301.593 -2 3.4641 0 255 204
301.593 -2 -3.4641 0 255 204
309.97 4 0 0 255 204
309.97 -2 3.4641 0 255 204
309.97 -2 -3.4641 0 255 204
318.348 4 0 0 255 204
318.348 -2 3.4641 0 255 204
318.348 -2 -3.4641 0 255 204
326.726 4 0 0 255 178
326.726 -2 3.4641 0 255 178
326.726 -2 -3.4641 0 255 178
335.103 4 0 0 255 178
335.103 -2 3.4641 0 255 178
335.103 -2 -3.4641 0 255 178
343.481 4 0 0 255 178
343.481 -2 3.4641 0 255 178
343.481 -2 -3.4641 0 255 178
351.858 4 0 0 255 153
351.858 -2 3.4641 0 255 153
351.858 -2 -3.4641 0 255 153
360.236 4 0 0 255 153
360.236 -2 3.4641 0 255 153
360.236 -2 -3.4641 0 255 153
368.614 4 0 0 255 153
368.614 -2 3.4641 0 255 153
368.614 -2 -3.4641 0 255 153
376.991 4 0 0 255 127
376.991 -2 3.4641 0 255 127
376.991 -2 -3.4641 0 255 127
385.369 4 0 0 255 127
385.369 -2 3.4641 0 255 127
385.369 -2 -3.4641 0 255 127
393.746 4 0 0 255 127
393.746 -2 3.4641 0 255 127
393.746 -2 -3.4641 0 255 127
402.124 4 0 0 255 102
402.124 -2 3.4641 0 255 102
402.124 -2 -3.4641 0 255 102
410.501 4 0 0 255 102
410.501 -2 3.4641 0 255 102
410.501 -2 -3.4641 0 255 102
418.879 4 0 0 255 102
418.879 -2 3.4641 0 255 102
418.879 -2 -3.4641 0 255 102
427.257 4 0 0 255 76
427.257 -2 3.4641 0 255 76
427.257 -2 -3.4641 0 255 76
435.634 4 0 0 255 76
435.634 -2 3.4641 0 255 76
435.634 -2 -3.4641 0 255 76
444.012 4 0 0 255 76
444.012 -2 3.4641 0 255 76
444.012 -2 -3.4641 0 255 76
452.389 4 0 0 255 51
452.389 -2 3.4641 0 255 51
452.389 -2 -3.4641 0 255 51
460.767 4 0 0 255 51
460.767 -2 3.4641 0 255 51
460.767 -2 -3.4641 0 255 51
469.145 4 0 0 255 51
469.145 -2 3.4641 0 255 51
469.145 -2 -3.4641 0 255 51
477.522 4 0 0 255 25
477.522 -2 3.4641 0 255 25
477.522 -2 -3.4641 0 255 25
485.9 4 0 0 255 25
485.9 -2 3.4641 0 255 25
485.9 -2 -3.4641 0 255 25
494.277 4 0 0 255 25
494.277 -2 3.4641 0 255 25
494.277 -2 -3.4641 0 255 25
502.655 4 0 0 255 0
502.655 -2 3.4641 0 255 0
502.655 -2 -3.4641 0 255 0
511.032 4 0 0 255 0
511.032 -2 3.4641 0 255 0
511.032 -2 -3.4641 0 255 0
519.41 4 0 0 255 0
519.41 -2 3.4641 0 255 0
519.41 -2 -3.4641 0 255 0
527.788 4 0 25 255 0
527.788 -2 3.4641 25 255 0
527.788 -2 -3.4641 25 255 0
536.165 4 0 25 255 0
536.165 -2 3.4641 25 255 0
536.165 -2 -3.4641 25 255 0
544.543 4 0 25 255 0
544.543 -2 3.4641 25 255 0
544.543 -2 -3.4641 25 255 0
552.92 4 0 51 255 0
552.92 -2 3.4641 51 255 0
552.92 -2 -3.4641 51 255 0
561.298 4 0 51 255 0
561.298 -2 3.4641 51 255 0
561.298 -2 -3.4641 51 255 0
569.675 4 0 51 255 0
569.675 -2 3.4641 51 255 0
569.675 -2 -3.4641 51 255 0
578.053 4 0 76 255 0
578.053 -2 3.4641 76 255 0
578.053 -2 -3.4641 76 255 0
586.431 4 0 76 255 0
586.431 -2 3.4641 76 255 0
586.431 -2 -3.4641 76 255 0
594.808 4 0 76 255 0
594.808 -2 3.4641 76 255 0
594.808 -2 -3.4641 76 255 0
603.186 4 0 102 255 0
603.186 -2 3.4641 102 255 0
603.186 -2 -3.4641 102 255 0
611.563 4 0 102 255 0
611.563 -2 3.4641 102 255 0
611.563 -2 -3.4641 102 255 0
619.941 4 0 102 255 0
619.941 -2 3.4641 102 255 0
619.941 -2 -3.4641 102 255 0
628.319 4 0 127 255 0
628.319 -2 3.4641 127 255 0
628.319 -2 -3.4641 127 255 0
636.696 4 0 127 255 0
636.696 -2 3.4641 127 255 0
636.696 -2 -3.4641 127 255 0
645.074 4 0 127 255 0
645.074 -2 3.4641 127 255 0
645.074 -2 -3.4641 127 255 0
653.451 4 0 153 255 0
653.451 -2 3.4641 153 255 0
653.451 -2 -3.4641 153 255 0
661.829 4 0 153 255 0
661.829 -2 3.4641 153 255 0
661.829 -2 -3.4641 153 255 0
670.206 4 0 153 255 0
670.206 -2 3.4641 153 255 0
670.206 -2 -3.4641 153 255 0
678.584 4 0 178 255 0
678.584 -2 3.4641 178 255 0
678.584 -2 -3.4641 178 255 0
686.962 4 0 178 255 0
686.962 -2 3.4641 178 255 0
686.962 -2 -3.4641 178 255 0
695.339 4 0 178 255 0
695.339 -2 3.4641 178 255 0
695.339 -2 -3.4641 178 255 0
703.717 4 0 204 255 0
703.717 -2 3.4641 204 255 0
703.717 -2 -3.4641 204 255 0
712.094 4 0 204 255 0
712.094 -2 3.4641 204 255 0
712.094 -2 -3.4641 204 255 0
720.472 4 0 204 255 0
720.472 -2 3.4641 204 255 0
720.472 -2 -3.4641 204 255 0
728.849 4 0 229 255 0
728.849 -2 3.4641 229 255 0
728.849 -2 -3.4641 229 255 0
737.227 4 0 229 255 0
737.227 -2 3.4641 229 255 0
737.227 -2 -3.4641 229 255 0
745.605 4 0 229 255 0
745.605 -2 3.4641 229 255 0
745.605 -2 -3.4641 229 255 0
753.982 4 0 255 255 0
753.982 -2 3.4641 255 255 0
753.982 -2 -3.4641 255 255 0
762.36 4 0 255 255 0
762.36 -2 3.4641 255 255 0
762.36 -2 -3.4641 255 255 0
770.737 4 0 255 255 0
770.737 -2 3.4641 255 255 0
770.737 -2 -3.4641 255 255 0
779.115 4 0 255 229 0
779.115 -2 3.4641 255 229 0
779.115 -2 -3.4641 255 229 0
787.493 4 0 255 229 0
787.493 -2 3.4641 255 229 0
787.493 -2 -3.4641 255 229 0
795.87 4 0 255 229 0
795.87 -2 3.4641 255 229 0
795.87 -2 -3.4641 255 229 0
804.248 4 0 255 204 0
804.248 -2 3.4641 255 204 0
804.248 -2 -3.4641 255 204 0
812.625 4 0 255 204 0
812.625 -2 3.4641 255 204 0
812.625 -2 -3.4641 255 204 0
821.003 4 0 255 204 0
821.003 -2 3.4641 255 204 0
821.003 -2 -3.4641 255 204 0
829.38 4 0 255 178 0
829.38 -2 3.4641 255 178 0
829.38 -2 -3.4641 255 178 0
837.758 4 0 255 178 0
837.758 -2 3.4641 255 178 0
837.758 -2 -3.4641 255 178 0
846.136 4 0 255 178 0
846.136 -2 3.4641 255 178 0
846.136 -2 -3.4641 255 178 0
854.513 4 0 255 153 0
854.513 -2 3.4641 255 153 0
854.513 -2 -3.4641 255 153 0
862.891 4 0 255 153 0
862.891 -2 3.4641 255 153 0
862.891 -2 -3.4641 255 153 0
871.268 4 0 255 153 0
871.268 -2 3.4641 255 153 0
871.268 -2 -3.4641 255 153 0
879.646 4 0 255 127 0
879.646 -2 3.4641 255 127 0
879.646 -2 -3.4641 255 127 0
888.024 4 0 255 127 0
888.024 -2 3.4641 255 127 0
888.024 -2 -3.4641 255 127 0
896.401 4 0 255 127 0
896.401 -2 3.4641 255 127 0
896.401 -2 -3.4641 255 127 0
904.779 4 0 255 102 0
904.779 -2 3.4641 255 102 0
904.779 -2 -3.4641 255 102 0
913.156 4 0 255 102 0
913.156 -2 3.4641 255 102 0
913.156 -2 -3.4641 255 102 0
921.534 4 0 255 102 0
921.534 -2 3.4641 255 102 0
921.534 -2 -3.4641 255 102 0
929.911 4 0 255 76 0
929.911 -2 3.4641 255 76 0
929.911 -2 -3.4641 255 76 0
938.289 4 0 255 76 0
938.289 -2 3.4641 255 76 0
938.289 -2 -3.4641 255 76 0
946.667 4 0 255 76 0
946.667 -2 3.4641 255 76 0
946.667 -2 -3.4641 255 76 0
955.044 4 0 255 51 0
955.044 -2 3.4641 255 51 0
955.044 -2 -3.4641 255 51 0
963.422 4 0 255 51 0
963.422 -2 3.4641 255 51 0
963.422 -2 -3.4641 255 51 0
971.799 4 0 255 51 0
971.799 -2 3.4641 255 51 0
971.799 -2 -3.4641 255 51 0
980.177 4 0 255 25 0
980.177 -2 3.4641 255 25 0
980.177 -2 -3.4641 255 25 0
988.554 4 0 255 25 0
988.554 -2 3.4641 255 25 0
988.554 -2 -3.4641 255 25 0
996.932 4 0 255 25 0
996.932 -2 3.4641 255 25 0
996.932 -2 -3.4641 255 25 0
1005.31 4 0 255 0 0
1005.31 -2 3.4641 255 0 0
1005.31 -2 -3.4641 255 0 0
1013.69 4 0 255 0 0
1013.69 -2 3.4641 255 0 0
1013.69 -2 -3.4641 255 0 0
1022.06 4 0 255 0 0
1022.06 -2 3.4641 255 0 0
1022.06 -2 -3.4641 255 0 0
1030.44 4 0 255 0 0
1030.44 -2 3.4641 255 0 0
1030.44 -2 -3.4641 255 0 0
4 0 3 4 1
4 1 4 5 2
4 2 5 3 0
4 3 6 7 4
4 4 7 8 5
4 5 8 6 3
4 6 9 10 7
4 7 10 11 8
4 8 11 9 6
4 9 12 13 10
4 10 13 14 11
4 11 14 12 9
4 12 15 16 13
4 13 16 17 14
4 14 17 15 12
4 15 18 19 16
4 16 19 20 17
4 17 20 18 15
4 18 21 22 19
4 19 22 23 20
4 20 23 21 18
4 21 24 25 22
4 22 25 26 23
4 23 26 24 21
4 24 27 28 25
4 25 28 29 26
4 26 29 27 24
4 27 30 31 28
4 28 31 32 29
4 29 32 30 27
4 30 33 34 31
4 31 34 35 32
4 32 35 33 30
4 33 36 37 34
4 34 37 38 35
4 35 38 36 33
4 36 39 40 37
4 37 40 41 38
4 38 41 39 36
4 39 42 43 40
4 40 43 44 41
4 41 44 42 39
4 42 45 46 43
4 43 46 47 44
4 44 47 45 42
4 45 48 49 46
4 46 49 50 47
4 47 50 48 45
4 48 51 52 49
4 49 52 53 50
4 50 53 51 48
4 51 54 55 52
4 52 55 56 53
4 53 56 54 51
4 54 57 58 55
4 55 58 59 56
4 56 59 57 54
4 57 60 61 58
4 58 61 62 59
4 59 62 60 57
4 60 63 64 61
4 61 64 65 62
4 62 65 63 60
4 63 66 67 64
4 64 67 68 65
4 65 68 66 63
4 66 69 70 67
4 67 70 71 68
4 68 71 69 66
4 69 72 73 70
4 70 73 74 71
4 71 74 72 69
4 72 75 76 73
4 73 76 77 74
4 74 77 75 72
4 75 78 79 76
4 76 79 80 77
4 77 80 78 75
4 78 81 82 79
4 79 82 83 80
4 80 83 81 78
4 81 84 85 82
4 82 85 86 83
4 83 86 84 81
4 84 87 88 85
4 85 88 89 86
4 86 89 87 84
4 87 90 91 88
4 88 91 92 89
4 89 92 90 87
4 90 93 94 91
4 91 94 95 92
4 92 95 93 90
4 93 96 97 94
4 94 97 98 95
4 95 98 96 93
4 96 99 100 97
4 97 100 101 98
4 98 101 99 96
4 99 102 103 100
4 100 103 104 101
4 101 104 102 99
4 102 105 106 103
4 103 106 107 104
4 104 107 105 102
4 105 108 109 106
4 106 109 110 107
4 107 110 108 105
4 108 111 112 109
4 109 112 113 110
4 110 113 111 108
4 111 114 115 112
4 112 115 116 113
4 113 116 114 111
4 114 117 118 115
4 115 118 119 116
4 116 119 117 114
4 117 120 121 118
4 118 121 122 119
4 119 122 120 117
4 120 123 124 121
4 121 124 125 122
4 122 125 123 120
4 123 126 127 124
4 124 127 128 125
4 125 128 126 123
4 126 129 130 127
4 127 130 131 128
4 128 131 129 126
4 129 132 133 130
4 130 133 134 131
4 131 134 132 129
4 132 135 136 133
4 133 136 137 134
4 134 137 135 132
4 135 138 139 136
4 136 139 140 137
4 137 140 138 135
4 138 141 142 139
4 139 142 143 140
4 140 143 141 138
4 141 144 145 142
4 142 145 146 143
4 143 146 144 141
4 144 147 148 145
4 145 148 149 146
4 146 149 147 144
4 147 150 151 148
4 148 151 152 149
4 149 152 150 147
4 150 153 154 151
4 151 154 155 152
4 152 155 153 150
4 153 156 157 154
4 154 157 158 155
4 155 158 156 153
4 156 159 160 157
4 157 160 161 158
4 158 161 159 156
4 159 162 163 160
4 160 163 164 161
4 161 164 162 159
4 162 165 166 163
4 163 166 167 164
4 164 167 165 162
4 165 168 169 166
4 166 169 170 167
4 167 170 168 165
4 168 171 172 169
4 169 172 173 170
4 170 173 171 168
4 171 174 175 172
4 172 175 176 173
4 173 176 174 171
4 174 177 178 175
4 175 178 179 176
4 176 179 177 174
4 177 180 181 178
4 178 181 182 179
4 179 182 180 177
4 180 183 184 181
4 181 184 185 182
4 182 185 183 180
4 183 186 187 184
4 184 187 188 185
4 185 188 186 183
4 186 189 190 187
4 187 190 191 188
4 188 191 189 186
4 189 192 193 190
4 190 193 194 191
4 191 194 192 189
4 192 195 196 193
4 193 196 197 194
4 194 197 195 192
4 195 198 199 196
4 196 199 200 197
4 197 200 198 195
4 198 201 202 199
4 199 202 203 200
4 200 203 201 198
4 201 204 205 202
4 202 205 206 203
4 203 206 204 201
4 204 207 208 205
4 205 208 209 206
4 206 209 207 204
4 207 210 211 208
4 208 211 212 209
4 209 212 210 207
4 210 213 214 211
4 211 214 215 212
4 212 215 213 210
4 213 216 217 214
4 214 217 218 215
4 215 218 216 213
4 216 219 220 217
4 217 220 221 218
4 218 221 219 216
4 219 222 223 220
4 220 223 224 221
4 221 224 222 219
4 222 225 226 223
4 223 226 227 224
4 224 227 225 222
4 225 228 229 226
4 226 229 230 227
4 227 230 228 225
4 228 231 232 229
4 229 232 233 230
4 230 233 231 228
4 231 234 235 232
4 232 235 236 233
4 233 236 234 231
4 234 237 238 235
4 235 238 239 236
4 236 239 237 234
4 237 240 241 238
4 238 241 242 239
4 239 242 240 237
4 240 243 244 241
4 241 244 245 242
4 242 245 243 240
4 243 246 247 244
4 244 247 248 245
4 245 248 246 243
4 246 249 250 247
4 247 250 251 248
4 248 251 249 246
4 249 252 253 250
4 250 253 254 251
4 251 254 252 249
4 252 255 256 253
4 253 256 257 254
4 254 257 255 252
4 255 258 259 256
4 256 259 260 257
4 257 260 258 255
4 258 261 262 259
4 259 262 263 260
4 260 263 261 258
4 261 264 265 262
4 262 265 266 263
4 263 266 264 261
4 264 267 268 265
4 265 268 269 266
4 266 269 267 264
4 267 270 271 268
4 268 271 272 269
4 269 272 270 267
4 270 273 274 271
4 271 274 275 272
4 272 275 273 270
4 273 276 277 274
4 274 277 278 275
4 275 278 276 273
4 276 279 280 277
4 277 280 281 278
4 278 281 279 276
4 279 282 283 280
4 280 283 284 281
4 281 284 282 279
4 282 285 286 283
4 283 286 287 284
4 284 287 285 282
4 285 288 289 286
4 286 289 290 287
4 287 290 288 285
4 288 291 292 289
4 289 292 293 290
4 290 293 291 288
4 291 294 295 292
4 292 295 296 293
4 293 296 294 291
4 294 297 298 295
4 295 298 299 296
4 296 299 297 294
4 297 300 301 298
4 298 301 302 299
4 299 302 300 297
4 300 303 304 301
4 301 304 305 302
4 302 305 303 300
4 303 306 307 304
4 304 307 308 305
4 305 308 306 303
4 306 309 310 307
4 307 310 311 308
4 308 311 309 306
4 309 312 313 310
4 310 313 314 311
4 311 314 312 309
4 312 315 316 313
4 313 316 317 314
4 314 317 315 312
4 315 318 319 316
4 316 319 320 317
4 317 320 318 315
4 318 321 322 319
4 319 322 323 320
4 320 323 321 318
4 321 324 325 322
4 322 325 326 323
4 323 326 324 321
4 324 327 328 325
4 325 328 329 326
4 326 329 327 324
4 327 330 331 328
4 328 331 332 329
4 329 332 330 327
4 330 333 334 331
4 331 334 335 332
4 332 335 333 330
4 333 336 337 334
4 334 337 338 335
4 335 338 336 333
4 336 339 340 337
4 337 340 341 338
4 338 341 339 336
4 339 342 343 340
4 340 343 344 341
4 341 344 342 339
4 342 345 346 343
4 343 346 347 344
4 344 347 345 342
4 345 348 349 346
4 346 349 350 347
4 347 350 348 345
4 348 351 352 349
4 349 352 353 350
4 350 353 351 348
4 351 354 355 352
4 352 355 356 353
4 353 356 354 351
4 354 357 358 355
4 355 358 359 356
4 356 359 357 354
4 357 360 361 358
4 358 361 362 359
4 359 362 360 357
4 360 363 364 361
4 361 364 365 362
4 362 365 363 360
4 363 366 367 364
4 364 367 368 365
4 365 368 366 363
4 366 369 370 367
4 367 370 371 368
4 368 371 369 366
