ply
format ascii 1.0
comment object: vertex cloud
element vertex 120
property double x
property double y
property double z
element face 96
property list uchar int vertex_indices
end_header
2000 0 0
1931 517 0
1732 1000 0
1414 1414 0
999 1732 0
517 1931 0
0 2000 0
-517 1931 0
-1000 1732 0
-1414 1414 0
-1732 999 0
-1931 517 0
-2000 0 0
-1931 -517 0
-1732 -1000 0
-1414 -1414 0
-999 -1732 0
-517 -1931 0
0 -2000 0
517 -1931 0
1000 -1732 0
1414 -1414 0
1732 -999 0
1931 -517 0
2000 0 785
1931 517 785
1732 1000 785
1414 1414 785
999 1732 785
517 1931 785
0 2000 785
-517 1931 785
-1000 1732 785
-1414 1414 785
-1732 999 785
-1931 517 785
-2000 0 785
-1931 -517 785
-1732 -1000 785
-1414 -1414 785
-999 -1732 785
-517 -1931 785
0 -2000 785
517 -1931 785
1000 -1732 785
1414 -1414 785
1732 -999 785
1931 -517 785
2000 0 1570
1931 517 1570
1732 1000 1570
1414 1414 1570
999 1732 1570
517 1931 1570
0 2000 1570
-517 1931 1570
-1000 1732 1570
-1414 1414 1570
-1732 999 1570
-1931 517 1570
-2000 0 1570
-1931 -517 1570
-1732 -1000 1570
-1414 -1414 1570
-999 -1732 1570
-517 -1931 1570
0 -2000 1570
517 -1931 1570
1000 -1732 1570
1414 -1414 1570
1732 -999 1570
1931 -517 1570
2000 0 2356
1931 517 2356
1732 1000 2356
1414 1414 2356
999 1732 2356
517 1931 2356
0 2000 2356
-517 1931 2356
-1000 1732 2356
-1414 1414 2356
-1732 999 2356
-1931 517 2356
-2000 0 2356
-1931 -517 2356
-1732 -1000 2356
-1414 -1414 2356
-999 -1732 2356
-517 -1931 2356
0 -2000 2356
517 -1931 2356
1000 -1732 2356
1414 -1414 2356
1732 -999 2356
1931 -517 2356
2000 0 3141
1931 517 3141
1732 1000 3141
1414 1414 3141
999 1732 3141
517 1931 3141
0 2000 3141
-517 1931 3141
-1000 1732 3141
-1414 1414 3141
-1732 999 3141
-1931 517 3141
-2000 0 3141
-1931 -517 3141
-1732 -1000 3141
-1414 -1414 3141
-999 -1732 3141
-517 -1931 3141
0 -2000 3141
517 -1931 3141
1000 -1732 3141
1414 -1414 3141
1732 -999 3141
1931 -517 3141
4 0 24 25 1
4 1 25 26 2
4 2 26 27 3
4 3 27 28 4
4 4 28 29 5
4 5 29 30 6
4 6 30 31 7
4 7 31 32 8
4 8 32 33 9
4 9 33 34 10
4 10 34 35 11
4 11 35 36 12
4 12 36 37 13
4 13 37 38 14
4 14 38 39 15
4 15 39 40 16
4 16 40 41 17
4 17 41 42 18
4 18 42 43 19
4 19 43 44 20
4 20 44 45 21
4 21 45 46 22
4 22 46 47 23
4 23 47 24 0
4 24 48 49 25
4 25 49 50 26
4 26 50 51 27
4 27 51 52 28
4 28 52 53 29
4 29 53 54 30
4 30 54 55 31
4 31 55 56 32
4 32 56 57 33
4 33 57 58 34
4 34 58 59 35
4 35 59 60 36
4 36 60 61 37
4 37 61 62 38
4 38 62 63 39
4 39 63 64 40
4 40 64 65 41
4 41 65 66 42
4 42 66 67 43
4 43 67 68 44
4 44 68 69 45
4 45 69 70 46
4 46 70 71 47
4 47 71 48 24
4 48 72 73 49
4 49 73 74 50
4 50 74 75 51
4 51 75 76 52
4 52 76 77 53
4 53 77 78 54
4 54 78 79 55
4 55 79 80 56
4 56 80 81 57
4 57 81 82 58
4 58 82 83 59
4 59 83 84 60
4 60 84 85 61
4 61 85 86 62
4 62 86 87 63
4 63 87 88 64
4 64 88 89 65
4 65 89 90 66
4 66 90 91 67
4 67 91 92 68
4 68 92 93 69
4 69 93 94 70
4 70 94 95 71
4 71 95 72 48
4 72 96 97 73
4 73 97 98 74
4 74 98 99 75
4 75 99 100 76
4 76 100 101 77
4 77 101 102 78
4 78 102 103 79
4 79 103 104 80
4 80 104 105 81
4 81 105 106 82
4 82 106 107 83
4 83 107 108 84
4 84 108 109 85
4 85 109 110 86
4 86 110 111 87
4 87 111 112 88
4 88 112 113 89
4 89 113 114 90
4 90 114 115 91
4 91 115 116 92
4 92 116 117 93
4 93 117 118 94
4 94 118 119 95
4 95 119 96 72
