ply
format ascii 1.0
comment object: vertex cloud
element vertex 564
property double x
property double y
property double z
element face 506
property list uchar int vertex_indices
end_header
0 0 -1000
0 258 -965
0 500 -866
0 707 -707
0 866 -499
0 965 -258
0 1000 0
0 965 258
0 866 500
0 707 707
0 499 866
0 258 965
130 0 -1000
130 258 -965
130 500 -866
130 707 -707
130 866 -499
130 965 -258
130 1000 0
130 965 258
130 866 500
130 707 707
130 499 866
130 258 965
261 0 -1000
261 258 -965
261 500 -866
261 707 -707
261 866 -499
261 965 -258
261 1000 0
261 965 258
261 866 500
261 707 707
261 499 866
261 258 965
392 0 -1000
392 258 -965
392 500 -866
392 707 -707
392 866 -499
392 965 -258
392 1000 0
392 965 258
392 866 500
392 707 707
392 499 866
392 258 965
523 0 -1000
523 258 -965
523 500 -866
523 707 -707
523 866 -499
523 965 -258
523 1000 0
523 965 258
523 866 500
523 707 707
523 499 866
523 258 965
654 0 -1000
654 258 -965
654 500 -866
654 707 -707
654 866 -499
654 965 -258
654 1000 0
654 965 258
654 866 500
654 707 707
654 499 866
654 258 965
785 0 -1000
785 258 -965
785 500 -866
785 707 -707
785 866 -499
785 965 -258
785 1000 0
785 965 258
785 866 500
785 707 707
785 499 866
785 258 965
916 0 -1000
916 258 -965
916 500 -866
916 707 -707
916 866 -499
916 965 -258
916 1000 0
916 965 258
916 866 500
916 707 707
916 499 866
916 258 965
1047 0 -1000
1047 258 -965
1047 500 -866
1047 707 -707
1047 866 -499
1047 965 -258
1047 1000 0
1047 965 258
1047 866 500
1047 707 707
1047 499 866
1047 258 965
1178 0 -1000
1178 258 -965
1178 500 -866
1178 707 -707
1178 866 -499
1178 965 -258
1178 1000 0
1178 965 258
1178 866 500
1178 707 707
1178 499 866
1178 258 965
1308 0 -1000
1308 258 -965
1308 500 -866
1308 707 -707
1308 866 -499
1308 965 -258
1308 1000 0
1308 965 258
1308 866 500
1308 707 707
1308 499 866
1308 258 965
1439 0 -1000
1439 258 -965
1439 500 -866
1439 707 -707
1439 866 -499
1439 965 -258
1439 1000 0
1439 965 258
1439 866 500
1439 707 707
1439 499 866
1439 258 965
1570 0 -1000
1570 258 -965
1570 500 -866
1570 707 -707
1570 866 -499
1570 965 -258
1570 1000 0
1570 965 258
1570 866 500
1570 707 707
1570 499 866
1570 258 965
1701 0 -1000
1701 258 -965
1701 500 -866
1701 707 -707
1701 866 -499
1701 965 -258
1701 1000 0
1701 965 258
1701 866 500
1701 707 707
1701 499 866
1701 258 965
1832 0 -1000
1832 258 -965
1832 500 -866
1832 707 -707
1832 866 -499
1832 965 -258
1832 1000 0
1832 965 258
1832 866 500
1832 707 707
1832 499 866
1832 258 965
1963 0 -1000
1963 258 -965
1963 500 -866
1963 707 -707
1963 866 -499
1963 965 -258
1963 1000 0
1963 965 258
1963 866 500
1963 707 707
1963 499 866
1963 258 965
2094 0 -1000
2094 258 -965
2094 500 -866
2094 707 -707
2094 866 -499
2094 965 -258
2094 1000 0
2094 965 258
2094 866 500
2094 707 707
2094 499 866
2094 258 965
2225 0 -1000
2225 258 -965
2225 500 -866
2225 707 -707
2225 866 -499
2225 965 -258
2225 1000 0
2225 965 258
2225 866 500
2225 707 707
2225 499 866
2225 258 965
2356 0 -1000
2356 258 -965
2356 500 -866
2356 707 -707
2356 866 -499
2356 965 -258
2356 1000 0
2356 965 258
2356 866 500
2356 707 707
2356 499 866
2356 258 965
2487 0 -1000
2487 258 -965
2487 500 -866
2487 707 -707
2487 866 -499
2487 965 -258
2487 1000 0
2487 965 258
2487 866 500
2487 707 707
2487 499 866
2487 258 965
2617 0 -1000
2617 258 -965
2617 500 -866
2617 707 -707
2617 866 -499
2617 965 -258
2617 1000 0
2617 965 258
2617 866 500
2617 707 707
2617 499 866
2617 258 965
2748 0 -1000
2748 258 -965
2748 500 -866
2748 707 -707
2748 866 -499
2748 965 -258
2748 1000 0
2748 965 258
2748 866 500
2748 707 707
2748 499 866
2748 258 965
2879 0 -1000
2879 258 -965
2879 500 -866
2879 707 -707
2879 866 -499
2879 965 -258
2879 1000 0
2879 965 258
2879 866 500
2879 707 707
2879 499 866
2879 258 965
3010 0 -1000
3010 258 -965
3010 500 -866
3010 707 -707
3010 866 -499
3010 965 -258
3010 1000 0
3010 965 258
3010 866 500
3010 707 707
3010 499 866
3010 258 965
3141 0 -1000
3141 258 -965
3141 500 -866
3141 707 -707
3141 866 -499
3141 965 -258
3141 1000 0
3141 965 258
3141 866 500
3141 707 707
3141 499 866
3141 258 965
3272 0 -1000
3272 258 -965
3272 500 -866
3272 707 -707
3272 866 -499
3272 965 -258
3272 1000 0
3272 965 258
3272 866 500
3272 707 707
3272 499 866
3272 258 965
3403 0 -1000
3403 258 -965
3403 500 -866
3403 707 -707
3403 866 -499
3403 965 -258
3403 1000 0
3403 965 258
3403 866 500
3403 707 707
3403 499 866
3403 258 965
3534 0 -1000
3534 258 -965
3534 500 -866
3534 707 -707
3534 866 -499
3534 965 -258
3534 1000 0
3534 965 258
3534 866 500
3534 707 707
3534 499 866
3534 258 965
3665 0 -1000
3665 258 -965
3665 500 -866
3665 707 -707
3665 866 -499
3665 965 -258
3665 1000 0
3665 965 258
3665 866 500
3665 707 707
3665 499 866
3665 258 965
3796 0 -1000
3796 258 -965
3796 500 -866
3796 707 -707
3796 866 -499
3796 965 -258
3796 1000 0
3796 965 258
3796 866 500
3796 707 707
3796 499 866
3796 258 965
3926 0 -1000
3926 258 -965
3926 500 -866
3926 707 -707
3926 866 -499
3926 965 -258
3926 1000 0
3926 965 258
3926 866 500
3926 707 707
3926 499 866
3926 258 965
4057 0 -1000
4057 258 -965
4057 500 -866
4057 707 -707
4057 866 -499
4057 965 -258
4057 1000 0
4057 965 258
4057 866 500
4057 707 707
4057 499 866
4057 258 965
4188 0 -1000
4188 258 -965
4188 500 -866
4188 707 -707
4188 866 -499
4188 965 -258
4188 1000 0
4188 965 258
4188 866 500
4188 707 707
4188 499 866
4188 258 965
4319 0 -1000
4319 258 -965
4319 500 -866
4319 707 -707
4319 866 -499
4319 965 -258
4319 1000 0
4319 965 258
4319 866 500
4319 707 707
4319 499 866
4319 258 965
4450 0 -1000
4450 258 -965
4450 500 -866
4450 707 -707
4450 866 -499
4450 965 -258
4450 1000 0
4450 965 258
4450 866 500
4450 707 707
4450 499 866
4450 258 965
4581 0 -1000
4581 258 -965
4581 500 -866
4581 707 -707
4581 866 -499
4581 965 -258
4581 1000 0
4581 965 258
4581 866 500
4581 707 707
4581 499 866
4581 258 965
4712 0 -1000
4712 258 -965
4712 500 -866
4712 707 -707
4712 866 -499
4712 965 -258
4712 1000 0
4712 965 258
4712 866 500
4712 707 707
4712 499 866
4712 258 965
4843 0 -1000
4843 258 -965
4843 500 -866
4843 707 -707
4843 866 -499
4843 965 -258
4843 1000 0
4843 965 258
4843 866 500
4843 707 707
4843 499 866
4843 258 965
4974 0 -1000
4974 258 -965
4974 500 -866
4974 707 -707
4974 866 -499
4974 965 -258
4974 1000 0
4974 965 258
4974 866 500
4974 707 707
4974 499 866
4974 258 965
5105 0 -1000
5105 258 -965
5105 500 -866
5105 707 -707
5105 866 -499
5105 965 -258
5105 1000 0
5105 965 258
5105 866 500
5105 707 707
5105 499 866
5105 258 965
5235 0 -1000
5235 258 -965
5235 500 -866
5235 707 -707
5235 866 -499
5235 965 -258
5235 1000 0
5235 965 258
5235 866 500
5235 707 707
5235 499 866
5235 258 965
5366 0 -1000
5366 258 -965
5366 500 -866
5366 707 -707
5366 866 -499
5366 965 -258
5366 1000 0
5366 965 258
5366 866 500
5366 707 707
5366 499 866
5366 258 965
5497 0 -1000
5497 258 -965
5497 500 -866
5497 707 -707
5497 866 -499
5497 965 -258
5497 1000 0
5497 965 258
5497 866 500
5497 707 707
5497 499 866
5497 258 965
5628 0 -1000
5628 258 -965
5628 500 -866
5628 707 -707
5628 866 -499
5628 965 -258
5628 1000 0
5628 965 258
5628 866 500
5628 707 707
5628 499 866
5628 258 965
5759 0 -1000
5759 258 -965
5759 500 -866
5759 707 -707
5759 866 -499
5759 965 -258
5759 1000 0
5759 965 258
5759 866 500
5759 707 707
5759 499 866
5759 258 965
5890 0 -1000
5890 258 -965
5890 500 -866
5890 707 -707
5890 866 -499
5890 965 -258
5890 1000 0
5890 965 258
5890 866 500
5890 707 707
5890 499 866
5890 258 965
6021 0 -1000
6021 258 -965
6021 500 -866
6021 707 -707
6021 866 -499
6021 965 -258
6021 1000 0
6021 965 258
6021 866 500
6021 707 707
6021 499 866
6021 258 965
4 0 12 13 1
4 1 13 14 2
4 2 14 15 3
4 3 15 16 4
4 4 16 17 5
4 5 17 18 6
4 6 18 19 7
4 7 19 20 8
4 8 20 21 9
4 9 21 22 10
4 10 22 23 11
4 12 24 25 13
4 13 25 26 14
4 14 26 27 15
4 15 27 28 16
4 16 28 29 17
4 17 29 30 18
4 18 30 31 19
4 19 31 32 20
4 20 32 33 21
4 21 33 34 22
4 22 34 35 23
4 24 36 37 25
4 25 37 38 26
4 26 38 39 27
4 27 39 40 28
4 28 40 41 29
4 29 41 42 30
4 30 42 43 31
4 31 43 44 32
4 32 44 45 33
4 33 45 46 34
4 34 46 47 35
4 36 48 49 37
4 37 49 50 38
4 38 50 51 39
4 39 51 52 40
4 40 52 53 41
4 41 53 54 42
4 42 54 55 43
4 43 55 56 44
4 44 56 57 45
4 45 57 58 46
4 46 58 59 47
4 48 60 61 49
4 49 61 62 50
4 50 62 63 51
4 51 63 64 52
4 52 64 65 53
4 53 65 66 54
4 54 66 67 55
4 55 67 68 56
4 56 68 69 57
4 57 69 70 58
4 58 70 71 59
4 60 72 73 61
4 61 73 74 62
4 62 74 75 63
4 63 75 76 64
4 64 76 77 65
4 65 77 78 66
4 66 78 79 67
4 67 79 80 68
4 68 80 81 69
4 69 81 82 70
4 70 82 83 71
4 72 84 85 73
4 73 85 86 74
4 74 86 87 75
4 75 87 88 76
4 76 88 89 77
4 77 89 90 78
4 78 90 91 79
4 79 91 92 80
4 80 92 93 81
4 81 93 94 82
4 82 94 95 83
4 84 96 97 85
4 85 97 98 86
4 86 98 99 87
4 87 99 100 88
4 88 100 101 89
4 89 101 102 90
4 90 102 103 91
4 91 103 104 92
4 92 104 105 93
4 93 105 106 94
4 94 106 107 95
4 96 108 109 97
4 97 109 110 98
4 98 110 111 99
4 99 111 112 100
4 100 112 113 101
4 101 113 114 102
4 102 114 115 103
4 103 115 116 104
4 104 116 117 105
4 105 117 118 106
4 106 118 119 107
4 108 120 121 109
4 109 121 122 110
4 110 122 123 111
4 111 123 124 112
4 112 124 125 113
4 113 125 126 114
4 114 126 127 115
4 115 127 128 116
4 116 128 129 117
4 117 129 130 118
4 118 130 131 119
4 120 132 133 121
4 121 133 134 122
4 122 134 135 123
4 123 135 136 124
4 124 136 137 125
4 125 137 138 126
4 126 138 139 127
4 127 139 140 128
4 128 140 141 129
4 129 141 142 130
4 130 142 143 131
4 132 144 145 133
4 133 145 146 134
4 134 146 147 135
4 135 147 148 136
4 136 148 149 137
4 137 149 150 138
4 138 150 151 139
4 139 151 152 140
4 140 152 153 141
4 141 153 154 142
4 142 154 155 143
4 144 156 157 145
4 145 157 158 146
4 146 158 159 147
4 147 159 160 148
4 148 160 161 149
4 149 161 162 150
4 150 162 163 151
4 151 163 164 152
4 152 164 165 153
4 153 165 166 154
4 154 166 167 155
4 156 168 169 157
4 157 169 170 158
4 158 170 171 159
4 159 171 172 160
4 160 172 173 161
4 161 173 174 162
4 162 174 175 163
4 163 175 176 164
4 164 176 177 165
4 165 177 178 166
4 166 178 179 167
4 168 180 181 169
4 169 181 182 170
4 170 182 183 171
4 171 183 184 172
4 172 184 185 173
4 173 185 186 174
4 174 186 187 175
4 175 187 188 176
4 176 188 189 177
4 177 189 190 178
4 178 190 191 179
4 180 192 193 181
4 181 193 194 182
4 182 194 195 183
4 183 195 196 184
4 184 196 197 185
4 185 197 198 186
4 186 198 199 187
4 187 199 200 188
4 188 200 201 189
4 189 201 202 190
4 190 202 203 191
4 192 204 205 193
4 193 205 206 194
4 194 206 207 195
4 195 207 208 196
4 196 208 209 197
4 197 209 210 198
4 198 210 211 199
4 199 211 212 200
4 200 212 213 201
4 201 213 214 202
4 202 214 215 203
4 204 216 217 205
4 205 217 218 206
4 206 218 219 207
4 207 219 220 208
4 208 220 221 209
4 209 221 222 210
4 210 222 223 211
4 211 223 224 212
4 212 224 225 213
4 213 225 226 214
4 214 226 227 215
4 216 228 229 217
4 217 229 230 218
4 218 230 231 219
4 219 231 232 220
4 220 232 233 221
4 221 233 234 222
4 222 234 235 223
4 223 235 236 224
4 224 236 237 225
4 225 237 238 226
4 226 238 239 227
4 228 240 241 229
4 229 241 242 230
4 230 242 243 231
4 231 243 244 232
4 232 244 245 233
4 233 245 246 234
4 234 246 247 235
4 235 247 248 236
4 236 248 249 237
4 237 249 250 238
4 238 250 251 239
4 240 252 253 241
4 241 253 254 242
4 242 254 255 243
4 243 255 256 244
4 244 256 257 245
4 245 257 258 246
4 246 258 259 247
4 247 259 260 248
4 248 260 261 249
4 249 261 262 250
4 250 262 263 251
4 252 264 265 253
4 253 265 266 254
4 254 266 267 255
4 255 267 268 256
4 256 268 269 257
4 257 269 270 258
4 258 270 271 259
4 259 271 272 260
4 260 272 273 261
4 261 273 274 262
4 262 274 275 263
4 264 276 277 265
4 265 277 278 266
4 266 278 279 267
4 267 279 280 268
4 268 280 281 269
4 269 281 282 270
4 270 282 283 271
4 271 283 284 272
4 272 284 285 273
4 273 285 286 274
4 274 286 287 275
4 276 288 289 277
4 277 289 290 278
4 278 290 291 279
4 279 291 292 280
4 280 292 293 281
4 281 293 294 282
4 282 294 295 283
4 283 295 296 284
4 284 296 297 285
4 285 297 298 286
4 286 298 299 287
4 288 300 301 289
4 289 301 302 290
4 290 302 303 291
4 291 303 304 292
4 292 304 305 293
4 293 305 306 294
4 294 306 307 295
4 295 307 308 296
4 296 308 309 297
4 297 309 310 298
4 298 310 311 299
4 300 312 313 301
4 301 313 314 302
4 302 314 315 303
4 303 315 316 304
4 304 316 317 305
4 305 317 318 306
4 306 318 319 307
4 307 319 320 308
4 308 320 321 309
4 309 321 322 310
4 310 322 323 311
4 312 324 325 313
4 313 325 326 314
4 314 326 327 315
4 315 327 328 316
4 316 328 329 317
4 317 329 330 318
4 318 330 331 319
4 319 331 332 320
4 320 332 333 321
4 321 333 334 322
4 322 334 335 323
4 324 336 337 325
4 325 337 338 326
4 326 338 339 327
4 327 339 340 328
4 328 340 341 329
4 329 341 342 330
4 330 342 343 331
4 331 343 344 332
4 332 344 345 333
4 333 345 346 334
4 334 346 347 335
4 336 348 349 337
4 337 349 350 338
4 338 350 351 339
4 339 351 352 340
4 340 352 353 341
4 341 353 354 342
4 342 354 355 343
4 343 355 356 344
4 344 356 357 345
4 345 357 358 346
4 346 358 359 347
4 348 360 361 349
4 349 361 362 350
4 350 362 363 351
4 351 363 364 352
4 352 364 365 353
4 353 365 366 354
4 354 366 367 355
4 355 367 368 356
4 356 368 369 357
4 357 369 370 358
4 358 370 371 359
4 360 372 373 361
4 361 373 374 362
4 362 374 375 363
4 363 375 376 364
4 364 376 377 365
4 365 377 378 366
4 366 378 379 367
4 367 379 380 368
4 368 380 381 369
4 369 381 382 370
4 370 382 383 371
4 372 384 385 373
4 373 385 386 374
4 374 386 387 375
4 375 387 388 376
4 376 388 389 377
4 377 389 390 378
4 378 390 391 379
4 379 391 392 380
4 380 392 393 381
4 381 393 394 382
4 382 394 395 383
4 384 396 397 385
4 385 397 398 386
4 386 398 399 387
4 387 399 400 388
4 388 400 401 389
4 389 401 402 390
4 390 402 403 391
4 391 403 404 392
4 392 404 405 393
4 393 405 406 394
4 394 406 407 395
4 396 408 409 397
4 397 409 410 398
4 398 410 411 399
4 399 411 412 400
4 400 412 413 401
4 401 413 414 402
4 402 414 415 403
4 403 415 416 404
4 404 416 417 405
4 405 417 418 406
4 406 418 419 407
4 408 420 421 409
4 409 421 422 410
4 410 422 423 411
4 411 423 424 412
4 412 424 425 413
4 413 425 426 414
4 414 426 427 415
4 415 427 428 416
4 416 428 429 417
4 417 429 430 418
4 418 430 431 419
4 420 432 433 421
4 421 433 434 422
4 422 434 435 423
4 423 435 436 424
4 424 436 437 425
4 425 437 438 426
4 426 438 439 427
4 427 439 440 428
4 428 440 441 429
4 429 441 442 430
4 430 442 443 431
4 432 444 445 433
4 433 445 446 434
4 434 446 447 435
4 435 447 448 436
4 436 448 449 437
4 437 449 450 438
4 438 450 451 439
4 439 451 452 440
4 440 452 453 441
4 441 453 454 442
4 442 454 455 443
4 444 456 457 445
4 445 457 458 446
4 446 458 459 447
4 447 459 460 448
4 448 460 461 449
4 449 461 462 450
4 450 462 463 451
4 451 463 464 452
4 452 464 465 453
4 453 465 466 454
4 454 466 467 455
4 456 468 469 457
4 457 469 470 458
4 458 470 471 459
4 459 471 472 460
4 460 472 473 461
4 461 473 474 462
4 462 474 475 463
4 463 475 476 464
4 464 476 477 465
4 465 477 478 466
4 466 478 479 467
4 468 480 481 469
4 469 481 482 470
4 470 482 483 471
4 471 483 484 472
4 472 484 485 473
4 473 485 486 474
4 474 486 487 475
4 475 487 488 476
4 476 488 489 477
4 477 489 490 478
4 478 490 491 479
4 480 492 493 481
4 481 493 494 482
4 482 494 495 483
4 483 495 496 484
4 484 496 497 485
4 485 497 498 486
4 486 498 499 487
4 487 499 500 488
4 488 500 501 489
4 489 501 502 490
4 490 502 503 491
4 492 504 505 493
4 493 505 506 494
4 494 506 507 495
4 495 507 508 496
4 496 508 509 497
4 497 509 510 498
4 498 510 511 499
4 499 511 512 500
4 500 512 513 501
4 501 513 514 502
4 502 514 515 503
4 504 516 517 505
4 505 517 518 506
4 506 518 519 507
4 507 519 520 508
4 508 520 521 509
4 509 521 522 510
4 510 522 523 511
4 511 523 524 512
4 512 524 525 513
4 513 525 526 514
4 514 526 527 515
4 516 528 529 517
4 517 529 530 518
4 518 530 531 519
4 519 531 532 520
4 520 532 533 521
4 521 533 534 522
4 522 534 535 523
4 523 535 536 524
4 524 536 537 525
4 525 537 538 526
4 526 538 539 527
4 528 540 541 529
4 529 541 542 530
4 530 542 543 531
4 531 543 544 532
4 532 544 545 533
4 533 545 546 534
4 534 546 547 535
4 535 547 548 536
4 536 548 549 537
4 537 549 550 538
4 538 550 551 539
4 540 552 553 541
4 541 553 554 542
4 542 554 555 543
4 543 555 556 544
4 544 556 557 545
4 545 557 558 546
4 546 558 559 547
4 547 559 560 548
4 548 560 561 549
4 549 561 562 550
4 550 562 563 551
