ply
format ascii 1.0
comment object: vertex cloud
element vertex 744
property double x
property double y
property double z
element face 671
property list uchar int vertex_indices
end_header
114 85 -20
110 89 -25
105 94 -28
99 99 -29
94 105 -28
89 110 -25
85 114 -20
82 117 -14
80 119 -7
79 120 0
80 119 7
82 117 14
229 169 -41
220 177 -51
210 188 -57
199 198 -58
189 209 -56
179 219 -50
170 228 -41
163 235 -29
159 239 -14
158 240 0
160 239 15
164 234 29
337 257 -55
325 268 -67
313 282 -74
299 296 -76
285 310 -73
272 323 -65
261 335 -53
253 343 -37
248 349 -18
246 350 1
248 348 21
254 342 39
439 347 -61
427 360 -74
413 375 -82
398 391 -84
383 407 -80
369 421 -71
357 434 -57
349 443 -39
343 449 -19
342 450 2
344 448 24
350 441 44
544 429 -74
530 445 -89
513 463 -97
496 483 -99
479 502 -95
463 519 -83
450 534 -66
440 545 -45
434 552 -20
433 553 5
436 550 30
443 541 54
658 495 -106
638 519 -125
616 545 -137
592 573 -139
569 600 -131
548 624 -114
531 645 -90
518 660 -59
511 669 -25
509 670 11
514 664 46
525 652 79
775 549 -151
748 583 -177
717 621 -191
686 661 -192
655 699 -180
628 734 -155
605 762 -120
589 783 -77
580 794 -28
579 795 21
587 785 71
602 766 115
881 606 -188
849 649 -217
814 697 -231
778 746 -230
744 793 -213
713 835 -181
688 869 -137
671 892 -84
663 904 -25
663 903 35
674 889 94
692 864 146
971 675 -196
940 721 -223
907 771 -234
873 822 -230
841 871 -210
813 913 -176
791 947 -129
777 969 -74
770 979 -14
773 975 47
784 959 105
803 930 156
1053 748 -184
1028 793 -206
1000 840 -213
972 888 -206
946 933 -185
924 971 -151
907 1001 -107
896 1019 -55
892 1026 0
896 1020 54
906 1001 106
923 972 150
1141 807 -187
1118 854 -204
1094 902 -208
1070 950 -198
1048 994 -174
1030 1031 -138
1016 1058 -93
1008 1074 -41
1007 1078 12
1011 1068 66
1022 1047 115
1038 1015 156
1236 843 -233
1211 902 -250
1187 963 -249
1163 1022 -232
1141 1075 -199
1124 1117 -152
1111 1148 -95
1105 1163 -31
1105 1163 34
1112 1147 97
1124 1116 154
1142 1073 200
1329 869 -312
1304 949 -327
1278 1031 -320
1254 1108 -290
1233 1174 -241
1216 1227 -176
1205 1261 -98
1201 1276 -14
1203 1268 71
1212 1241 151
1227 1194 221
1247 1131 276
1417 904 -376
1396 1002 -385
1374 1099 -367
1355 1188 -324
1339 1264 -259
1326 1320 -177
1319 1353 -82
1317 1362 17
1321 1344 117
1330 1302 208
1344 1239 285
1362 1158 342
1505 951 -382
1493 1051 -381
1481 1147 -354
1471 1233 -302
1463 1303 -231
1457 1352 -143
1454 1377 -46
1454 1376 54
1457 1349 151
1463 1298 237
1472 1226 308
1482 1139 357
1600 992 -337
1598 1080 -328
1596 1162 -296
1595 1233 -243
1593 1288 -175
1593 1324 -94
1592 1337 -7
1593 1327 80
1593 1295 162
1594 1243 234
1596 1174 289
1598 1093 324
1701 1015 -302
1707 1092 -285
1713 1163 -249
1718 1221 -196
1721 1264 -130
1723 1289 -55
1723 1293 23
1722 1276 101
1719 1240 171
1715 1188 230
1710 1121 273
1704 1046 298
1810 1031 -327
1824 1112 -301
1837 1184 -254
1847 1242 -190
1854 1281 -113
1858 1300 -28
1857 1296 58
1852 1270 141
1844 1224 214
1833 1161 272
1819 1085 312
1804 1001 331
1929 1053 -403
1956 1150 -361
1979 1233 -294
1996 1297 -206
2007 1337 -105
2011 1350 2
2007 1335 111
1995 1294 211
1978 1229 298
1954 1145 364
1928 1048 405
1899 943 418
2059 1071 -466
2099 1178 -406
2132 1268 -317
2156 1333 -207
2170 1369 -83
2171 1373 46
2161 1346 172
2140 1290 287
2110 1207 382
2072 1104 452
2029 987 490
1984 866 495
2188 1055 -459
2235 1157 -389
2273 1238 -292
2298 1294 -175
2311 1321 -46
2308 1316 85
2292 1280 211
2262 1216 323
2222 1128 413
2173 1022 474
2119 905 504
2064 785 498
2302 995 -390
2347 1078 -321
2382 1141 -231
2404 1183 -124
2413 1198 -10
2407 1187 105
2387 1150 213
2354 1090 307
2310 1011 380
2259 918 426
2204 817 444
2149 716 432
2407 916 -321
2447 981 -257
2478 1029 -177
2496 1058 -84
2501 1066 14
2492 1052 111
2470 1017 201
2437 964 277
2394 895 335
2344 817 369
2292 733 378
2240 651 362
2526 854 -312
2568 914 -244
2598 958 -160
2616 983 -65
2618 986 33
2606 968 131
2579 930 219
2540 875 292
2492 807 346
2437 729 375
2380 647 380
2324 568 358
2671 821 -366
2723 889 -280
2760 936 -176
2779 961 -59
2779 961 61
2760 936 177
2723 888 281
2671 820 366
2607 737 427
2536 645 458
2462 550 457
2391 457 426
2826 788 -427
2889 864 -320
2932 916 -192
2953 940 -51
2949 936 93
2922 903 231
2872 844 354
2804 762 453
2723 663 520
2632 555 552
2540 443 547
2451 337 504
2954 715 -436
3019 790 -321
3064 840 -185
3083 862 -36
3076 854 114
3044 817 258
2988 754 384
2912 668 484
2822 566 550
2724 454 580
2624 341 569
2529 233 520
3039 593 -381
3098 657 -277
3136 699 -154
3152 716 -20
3143 707 114
3111 672 241
3058 615 352
2988 538 439
2904 448 496
2813 350 519
2722 250 506
2635 157 459
3105 454 -310
3154 505 -223
3185 537 -120
3197 550 -9
3189 541 102
3160 511 207
3115 463 297
3054 400 368
2983 326 413
2906 246 430
2829 165 418
2756 89 377
3196 341 -285
3241 387 -203
3270 416 -107
3280 426 -3
3271 417 99
3244 389 196
3200 344 280
3142 286 344
3075 217 385
3002 143 400
2930 69 387
2862 0 348
3328 271 -325
3380 323 -230
3412 355 -119
3424 367 -1
3413 356 117
3381 323 228
3329 272 324
3262 205 397
3184 126 443
3100 42 459
3016 -41 444
2938 -120 398
3477 219 -392
3539 281 -277
3578 320 -143
3592 334 0
3578 320 143
3539 281 277
3477 219 392
3396 137 480
3301 43 535
3200 -58 554
3098 -159 536
3003 -254 480
3597 141 -424
3664 209 -300
3706 251 -156
3721 266 -1
3707 252 152
3665 210 297
3599 143 421
3511 55 517
3410 -46 577
3301 -156 598
3192 -266 578
3090 -368 518
3668 18 -392
3729 81 -279
3769 121 -147
3783 136 -6
3771 124 135
3734 86 268
3674 24 383
3595 -55 471
3503 -149 528
3404 -251 548
3304 -352 531
3212 -447 477
3713 -126 -325
3764 -72 -234
3797 -38 -126
3810 -25 -10
3801 -34 105
3772 -64 215
3724 -114 310
3661 -181 383
3587 -258 431
3507 -342 449
3427 -427 437
3351 -506 394
3778 -248 -287
3822 -199 -209
3851 -168 -117
3863 -155 -16
3857 -161 84
3833 -187 180
3794 -230 263
3741 -288 329
3679 -356 372
3611 -430 389
3542 -504 381
3478 -575 346
3881 -322 -315
3928 -267 -233
3960 -231 -135
3974 -215 -28
3970 -220 80
3947 -246 184
3907 -292 275
3853 -354 347
3789 -427 396
3718 -508 417
3646 -590 410
3578 -668 375
4001 -366 -387
4058 -296 -292
4097 -249 -176
4116 -226 -49
4113 -229 81
4089 -258 206
4045 -312 317
3985 -386 407
3912 -475 469
3831 -573 498
3748 -674 494
3668 -771 456
4102 -420 -441
4164 -339 -339
4208 -280 -214
4231 -250 -75
4232 -249 69
4210 -279 209
4166 -336 334
4105 -417 437
4029 -516 510
3945 -627 548
3858 -743 549
3773 -854 512
4168 -512 -429
4226 -429 -338
4268 -368 -223
4291 -333 -94
4295 -328 42
4279 -351 175
4244 -403 296
4192 -478 397
4127 -572 471
4053 -679 513
3976 -791 520
3900 -901 492
4217 -626 -365
4263 -552 -295
4297 -496 -204
4318 -462 -99
4324 -452 11
4315 -467 122
4291 -506 224
4254 -566 312
4207 -644 377
4152 -733 417
4093 -828 429
4035 -922 411
4277 -725 -311
4313 -659 -257
4340 -607 -186
4358 -574 -102
4365 -560 -11
4361 -568 79
4346 -597 165
4321 -644 240
4287 -706 299
4248 -780 337
4205 -861 352
4162 -941 343
4357 -786 -318
4389 -715 -270
4414 -658 -204
4432 -618 -124
4441 -599 -36
4440 -601 54
4429 -625 142
4410 -668 219
4383 -729 282
4350 -802 325
4314 -883 346
4277 -966 344
4445 -823 -382
4476 -734 -334
4503 -660 -263
4522 -606 -174
4533 -575 -73
4535 -570 31
4527 -591 135
4511 -636 229
4487 -703 308
4458 -787 366
4424 -881 398
4389 -981 404
4528 -866 -440
4556 -760 -396
4580 -668 -324
4598 -597 -230
4610 -552 -121
4614 -536 -3
4610 -550 114
4599 -594 224
4581 -663 319
4557 -754 392
4530 -860 438
4500 -973 455
4611 -924 -434
4628 -815 -401
4644 -719 -341
4656 -641 -257
4665 -587 -156
4669 -561 -44
4669 -564 70
4664 -597 180
4654 -656 278
4641 -739 356
4624 -839 411
4607 -949 437
4701 -977 -363
4707 -884 -345
4712 -798 -303
4716 -727 -241
4720 -674 -162
4722 -643 -72
4722 -636 22
4721 -655 116
4718 -696 201
4715 -759 273
4710 -837 326
4704 -927 357
4800 -1006 -285
4797 -932 -278
4794 -862 -252
4792 -801 -209
4790 -754 -152
4789 -723 -84
4789 -710 -10
4789 -717 63
4790 -743 133
4792 -786 194
4794 -844 242
4796 -911 273
4904 -1017 -255
4895 -950 -256
4886 -885 -238
4878 -827 -205
4872 -780 -158
4867 -746 -100
4865 -729 -35
4865 -728 32
4867 -745 97
4872 -778 155
4878 -825 203
4886 -883 237
5014 -1022 -275
4998 -950 -283
4981 -879 -271
4965 -813 -241
4952 -757 -194
4942 -715 -134
4936 -690 -64
4935 -683 8
4937 -694 81
4944 -724 149
4955 -769 206
4969 -828 249
5131 -1020 -300
5105 -943 -315
5079 -865 -309
5055 -791 -282
5033 -726 -236
5016 -674 -173
5005 -640 -99
5000 -626 -18
5002 -631 64
5011 -657 141
5025 -701 210
5045 -760 264
5246 -994 -284
5216 -922 -305
5185 -848 -306
5154 -776 -286
5127 -712 -246
5105 -659 -189
5089 -621 -120
5080 -602 -42
5080 -601 37
5088 -620 115
5103 -656 185
5125 -708 243
5352 -935 -226
5324 -879 -249
5294 -820 -254
5264 -762 -242
5236 -709 -213
5213 -664 -170
5196 -630 -116
5186 -610 -53
5184 -605 12
5189 -616 78
5202 -641 138
5222 -680 188
5449 -856 -163
5426 -817 -182
5401 -774 -189
5376 -732 -183
5352 -693 -165
5332 -658 -135
5316 -632 -97
5306 -615 -51
5302 -609 -2
5305 -614 46
5315 -630 92
5330 -655 132
5547 -776 -126
5527 -746 -144
5505 -714 -152
5483 -681 -149
5462 -649 -137
5444 -622 -115
5429 -600 -85
5419 -585 -49
5415 -579 -10
5416 -581 29
5423 -591 67
5435 -610 100
5653 -703 -120
5632 -675 -139
5610 -645 -149
5586 -613 -148
5564 -583 -137
5544 -556 -117
5528 -534 -89
5516 -519 -55
5511 -511 -17
5511 -512 21
5517 -520 59
5529 -536 93
5761 -627 -121
5739 -599 -142
5715 -569 -154
5689 -537 -155
5664 -506 -145
5642 -478 -126
5623 -455 -98
5610 -439 -63
5603 -430 -24
5602 -429 16
5608 -437 56
5620 -452 92
5861 -535 -108
5840 -511 -129
5817 -484 -140
5793 -456 -142
5769 -428 -135
5747 -403 -118
5729 -382 -93
5715 -366 -62
5708 -357 -26
5706 -356 10
5711 -362 47
5722 -374 80
5948 -427 -79
5932 -410 -95
5915 -390 -104
5896 -370 -107
5877 -349 -102
5860 -330 -90
5846 -315 -72
5835 -303 -49
5829 -296 -22
5827 -294 5
5831 -298 32
5839 -307 58
6031 -312 -48
6021 -302 -58
6010 -290 -64
5998 -278 -66
5986 -265 -63
5976 -254 -56
5966 -244 -45
5959 -237 -31
5955 -232 -15
5954 -231 1
5956 -233 18
5961 -238 34
6117 -200 -26
6112 -195 -32
6106 -188 -35
6099 -181 -36
6092 -174 -35
6086 -168 -31
6081 -163 -25
6077 -159 -18
6075 -156 -9
6074 -155 0
6075 -156 10
6077 -159 18
6208 -91 -12
6206 -89 -15
6203 -86 -17
6199 -83 -17
6196 -79 -17
6193 -76 -15
6191 -74 -12
6189 -72 -8
6187 -70 -4
6187 -70 0
6187 -70 4
6189 -72 8
4 0 12 13 1
4 1 13 14 2
4 2 14 15 3
4 3 15 16 4
4 4 16 17 5
4 5 17 18 6
4 6 18 19 7
4 7 19 20 8
4 8 20 21 9
4 9 21 22 10
4 10 22 23 11
4 12 24 25 13
4 13 25 26 14
4 14 26 27 15
4 15 27 28 16
4 16 28 29 17
4 17 29 30 18
4 18 30 31 19
4 19 31 32 20
4 20 32 33 21
4 21 33 34 22
4 22 34 35 23
4 24 36 37 25
4 25 37 38 26
4 26 38 39 27
4 27 39 40 28
4 28 40 41 29
4 29 41 42 30
4 30 42 43 31
4 31 43 44 32
4 32 44 45 33
4 33 45 46 34
4 34 46 47 35
4 36 48 49 37
4 37 49 50 38
4 38 50 51 39
4 39 51 52 40
4 40 52 53 41
4 41 53 54 42
4 42 54 55 43
4 43 55 56 44
4 44 56 57 45
4 45 57 58 46
4 46 58 59 47
4 48 60 61 49
4 49 61 62 50
4 50 62 63 51
4 51 63 64 52
4 52 64 65 53
4 53 65 66 54
4 54 66 67 55
4 55 67 68 56
4 56 68 69 57
4 57 69 70 58
4 58 70 71 59
4 60 72 73 61
4 61 73 74 62
4 62 74 75 63
4 63 75 76 64
4 64 76 77 65
4 65 77 78 66
4 66 78 79 67
4 67 79 80 68
4 68 80 81 69
4 69 81 82 70
4 70 82 83 71
4 72 84 85 73
4 73 85 86 74
4 74 86 87 75
4 75 87 88 76
4 76 88 89 77
4 77 89 90 78
4 78 90 91 79
4 79 91 92 80
4 80 92 93 81
4 81 93 94 82
4 82 94 95 83
4 84 96 97 85
4 85 97 98 86
4 86 98 99 87
4 87 99 100 88
4 88 100 101 89
4 89 101 102 90
4 90 102 103 91
4 91 103 104 92
4 92 104 105 93
4 93 105 106 94
4 94 106 107 95
4 96 108 109 97
4 97 109 110 98
4 98 110 111 99
4 99 111 112 100
4 100 112 113 101
4 101 113 114 102
4 102 114 115 103
4 103 115 116 104
4 104 116 117 105
4 105 117 118 106
4 106 118 119 107
4 108 120 121 109
4 109 121 122 110
4 110 122 123 111
4 111 123 124 112
4 112 124 125 113
4 113 125 126 114
4 114 126 127 115
4 115 127 128 116
4 116 128 129 117
4 117 129 130 118
4 118 130 131 119
4 120 132 133 121
4 121 133 134 122
4 122 134 135 123
4 123 135 136 124
4 124 136 137 125
4 125 137 138 126
4 126 138 139 127
4 127 139 140 128
4 128 140 141 129
4 129 141 142 130
4 130 142 143 131
4 132 144 145 133
4 133 145 146 134
4 134 146 147 135
4 135 147 148 136
4 136 148 149 137
4 137 149 150 138
4 138 150 151 139
4 139 151 152 140
4 140 152 153 141
4 141 153 154 142
4 142 154 155 143
4 144 156 157 145
4 145 157 158 146
4 146 158 159 147
4 147 159 160 148
4 148 160 161 149
4 149 161 162 150
4 150 162 163 151
4 151 163 164 152
4 152 164 165 153
4 153 165 166 154
4 154 166 167 155
4 156 168 169 157
4 157 169 170 158
4 158 170 171 159
4 159 171 172 160
4 160 172 173 161
4 161 173 174 162
4 162 174 175 163
4 163 175 176 164
4 164 176 177 165
4 165 177 178 166
4 166 178 179 167
4 168 180 181 169
4 169 181 182 170
4 170 182 183 171
4 171 183 184 172
4 172 184 185 173
4 173 185 186 174
4 174 186 187 175
4 175 187 188 176
4 176 188 189 177
4 177 189 190 178
4 178 190 191 179
4 180 192 193 181
4 181 193 194 182
4 182 194 195 183
4 183 195 196 184
4 184 196 197 185
4 185 197 198 186
4 186 198 199 187
4 187 199 200 188
4 188 200 201 189
4 189 201 202 190
4 190 202 203 191
4 192 204 205 193
4 193 205 206 194
4 194 206 207 195
4 195 207 208 196
4 196 208 209 197
4 197 209 210 198
4 198 210 211 199
4 199 211 212 200
4 200 212 213 201
4 201 213 214 202
4 202 214 215 203
4 204 216 217 205
4 205 217 218 206
4 206 218 219 207
4 207 219 220 208
4 208 220 221 209
4 209 221 222 210
4 210 222 223 211
4 211 223 224 212
4 212 224 225 213
4 213 225 226 214
4 214 226 227 215
4 216 228 229 217
4 217 229 230 218
4 218 230 231 219
4 219 231 232 220
4 220 232 233 221
4 221 233 234 222
4 222 234 235 223
4 223 235 236 224
4 224 236 237 225
4 225 237 238 226
4 226 238 239 227
4 228 240 241 229
4 229 241 242 230
4 230 242 243 231
4 231 243 244 232
4 232 244 245 233
4 233 245 246 234
4 234 246 247 235
4 235 247 248 236
4 236 248 249 237
4 237 249 250 238
4 238 250 251 239
4 240 252 253 241
4 241 253 254 242
4 242 254 255 243
4 243 255 256 244
4 244 256 257 245
4 245 257 258 246
4 246 258 259 247
4 247 259 260 248
4 248 260 261 249
4 249 261 262 250
4 250 262 263 251
4 252 264 265 253
4 253 265 266 254
4 254 266 267 255
4 255 267 268 256
4 256 268 269 257
4 257 269 270 258
4 258 270 271 259
4 259 271 272 260
4 260 272 273 261
4 261 273 274 262
4 262 274 275 263
4 264 276 277 265
4 265 277 278 266
4 266 278 279 267
4 267 279 280 268
4 268 280 281 269
4 269 281 282 270
4 270 282 283 271
4 271 283 284 272
4 272 284 285 273
4 273 285 286 274
4 274 286 287 275
4 276 288 289 277
4 277 289 290 278
4 278 290 291 279
4 279 291 292 280
4 280 292 293 281
4 281 293 294 282
4 282 294 295 283
4 283 295 296 284
4 284 296 297 285
4 285 297 298 286
4 286 298 299 287
4 288 300 301 289
4 289 301 302 290
4 290 302 303 291
4 291 303 304 292
4 292 304 305 293
4 293 305 306 294
4 294 306 307 295
4 295 307 308 296
4 296 308 309 297
4 297 309 310 298
4 298 310 311 299
4 300 312 313 301
4 301 313 314 302
4 302 314 315 303
4 303 315 316 304
4 304 316 317 305
4 305 317 318 306
4 306 318 319 307
4 307 319 320 308
4 308 320 321 309
4 309 321 322 310
4 310 322 323 311
4 312 324 325 313
4 313 325 326 314
4 314 326 327 315
4 315 327 328 316
4 316 328 329 317
4 317 329 330 318
4 318 330 331 319
4 319 331 332 320
4 320 332 333 321
4 321 333 334 322
4 322 334 335 323
4 324 336 337 325
4 325 337 338 326
4 326 338 339 327
4 327 339 340 328
4 328 340 341 329
4 329 341 342 330
4 330 342 343 331
4 331 343 344 332
4 332 344 345 333
4 333 345 346 334
4 334 346 347 335
4 336 348 349 337
4 337 349 350 338
4 338 350 351 339
4 339 351 352 340
4 340 352 353 341
4 341 353 354 342
4 342 354 355 343
4 343 355 356 344
4 344 356 357 345
4 345 357 358 346
4 346 358 359 347
4 348 360 361 349
4 349 361 362 350
4 350 362 363 351
4 351 363 364 352
4 352 364 365 353
4 353 365 366 354
4 354 366 367 355
4 355 367 368 356
4 356 368 369 357
4 357 369 370 358
4 358 370 371 359
4 360 372 373 361
4 361 373 374 362
4 362 374 375 363
4 363 375 376 364
4 364 376 377 365
4 365 377 378 366
4 366 378 379 367
4 367 379 380 368
4 368 380 381 369
4 369 381 382 370
4 370 382 383 371
4 372 384 385 373
4 373 385 386 374
4 374 386 387 375
4 375 387 388 376
4 376 388 389 377
4 377 389 390 378
4 378 390 391 379
4 379 391 392 380
4 380 392 393 381
4 381 393 394 382
4 382 394 395 383
4 384 396 397 385
4 385 397 398 386
4 386 398 399 387
4 387 399 400 388
4 388 400 401 389
4 389 401 402 390
4 390 402 403 391
4 391 403 404 392
4 392 404 405 393
4 393 405 406 394
4 394 406 407 395
4 396 408 409 397
4 397 409 410 398
4 398 410 411 399
4 399 411 412 400
4 400 412 413 401
4 401 413 414 402
4 402 414 415 403
4 403 415 416 404
4 404 416 417 405
4 405 417 418 406
4 406 418 419 407
4 408 420 421 409
4 409 421 422 410
4 410 422 423 411
4 411 423 424 412
4 412 424 425 413
4 413 425 426 414
4 414 426 427 415
4 415 427 428 416
4 416 428 429 417
4 417 429 430 418
4 418 430 431 419
4 420 432 433 421
4 421 433 434 422
4 422 434 435 423
4 423 435 436 424
4 424 436 437 425
4 425 437 438 426
4 426 438 439 427
4 427 439 440 428
4 428 440 441 429
4 429 441 442 430
4 430 442 443 431
4 432 444 445 433
4 433 445 446 434
4 434 446 447 435
4 435 447 448 436
4 436 448 449 437
4 437 449 450 438
4 438 450 451 439
4 439 451 452 440
4 440 452 453 441
4 441 453 454 442
4 442 454 455 443
4 444 456 457 445
4 445 457 458 446
4 446 458 459 447
4 447 459 460 448
4 448 460 461 449
4 449 461 462 450
4 450 462 463 451
4 451 463 464 452
4 452 464 465 453
4 453 465 466 454
4 454 466 467 455
4 456 468 469 457
4 457 469 470 458
4 458 470 471 459
4 459 471 472 460
4 460 472 473 461
4 461 473 474 462
4 462 474 475 463
4 463 475 476 464
4 464 476 477 465
4 465 477 478 466
4 466 478 479 467
4 468 480 481 469
4 469 481 482 470
4 470 482 483 471
4 471 483 484 472
4 472 484 485 473
4 473 485 486 474
4 474 486 487 475
4 475 487 488 476
4 476 488 489 477
4 477 489 490 478
4 478 490 491 479
4 480 492 493 481
4 481 493 494 482
4 482 494 495 483
4 483 495 496 484
4 484 496 497 485
4 485 497 498 486
4 486 498 499 487
4 487 499 500 488
4 488 500 501 489
4 489 501 502 490
4 490 502 503 491
4 492 504 505 493
4 493 505 506 494
4 494 506 507 495
4 495 507 508 496
4 496 508 509 497
4 497 509 510 498
4 498 510 511 499
4 499 511 512 500
4 500 512 513 501
4 501 513 514 502
4 502 514 515 503
4 504 516 517 505
4 505 517 518 506
4 506 518 519 507
4 507 519 520 508
4 508 520 521 509
4 509 521 522 510
4 510 522 523 511
4 511 523 524 512
4 512 524 525 513
4 513 525 526 514
4 514 526 527 515
4 516 528 529 517
4 517 529 530 518
4 518 530 531 519
4 519 531 532 520
4 520 532 533 521
4 521 533 534 522
4 522 534 535 523
4 523 535 536 524
4 524 536 537 525
4 525 537 538 526
4 526 538 539 527
4 528 540 541 529
4 529 541 542 530
4 530 542 543 531
4 531 543 544 532
4 532 544 545 533
4 533 545 546 534
4 534 546 547 535
4 535 547 548 536
4 536 548 549 537
4 537 549 550 538
4 538 550 551 539
4 540 552 553 541
4 541 553 554 542
4 542 554 555 543
4 543 555 556 544
4 544 556 557 545
4 545 557 558 546
4 546 558 559 547
4 547 559 560 548
4 548 560 561 549
4 549 561 562 550
4 550 562 563 551
4 552 564 565 553
4 553 565 566 554
4 554 566 567 555
4 555 567 568 556
4 556 568 569 557
4 557 569 570 558
4 558 570 571 559
4 559 571 572 560
4 560 572 573 561
4 561 573 574 562
4 562 574 575 563
4 564 576 577 565
4 565 577 578 566
4 566 578 579 567
4 567 579 580 568
4 568 580 581 569
4 569 581 582 570
4 570 582 583 571
4 571 583 584 572
4 572 584 585 573
4 573 585 586 574
4 574 586 587 575
4 576 588 589 577
4 577 589 590 578
4 578 590 591 579
4 579 591 592 580
4 580 592 593 581
4 581 593 594 582
4 582 594 595 583
4 583 595 596 584
4 584 596 597 585
4 585 597 598 586
4 586 598 599 587
4 588 600 601 589
4 589 601 602 590
4 590 602 603 591
4 591 603 604 592
4 592 604 605 593
4 593 605 606 594
4 594 606 607 595
4 595 607 608 596
4 596 608 609 597
4 597 609 610 598
4 598 610 611 599
4 600 612 613 601
4 601 613 614 602
4 602 614 615 603
4 603 615 616 604
4 604 616 617 605
4 605 617 618 606
4 606 618 619 607
4 607 619 620 608
4 608 620 621 609
4 609 621 622 610
4 610 622 623 611
4 612 624 625 613
4 613 625 626 614
4 614 626 627 615
4 615 627 628 616
4 616 628 629 617
4 617 629 630 618
4 618 630 631 619
4 619 631 632 620
4 620 632 633 621
4 621 633 634 622
4 622 634 635 623
4 624 636 637 625
4 625 637 638 626
4 626 638 639 627
4 627 639 640 628
4 628 640 641 629
4 629 641 642 630
4 630 642 643 631
4 631 643 644 632
4 632 644 645 633
4 633 645 646 634
4 634 646 647 635
4 636 648 649 637
4 637 649 650 638
4 638 650 651 639
4 639 651 652 640
4 640 652 653 641
4 641 653 654 642
4 642 654 655 643
4 643 655 656 644
4 644 656 657 645
4 645 657 658 646
4 646 658 659 647
4 648 660 661 649
4 649 661 662 650
4 650 662 663 651
4 651 663 664 652
4 652 664 665 653
4 653 665 666 654
4 654 666 667 655
4 655 667 668 656
4 656 668 669 657
4 657 669 670 658
4 658 670 671 659
4 660 672 673 661
4 661 673 674 662
4 662 674 675 663
4 663 675 676 664
4 664 676 677 665
4 665 677 678 666
4 666 678 679 667
4 667 679 680 668
4 668 680 681 669
4 669 681 682 670
4 670 682 683 671
4 672 684 685 673
4 673 685 686 674
4 674 686 687 675
4 675 687 688 676
4 676 688 689 677
4 677 689 690 678
4 678 690 691 679
4 679 691 692 680
4 680 692 693 681
4 681 693 694 682
4 682 694 695 683
4 684 696 697 685
4 685 697 698 686
4 686 698 699 687
4 687 699 700 688
4 688 700 701 689
4 689 701 702 690
4 690 702 703 691
4 691 703 704 692
4 692 704 705 693
4 693 705 706 694
4 694 706 707 695
4 696 708 709 697
4 697 709 710 698
4 698 710 711 699
4 699 711 712 700
4 700 712 713 701
4 701 713 714 702
4 702 714 715 703
4 703 715 716 704
4 704 716 717 705
4 705 717 718 706
4 706 718 719 707
4 708 720 721 709
4 709 721 722 710
4 710 722 723 711
4 711 723 724 712
4 712 724 725 713
4 713 725 726 714
4 714 726 727 715
4 715 727 728 716
4 716 728 729 717
4 717 729 730 718
4 718 730 731 719
4 720 732 733 721
4 721 733 734 722
4 722 734 735 723
4 723 735 736 724
4 724 736 737 725
4 725 737 738 726
4 726 738 739 727
4 727 739 740 728
4 728 740 741 729
4 729 741 742 730
4 730 742 743 731
