ply
format ascii 1.0
comment object: vertex cloud
element vertex 744
property double x
property double y
property double z
element face 671
property list uchar int vertex_indices
end_header
85 114 20
89 110 25
94 105 28
100 99 29
105 94 28
110 89 25
114 85 20
117 81 14
119 79 7
120 79 0
119 79 -7
117 81 -14
170 228 41
179 219 51
189 209 57
200 198 58
210 187 56
220 177 50
229 168 41
236 162 29
240 158 14
241 156 0
239 158 -15
235 162 -29
262 333 55
274 322 67
286 308 74
300 294 76
314 280 73
327 267 65
338 255 53
346 247 37
351 241 18
353 240 -1
351 242 -21
345 248 -39
360 431 61
372 418 74
386 403 82
401 387 84
416 371 80
430 357 71
442 344 57
450 335 39
456 329 19
457 327 -2
455 330 -24
449 337 -44
455 529 74
469 513 89
486 494 97
503 475 99
520 456 95
536 438 83
549 424 66
559 413 45
565 406 20
566 405 -5
563 408 -30
556 417 -54
541 633 106
561 610 125
583 583 137
607 556 139
630 529 131
651 504 114
668 483 90
681 468 59
688 460 25
690 458 -11
685 464 -46
674 477 -79
624 738 151
651 704 177
682 666 191
713 627 192
744 588 180
771 553 155
794 525 120
810 505 77
819 494 28
820 493 -21
812 502 -71
797 522 -115
718 828 188
750 785 217
785 737 231
821 688 230
855 641 213
886 599 181
911 565 137
928 541 84
936 530 25
936 531 -35
925 545 -94
907 570 -146
828 891 196
859 845 223
892 795 234
926 743 230
958 695 210
986 652 176
1008 619 129
1022 596 74
1029 587 14
1026 590 -47
1015 607 -105
996 636 -156
946 934 184
971 889 206
999 842 213
1027 794 206
1053 749 185
1075 711 151
1092 681 107
1103 663 55
1107 656 0
1103 662 -54
1093 681 -106
1076 710 -150
1058 974 187
1081 928 204
1105 879 208
1129 831 198
1151 787 174
1169 750 138
1183 723 93
1191 707 41
1192 704 -12
1188 713 -66
1177 735 -115
1161 767 -156
1163 1020 233
1188 961 250
1212 900 249
1236 841 232
1258 789 199
1275 746 152
1288 716 95
1294 700 31
1294 700 -34
1287 716 -97
1275 747 -154
1257 790 -200
1270 1057 312
1295 977 327
1321 895 320
1345 819 290
1366 752 241
1383 699 176
1394 665 98
1398 651 14
1396 658 -71
1387 686 -151
1372 732 -221
1352 795 -276
1382 1066 376
1403 968 385
1425 871 367
1444 782 324
1460 706 259
1473 650 177
1480 617 82
1482 608 -17
1478 626 -117
1469 668 -208
1455 731 -285
1437 812 -342
1494 1043 382
1506 943 381
1518 847 354
1528 761 302
1536 691 231
1542 642 143
1545 617 46
1545 618 -54
1542 645 -151
1536 696 -237
1527 768 -308
1517 855 -357
1599 1006 337
1601 918 328
1603 836 296
1604 765 243
1606 710 175
1606 675 94
1607 661 7
1606 671 -80
1606 703 -162
1605 755 -234
1603 824 -289
1601 905 -324
1698 967 302
1692 890 285
1686 820 249
1681 761 196
1678 718 130
1676 694 55
1676 690 -23
1677 706 -101
1680 742 -171
1684 795 -230
1689 861 -273
1695 936 -298
1789 916 327
1775 834 301
1762 762 254
1752 705 190
1745 665 113
1741 647 28
1742 651 -58
1747 677 -141
1755 723 -214
1766 786 -272
1780 862 -312
1795 945 -331
1870 839 403
1843 741 361
1820 658 294
1803 595 206
1792 555 105
1788 542 -2
1792 556 -111
1804 597 -211
1821 662 -298
1845 746 -364
1871 844 -405
1900 949 -418
1940 747 466
1900 639 406
1867 550 317
1843 485 207
1829 449 83
1828 444 -46
1838 471 -172
1859 528 -287
1889 611 -382
1927 714 -452
1970 830 -490
2015 952 -495
2011 670 459
1964 569 389
1926 487 292
1901 431 175
1888 405 46
1891 410 -85
1907 445 -211
1937 509 -323
1977 597 -413
2026 704 -474
2080 821 -504
2135 941 -498
2097 621 390
2052 538 321
2017 475 231
1995 433 124
1986 418 10
1992 429 -105
2012 466 -213
2045 526 -307
2089 605 -380
2140 698 -426
2195 799 -444
2250 900 -432
2192 574 321
2152 510 257
2121 461 177
2103 432 84
2098 424 -14
2107 438 -111
2129 473 -201
2162 527 -277
2205 595 -335
2255 674 -369
2307 757 -378
2359 840 -362
2273 495 312
2231 435 244
2201 392 160
2183 367 65
2181 364 -33
2193 382 -131
2220 419 -219
2259 475 -292
2307 543 -346
2362 621 -375
2419 703 -380
2475 782 -358
2328 375 366
2276 307 280
2239 260 176
2220 235 59
2220 235 -61
2239 260 -177
2276 308 -281
2328 376 -366
2392 458 -427
2463 551 -458
2537 646 -457
2608 739 -426
2373 242 427
2310 166 320
2267 114 192
2246 90 51
2250 94 -93
2277 127 -231
2327 186 -354
2395 268 -453
2476 367 -520
2567 475 -552
2659 587 -547
2748 693 -504
2445 139 436
2380 64 321
2335 14 185
2316 -7 36
2323 0 -114
2355 36 -258
2411 100 -384
2487 185 -484
2577 288 -550
2675 399 -580
2775 513 -569
2870 621 -520
2560 76 381
2501 12 277
2463 -29 154
2447 -46 20
2456 -37 -114
2488 -2 -241
2541 54 -352
2611 131 -439
2695 221 -496
2786 319 -519
2877 419 -506
2964 512 -459
2694 24 310
2645 -26 223
2614 -59 120
2602 -71 9
2610 -62 -102
2639 -33 -207
2684 14 -297
2745 77 -368
2816 152 -413
2893 232 -430
2970 313 -418
3043 388 -377
2803 -58 285
2758 -104 203
2729 -134 107
2719 -144 3
2728 -135 -99
2755 -107 -196
2799 -62 -280
2857 -4 -344
2924 64 -385
2997 138 -400
3069 212 -387
3137 281 -348
2871 -188 325
2819 -240 230
2787 -272 119
2775 -284 1
2786 -273 -117
2818 -240 -228
2870 -189 -324
2937 -121 -397
3015 -43 -443
3099 40 -459
3183 125 -444
3261 203 -398
2922 -335 392
2860 -398 277
2821 -437 143
2807 -450 0
2821 -437 -143
2860 -398 -277
2922 -335 -392
3003 -254 -480
3098 -160 -535
3199 -58 -554
3301 43 -536
3396 137 -480
3002 -456 424
2935 -524 300
2893 -567 156
2878 -582 1
2892 -567 -152
2934 -525 -297
3000 -458 -421
3088 -371 -517
3189 -268 -577
3298 -159 -598
3407 -49 -578
3509 53 -518
3131 -529 392
3070 -592 279
3030 -633 147
3016 -647 6
3028 -635 -135
3065 -597 -268
3125 -535 -383
3204 -455 -471
3296 -361 -528
3395 -259 -548
3495 -158 -531
3587 -63 -477
3286 -575 325
3235 -628 234
3202 -663 126
3189 -676 10
3198 -667 -105
3227 -636 -215
3275 -586 -310
3338 -520 -383
3412 -442 -431
3492 -358 -449
3572 -274 -437
3648 -194 -394
3421 -636 287
3377 -685 209
3348 -716 117
3336 -729 16
3342 -723 -84
3366 -697 -180
3405 -654 -263
3458 -596 -329
3520 -528 -372
3588 -454 -389
3657 -380 -381
3721 -309 -346
3518 -737 315
3471 -791 233
3439 -828 135
3425 -844 28
3429 -839 -80
3452 -813 -184
3492 -767 -275
3546 -705 -347
3610 -631 -396
3681 -551 -417
3753 -468 -410
3821 -390 -375
3598 -857 387
3541 -926 292
3502 -974 176
3483 -997 49
3486 -994 -81
3510 -964 -206
3554 -911 -317
3614 -837 -407
3687 -748 -469
3768 -649 -498
3851 -548 -494
3931 -452 -456
3697 -954 441
3635 -1036 339
3591 -1094 214
3568 -1124 75
3567 -1125 -69
3589 -1096 -209
3633 -1039 -334
3694 -958 -437
3770 -858 -510
3854 -747 -548
3941 -632 -549
4026 -521 -512
3831 -1001 429
3773 -1084 338
3731 -1145 223
3708 -1179 94
3704 -1185 -42
3720 -1161 -175
3755 -1110 -296
3807 -1035 -397
3872 -941 -471
3946 -834 -513
4023 -722 -520
4099 -612 -492
3982 -1009 365
3936 -1084 295
3902 -1140 204
3881 -1174 99
3875 -1184 -11
3884 -1169 -122
3908 -1130 -224
3945 -1069 -312
3992 -992 -377
4047 -903 -417
4106 -808 -429
4164 -713 -411
4122 -1017 311
4086 -1083 257
4059 -1135 186
4041 -1169 102
4034 -1182 11
4038 -1174 -79
4053 -1146 -165
4078 -1098 -240
4112 -1036 -299
4151 -962 -337
4194 -882 -352
4237 -801 -343
4242 -1045 318
4210 -1116 270
4185 -1174 204
4167 -1213 124
4158 -1233 36
4159 -1230 -54
4170 -1207 -142
4189 -1163 -219
4216 -1103 -282
4249 -1030 -325
4285 -949 -346
4322 -866 -344
4354 -1079 382
4323 -1168 334
4296 -1242 263
4277 -1296 174
4266 -1327 73
4264 -1332 -31
4272 -1312 -135
4288 -1266 -229
4312 -1199 -308
4341 -1116 -366
4375 -1021 -398
4410 -921 -404
4471 -1088 440
4443 -1194 396
4419 -1286 324
4401 -1357 230
4389 -1402 121
4385 -1418 3
4389 -1404 -114
4400 -1360 -224
4418 -1291 -319
4442 -1200 -392
4469 -1095 -438
4499 -981 -455
4588 -1063 434
4571 -1171 401
4555 -1268 341
4543 -1345 257
4534 -1399 156
4530 -1425 44
4530 -1422 -70
4535 -1390 -180
4545 -1330 -278
4558 -1247 -356
4575 -1148 -411
4592 -1037 -437
4698 -1022 363
4692 -1115 345
4687 -1201 303
4683 -1272 241
4679 -1325 162
4677 -1356 72
4677 -1363 -22
4678 -1344 -116
4681 -1303 -201
4684 -1240 -273
4689 -1161 -326
4695 -1072 -357
4799 -985 285
4802 -1059 278
4805 -1129 252
4807 -1190 209
4809 -1237 152
4810 -1269 84
4810 -1281 10
4810 -1274 -63
4809 -1248 -133
4807 -1205 -194
4805 -1148 -242
4803 -1080 -273
4895 -947 255
4904 -1014 256
4913 -1079 238
4921 -1136 205
4927 -1184 158
4932 -1218 100
4934 -1235 35
4934 -1236 -32
4932 -1219 -97
4927 -1186 -155
4921 -1139 -203
4913 -1081 -237
4985 -895 275
5001 -967 283
5018 -1038 271
5034 -1104 241
5047 -1159 194
5057 -1202 134
5063 -1227 64
5064 -1234 -8
5062 -1223 -81
5055 -1193 -149
5044 -1147 -206
5030 -1089 -249
5068 -831 300
5094 -908 315
5120 -986 309
5144 -1060 282
5166 -1125 236
5183 -1176 173
5194 -1210 99
5199 -1225 18
5197 -1219 -64
5188 -1194 -141
5174 -1150 -210
5154 -1090 -264
5153 -772 284
5183 -844 305
5214 -918 306
5245 -990 286
5272 -1054 246
5294 -1107 189
5310 -1145 120
5319 -1164 42
5319 -1165 -37
5311 -1146 -115
5296 -1110 -185
5274 -1058 -243
5247 -728 226
5275 -784 249
5305 -843 254
5335 -901 242
5363 -955 213
5386 -1000 170
5403 -1034 116
5413 -1053 53
5415 -1058 -12
5410 -1048 -78
5397 -1022 -138
5377 -984 -188
5350 -689 163
5373 -728 182
5398 -770 189
5423 -812 183
5447 -852 165
5467 -886 135
5483 -912 97
5493 -929 51
5497 -935 2
5494 -930 -46
5484 -915 -92
5469 -889 -132
5452 -634 126
5472 -664 144
5494 -696 152
5516 -729 149
5537 -761 137
5555 -788 115
5570 -810 85
5580 -825 49
5584 -831 10
5583 -829 -29
5576 -819 -67
5564 -801 -100
5546 -559 120
5567 -586 139
5589 -617 149
5613 -648 148
5635 -679 137
5655 -706 117
5671 -727 89
5683 -743 55
5688 -750 17
5688 -750 -21
5682 -741 -59
5670 -725 -93
5638 -474 121
5660 -501 142
5684 -531 154
5710 -563 155
5735 -594 145
5757 -622 126
5776 -645 98
5789 -661 63
5796 -670 24
5797 -671 -16
5791 -664 -56
5779 -648 -92
5738 -393 108
5759 -417 129
5782 -444 140
5806 -472 142
5830 -500 135
5852 -525 118
5870 -546 93
5884 -562 62
5891 -571 26
5893 -572 -10
5888 -567 -47
5877 -554 -80
5851 -320 79
5867 -337 95
5884 -357 104
5903 -377 107
5922 -398 102
5939 -416 90
5953 -432 72
5964 -444 49
5970 -451 22
5972 -453 -5
5968 -449 -32
5960 -440 -58
5968 -246 48
5978 -256 58
5989 -268 64
6001 -280 66
6013 -293 63
6023 -304 56
6033 -314 45
6040 -321 31
6044 -326 15
6045 -327 -1
6043 -325 -18
6038 -320 -34
6082 -163 26
6087 -169 32
6093 -175 35
6100 -182 36
6107 -189 35
6113 -195 31
6118 -201 25
6122 -205 18
6124 -207 9
6125 -208 0
6124 -207 -10
6122 -204 -18
6191 -74 12
6193 -76 15
6196 -79 17
6200 -83 17
6203 -86 17
6206 -89 15
6208 -92 12
6210 -94 8
6212 -95 4
6212 -95 0
6212 -95 -4
6210 -93 -8
4 0 12 13 1
4 1 13 14 2
4 2 14 15 3
4 3 15 16 4
4 4 16 17 5
4 5 17 18 6
4 6 18 19 7
4 7 19 20 8
4 8 20 21 9
4 9 21 22 10
4 10 22 23 11
4 12 24 25 13
4 13 25 26 14
4 14 26 27 15
4 15 27 28 16
4 16 28 29 17
4 17 29 30 18
4 18 30 31 19
4 19 31 32 20
4 20 32 33 21
4 21 33 34 22
4 22 34 35 23
4 24 36 37 25
4 25 37 38 26
4 26 38 39 27
4 27 39 40 28
4 28 40 41 29
4 29 41 42 30
4 30 42 43 31
4 31 43 44 32
4 32 44 45 33
4 33 45 46 34
4 34 46 47 35
4 36 48 49 37
4 37 49 50 38
4 38 50 51 39
4 39 51 52 40
4 40 52 53 41
4 41 53 54 42
4 42 54 55 43
4 43 55 56 44
4 44 56 57 45
4 45 57 58 46
4 46 58 59 47
4 48 60 61 49
4 49 61 62 50
4 50 62 63 51
4 51 63 64 52
4 52 64 65 53
4 53 65 66 54
4 54 66 67 55
4 55 67 68 56
4 56 68 69 57
4 57 69 70 58
4 58 70 71 59
4 60 72 73 61
4 61 73 74 62
4 62 74 75 63
4 63 75 76 64
4 64 76 77 65
4 65 77 78 66
4 66 78 79 67
4 67 79 80 68
4 68 80 81 69
4 69 81 82 70
4 70 82 83 71
4 72 84 85 73
4 73 85 86 74
4 74 86 87 75
4 75 87 88 76
4 76 88 89 77
4 77 89 90 78
4 78 90 91 79
4 79 91 92 80
4 80 92 93 81
4 81 93 94 82
4 82 94 95 83
4 84 96 97 85
4 85 97 98 86
4 86 98 99 87
4 87 99 100 88
4 88 100 101 89
4 89 101 102 90
4 90 102 103 91
4 91 103 104 92
4 92 104 105 93
4 93 105 106 94
4 94 106 107 95
4 96 108 109 97
4 97 109 110 98
4 98 110 111 99
4 99 111 112 100
4 100 112 113 101
4 101 113 114 102
4 102 114 115 103
4 103 115 116 104
4 104 116 117 105
4 105 117 118 106
4 106 118 119 107
4 108 120 121 109
4 109 121 122 110
4 110 122 123 111
4 111 123 124 112
4 112 124 125 113
4 113 125 126 114
4 114 126 127 115
4 115 127 128 116
4 116 128 129 117
4 117 129 130 118
4 118 130 131 119
4 120 132 133 121
4 121 133 134 122
4 122 134 135 123
4 123 135 136 124
4 124 136 137 125
4 125 137 138 126
4 126 138 139 127
4 127 139 140 128
4 128 140 141 129
4 129 141 142 130
4 130 142 143 131
4 132 144 145 133
4 133 145 146 134
4 134 146 147 135
4 135 147 148 136
4 136 148 149 137
4 137 149 150 138
4 138 150 151 139
4 139 151 152 140
4 140 152 153 141
4 141 153 154 142
4 142 154 155 143
4 144 156 157 145
4 145 157 158 146
4 146 158 159 147
4 147 159 160 148
4 148 160 161 149
4 149 161 162 150
4 150 162 163 151
4 151 163 164 152
4 152 164 165 153
4 153 165 166 154
4 154 166 167 155
4 156 168 169 157
4 157 169 170 158
4 158 170 171 159
4 159 171 172 160
4 160 172 173 161
4 161 173 174 162
4 162 174 175 163
4 163 175 176 164
4 164 176 177 165
4 165 177 178 166
4 166 178 179 167
4 168 180 181 169
4 169 181 182 170
4 170 182 183 171
4 171 183 184 172
4 172 184 185 173
4 173 185 186 174
4 174 186 187 175
4 175 187 188 176
4 176 188 189 177
4 177 189 190 178
4 178 190 191 179
4 180 192 193 181
4 181 193 194 182
4 182 194 195 183
4 183 195 196 184
4 184 196 197 185
4 185 197 198 186
4 186 198 199 187
4 187 199 200 188
4 188 200 201 189
4 189 201 202 190
4 190 202 203 191
4 192 204 205 193
4 193 205 206 194
4 194 206 207 195
4 195 207 208 196
4 196 208 209 197
4 197 209 210 198
4 198 210 211 199
4 199 211 212 200
4 200 212 213 201
4 201 213 214 202
4 202 214 215 203
4 204 216 217 205
4 205 217 218 206
4 206 218 219 207
4 207 219 220 208
4 208 220 221 209
4 209 221 222 210
4 210 222 223 211
4 211 223 224 212
4 212 224 225 213
4 213 225 226 214
4 214 226 227 215
4 216 228 229 217
4 217 229 230 218
4 218 230 231 219
4 219 231 232 220
4 220 232 233 221
4 221 233 234 222
4 222 234 235 223
4 223 235 236 224
4 224 236 237 225
4 225 237 238 226
4 226 238 239 227
4 228 240 241 229
4 229 241 242 230
4 230 242 243 231
4 231 243 244 232
4 232 244 245 233
4 233 245 246 234
4 234 246 247 235
4 235 247 248 236
4 236 248 249 237
4 237 249 250 238
4 238 250 251 239
4 240 252 253 241
4 241 253 254 242
4 242 254 255 243
4 243 255 256 244
4 244 256 257 245
4 245 257 258 246
4 246 258 259 247
4 247 259 260 248
4 248 260 261 249
4 249 261 262 250
4 250 262 263 251
4 252 264 265 253
4 253 265 266 254
4 254 266 267 255
4 255 267 268 256
4 256 268 269 257
4 257 269 270 258
4 258 270 271 259
4 259 271 272 260
4 260 272 273 261
4 261 273 274 262
4 262 274 275 263
4 264 276 277 265
4 265 277 278 266
4 266 278 279 267
4 267 279 280 268
4 268 280 281 269
4 269 281 282 270
4 270 282 283 271
4 271 283 284 272
4 272 284 285 273
4 273 285 286 274
4 274 286 287 275
4 276 288 289 277
4 277 289 290 278
4 278 290 291 279
4 279 291 292 280
4 280 292 293 281
4 281 293 294 282
4 282 294 295 283
4 283 295 296 284
4 284 296 297 285
4 285 297 298 286
4 286 298 299 287
4 288 300 301 289
4 289 301 302 290
4 290 302 303 291
4 291 303 304 292
4 292 304 305 293
4 293 305 306 294
4 294 306 307 295
4 295 307 308 296
4 296 308 309 297
4 297 309 310 298
4 298 310 311 299
4 300 312 313 301
4 301 313 314 302
4 302 314 315 303
4 303 315 316 304
4 304 316 317 305
4 305 317 318 306
4 306 318 319 307
4 307 319 320 308
4 308 320 321 309
4 309 321 322 310
4 310 322 323 311
4 312 324 325 313
4 313 325 326 314
4 314 326 327 315
4 315 327 328 316
4 316 328 329 317
4 317 329 330 318
4 318 330 331 319
4 319 331 332 320
4 320 332 333 321
4 321 333 334 322
4 322 334 335 323
4 324 336 337 325
4 325 337 338 326
4 326 338 339 327
4 327 339 340 328
4 328 340 341 329
4 329 341 342 330
4 330 342 343 331
4 331 343 344 332
4 332 344 345 333
4 333 345 346 334
4 334 346 347 335
4 336 348 349 337
4 337 349 350 338
4 338 350 351 339
4 339 351 352 340
4 340 352 353 341
4 341 353 354 342
4 342 354 355 343
4 343 355 356 344
4 344 356 357 345
4 345 357 358 346
4 346 358 359 347
4 348 360 361 349
4 349 361 362 350
4 350 362 363 351
4 351 363 364 352
4 352 364 365 353
4 353 365 366 354
4 354 366 367 355
4 355 367 368 356
4 356 368 369 357
4 357 369 370 358
4 358 370 371 359
4 360 372 373 361
4 361 373 374 362
4 362 374 375 363
4 363 375 376 364
4 364 376 377 365
4 365 377 378 366
4 366 378 379 367
4 367 379 380 368
4 368 380 381 369
4 369 381 382 370
4 370 382 383 371
4 372 384 385 373
4 373 385 386 374
4 374 386 387 375
4 375 387 388 376
4 376 388 389 377
4 377 389 390 378
4 378 390 391 379
4 379 391 392 380
4 380 392 393 381
4 381 393 394 382
4 382 394 395 383
4 384 396 397 385
4 385 397 398 386
4 386 398 399 387
4 387 399 400 388
4 388 400 401 389
4 389 401 402 390
4 390 402 403 391
4 391 403 404 392
4 392 404 405 393
4 393 405 406 394
4 394 406 407 395
4 396 408 409 397
4 397 409 410 398
4 398 410 411 399
4 399 411 412 400
4 400 412 413 401
4 401 413 414 402
4 402 414 415 403
4 403 415 416 404
4 404 416 417 405
4 405 417 418 406
4 406 418 419 407
4 408 420 421 409
4 409 421 422 410
4 410 422 423 411
4 411 423 424 412
4 412 424 425 413
4 413 425 426 414
4 414 426 427 415
4 415 427 428 416
4 416 428 429 417
4 417 429 430 418
4 418 430 431 419
4 420 432 433 421
4 421 433 434 422
4 422 434 435 423
4 423 435 436 424
4 424 436 437 425
4 425 437 438 426
4 426 438 439 427
4 427 439 440 428
4 428 440 441 429
4 429 441 442 430
4 430 442 443 431
4 432 444 445 433
4 433 445 446 434
4 434 446 447 435
4 435 447 448 436
4 436 448 449 437
4 437 449 450 438
4 438 450 451 439
4 439 451 452 440
4 440 452 453 441
4 441 453 454 442
4 442 454 455 443
4 444 456 457 445
4 445 457 458 446
4 446 458 459 447
4 447 459 460 448
4 448 460 461 449
4 449 461 462 450
4 450 462 463 451
4 451 463 464 452
4 452 464 465 453
4 453 465 466 454
4 454 466 467 455
4 456 468 469 457
4 457 469 470 458
4 458 470 471 459
4 459 471 472 460
4 460 472 473 461
4 461 473 474 462
4 462 474 475 463
4 463 475 476 464
4 464 476 477 465
4 465 477 478 466
4 466 478 479 467
4 468 480 481 469
4 469 481 482 470
4 470 482 483 471
4 471 483 484 472
4 472 484 485 473
4 473 485 486 474
4 474 486 487 475
4 475 487 488 476
4 476 488 489 477
4 477 489 490 478
4 478 490 491 479
4 480 492 493 481
4 481 493 494 482
4 482 494 495 483
4 483 495 496 484
4 484 496 497 485
4 485 497 498 486
4 486 498 499 487
4 487 499 500 488
4 488 500 501 489
4 489 501 502 490
4 490 502 503 491
4 492 504 505 493
4 493 505 506 494
4 494 506 507 495
4 495 507 508 496
4 496 508 509 497
4 497 509 510 498
4 498 510 511 499
4 499 511 512 500
4 500 512 513 501
4 501 513 514 502
4 502 514 515 503
4 504 516 517 505
4 505 517 518 506
4 506 518 519 507
4 507 519 520 508
4 508 520 521 509
4 509 521 522 510
4 510 522 523 511
4 511 523 524 512
4 512 524 525 513
4 513 525 526 514
4 514 526 527 515
4 516 528 529 517
4 517 529 530 518
4 518 530 531 519
4 519 531 532 520
4 520 532 533 521
4 521 533 534 522
4 522 534 535 523
4 523 535 536 524
4 524 536 537 525
4 525 537 538 526
4 526 538 539 527
4 528 540 541 529
4 529 541 542 530
4 530 542 543 531
4 531 543 544 532
4 532 544 545 533
4 533 545 546 534
4 534 546 547 535
4 535 547 548 536
4 536 548 549 537
4 537 549 550 538
4 538 550 551 539
4 540 552 553 541
4 541 553 554 542
4 542 554 555 543
4 543 555 556 544
4 544 556 557 545
4 545 557 558 546
4 546 558 559 547
4 547 559 560 548
4 548 560 561 549
4 549 561 562 550
4 550 562 563 551
4 552 564 565 553
4 553 565 566 554
4 554 566 567 555
4 555 567 568 556
4 556 568 569 557
4 557 569 570 558
4 558 570 571 559
4 559 571 572 560
4 560 572 573 561
4 561 573 574 562
4 562 574 575 563
4 564 576 577 565
4 565 577 578 566
4 566 578 579 567
4 567 579 580 568
4 568 580 581 569
4 569 581 582 570
4 570 582 583 571
4 571 583 584 572
4 572 584 585 573
4 573 585 586 574
4 574 586 587 575
4 576 588 589 577
4 577 589 590 578
4 578 590 591 579
4 579 591 592 580
4 580 592 593 581
4 581 593 594 582
4 582 594 595 583
4 583 595 596 584
4 584 596 597 585
4 585 597 598 586
4 586 598 599 587
4 588 600 601 589
4 589 601 602 590
4 590 602 603 591
4 591 603 604 592
4 592 604 605 593
4 593 605 606 594
4 594 606 607 595
4 595 607 608 596
4 596 608 609 597
4 597 609 610 598
4 598 610 611 599
4 600 612 613 601
4 601 613 614 602
4 602 614 615 603
4 603 615 616 604
4 604 616 617 605
4 605 617 618 606
4 606 618 619 607
4 607 619 620 608
4 608 620 621 609
4 609 621 622 610
4 610 622 623 611
4 612 624 625 613
4 613 625 626 614
4 614 626 627 615
4 615 627 628 616
4 616 628 629 617
4 617 629 630 618
4 618 630 631 619
4 619 631 632 620
4 620 632 633 621
4 621 633 634 622
4 622 634 635 623
4 624 636 637 625
4 625 637 638 626
4 626 638 639 627
4 627 639 640 628
4 628 640 641 629
4 629 641 642 630
4 630 642 643 631
4 631 643 644 632
4 632 644 645 633
4 633 645 646 634
4 634 646 647 635
4 636 648 649 637
4 637 649 650 638
4 638 650 651 639
4 639 651 652 640
4 640 652 653 641
4 641 653 654 642
4 642 654 655 643
4 643 655 656 644
4 644 656 657 645
4 645 657 658 646
4 646 658 659 647
4 648 660 661 649
4 649 661 662 650
4 650 662 663 651
4 651 663 664 652
4 652 664 665 653
4 653 665 666 654
4 654 666 667 655
4 655 667 668 656
4 656 668 669 657
4 657 669 670 658
4 658 670 671 659
4 660 672 673 661
4 661 673 674 662
4 662 674 675 663
4 663 675 676 664
4 664 676 677 665
4 665 677 678 666
4 666 678 679 667
4 667 679 680 668
4 668 680 681 669
4 669 681 682 670
4 670 682 683 671
4 672 684 685 673
4 673 685 686 674
4 674 686 687 675
4 675 687 688 676
4 676 688 689 677
4 677 689 690 678
4 678 690 691 679
4 679 691 692 680
4 680 692 693 681
4 681 693 694 682
4 682 694 695 683
4 684 696 697 685
4 685 697 698 686
4 686 698 699 687
4 687 699 700 688
4 688 700 701 689
4 689 701 702 690
4 690 702 703 691
4 691 703 704 692
4 692 704 705 693
4 693 705 706 694
4 694 706 707 695
4 696 708 709 697
4 697 709 710 698
4 698 710 711 699
4 699 711 712 700
4 700 712 713 701
4 701 713 714 702
4 702 714 715 703
4 703 715 716 704
4 704 716 717 705
4 705 717 718 706
4 706 718 719 707
4 708 720 721 709
4 709 721 722 710
4 710 722 723 711
4 711 723 724 712
4 712 724 725 713
4 713 725 726 714
4 714 726 727 715
4 715 727 728 716
4 716 728 729 717
4 717 729 730 718
4 718 730 731 719
4 720 732 733 721
4 721 733 734 722
4 722 734 735 723
4 723 735 736 724
4 724 736 737 725
4 725 737 738 726
4 726 738 739 727
4 727 739 740 728
4 728 740 741 729
4 729 741 742 730
4 730 742 743 731
