ply
format ascii 1.0
comment object: vertex cloud
element vertex 960
property double x
property double y
property double z
element face 935
property list uchar int vertex_indices
end_header
3000 0 0
2897 776 0
2598 1500 0
2121 2121 0
1499 2598 0
776 2897 0
0 3000 0
-776 2897 0
-1500 2598 0
-2121 2121 0
-2598 1499 0
-2897 776 0
-3000 0 0
-2897 -776 0
-2598 -1500 0
-2121 -2121 0
-1499 -2598 0
-776 -2897 0
0 -3000 0
776 -2897 0
1500 -2598 0
2121 -2121 0
2598 -1499 0
2897 -776 0
2950 0 50
2849 763 50
2554 1475 50
2085 2085 50
1474 2554 50
763 2849 50
0 2950 50
-763 2849 50
-1475 2554 50
-2085 2085 50
-2554 1474 50
-2849 763 50
-2950 0 50
-2849 -763 50
-2554 -1475 50
-2085 -2085 50
-1474 -2554 50
-763 -2849 50
0 -2950 50
763 -2849 50
1475 -2554 50
2085 -2085 50
2554 -1474 50
2849 -763 50
2900 0 100
2801 750 100
2511 1450 100
2050 2050 100
1449 2511 100
750 2801 100
0 2900 100
-750 2801 100
-1450 2511 100
-2050 2050 100
-2511 1449 100
-2801 750 100
-2900 0 100
-2801 -750 100
-2511 -1450 100
-2050 -2050 100
-1449 -2511 100
-750 -2801 100
0 -2900 100
750 -2801 100
1450 -2511 100
2050 -2050 100
2511 -1449 100
2801 -750 100
2850 0 150
2752 737 150
2468 1425 150
2015 2015 150
1424 2468 150
737 2752 150
0 2850 150
-737 2752 150
-1425 2468 150
-2015 2015 150
-2468 1424 150
-2752 737 150
-2850 0 150
-2752 -737 150
-2468 -1425 150
-2015 -2015 150
-1424 -2468 150
-737 -2752 150
0 -2850 150
737 -2752 150
1425 -2468 150
2015 -2015 150
2468 -1424 150
2752 -737 150
2800 0 200
2704 724 200
2424 1400 200
1979 1979 200
1399 2424 200
724 2704 200
0 2800 200
-724 2704 200
-1400 2424 200
-1979 1979 200
-2424 1399 200
-2704 724 200
-2800 0 200
-2704 -724 200
-2424 -1400 200
-1979 -1979 200
-1399 -2424 200
-724 -2704 200
0 -2800 200
724 -2704 200
1400 -2424 200
1979 -1979 200
2424 -1399 200
2704 -724 200
2750 0 250
2656 711 250
2381 1375 250
1944 1944 250
1374 2381 250
711 2656 250
0 2750 250
-711 2656 250
-1375 2381 250
-1944 1944 250
-2381 1374 250
-2656 711 250
-2750 0 250
-2656 -711 250
-2381 -1375 250
-1944 -1944 250
-1374 -2381 250
-711 -2656 250
0 -2750 250
711 -2656 250
1375 -2381 250
1944 -1944 250
2381 -1374 250
2656 -711 250
2700 0 300
2607 698 300
2338 1350 300
1909 1909 300
1349 2338 300
698 2607 300
0 2700 300
-698 2607 300
-1350 2338 300
-1909 1909 300
-2338 1349 300
-2607 698 300
-2700 0 300
-2607 -698 300
-2338 -1350 300
-1909 -1909 300
-1349 -2338 300
-698 -2607 300
0 -2700 300
698 -2607 300
1350 -2338 300
1909 -1909 300
2338 -1349 300
2607 -698 300
2650 0 350
2559 685 350
2294 1325 350
1873 1873 350
1324 2294 350
685 2559 350
0 2650 350
-685 2559 350
-1325 2294 350
-1873 1873 350
-2294 1324 350
-2559 685 350
-2650 0 350
-2559 -685 350
-2294 -1325 350
-1873 -1873 350
-1324 -2294 350
-685 -2559 350
0 -2650 350
685 -2559 350
1325 -2294 350
1873 -1873 350
2294 -1324 350
2559 -685 350
2600 0 399
2511 672 399
2251 1300 399
1838 1838 399
1299 2251 399
672 2511 399
0 2600 399
-672 2511 399
-1300 2251 399
-1838 1838 399
-2251 1299 399
-2511 672 399
-2600 0 399
-2511 -672 399
-2251 -1300 399
-1838 -1838 399
-1299 -2251 399
-672 -2511 399
0 -2600 399
672 -2511 399
1300 -2251 399
1838 -1838 399
2251 -1299 399
2511 -672 399
2550 0 449
2463 659 449
2208 1275 449
1803 1803 449
1274 2208 449
659 2463 449
0 2550 449
-659 2463 449
-1275 2208 449
-1803 1803 449
-2208 1274 449
-2463 659 449
-2550 0 449
-2463 -659 449
-2208 -1275 449
-1803 -1803 449
-1274 -2208 449
-659 -2463 449
0 -2550 449
659 -2463 449
1275 -2208 449
1803 -1803 449
2208 -1274 449
2463 -659 449
2500 0 499
2414 647 499
2165 1250 499
1767 1767 499
1249 2165 499
647 2414 499
0 2500 499
-647 2414 499
-1250 2165 499
-1767 1767 499
-2165 1249 499
-2414 647 499
-2500 0 499
-2414 -647 499
-2165 -1250 499
-1767 -1767 499
-1249 -2165 499
-647 -2414 499
0 -2500 499
647 -2414 499
1250 -2165 499
1767 -1767 499
2165 -1249 499
2414 -647 499
2450 0 549
2366 634 549
2121 1225 549
1732 1732 549
1224 2121 549
634 2366 549
0 2450 549
-634 2366 549
-1225 2121 549
-1732 1732 549
-2121 1224 549
-2366 634 549
-2450 0 549
-2366 -634 549
-2121 -1225 549
-1732 -1732 549
-1224 -2121 549
-634 -2366 549
0 -2450 549
634 -2366 549
1225 -2121 549
1732 -1732 549
2121 -1224 549
2366 -634 549
2400 0 600
2318 621 600
2078 1200 600
1697 1697 600
1199 2078 600
621 2318 600
0 2400 600
-621 2318 600
-1200 2078 600
-1697 1697 600
-2078 1199 600
-2318 621 600
-2400 0 600
-2318 -621 600
-2078 -1200 600
-1697 -1697 600
-1199 -2078 600
-621 -2318 600
0 -2400 600
621 -2318 600
1200 -2078 600
1697 -1697 600
2078 -1199 600
2318 -621 600
2350 0 650
2269 608 650
2035 1175 650
1661 1661 650
1174 2035 650
608 2269 650
0 2350 650
-608 2269 650
-1175 2035 650
-1661 1661 650
-2035 1174 650
-2269 608 650
-2350 0 650
-2269 -608 650
-2035 -1175 650
-1661 -1661 650
-1174 -2035 650
-608 -2269 650
0 -2350 650
608 -2269 650
1175 -2035 650
1661 -1661 650
2035 -1174 650
2269 -608 650
2300 0 700
2221 595 700
1991 1150 700
1626 1626 700
1149 1991 700
595 2221 700
0 2300 700
-595 2221 700
-1150 1991 700
-1626 1626 700
-1991 1149 700
-2221 595 700
-2300 0 700
-2221 -595 700
-1991 -1150 700
-1626 -1626 700
-1149 -1991 700
-595 -2221 700
0 -2300 700
595 -2221 700
1150 -1991 700
1626 -1626 700
1991 -1149 700
2221 -595 700
2250 0 750
2173 582 750
1948 1125 750
1590 1590 750
1124 1948 750
582 2173 750
0 2250 750
-582 2173 750
-1125 1948 750
-1590 1590 750
-1948 1124 750
-2173 582 750
-2250 0 750
-2173 -582 750
-1948 -1125 750
-1590 -1590 750
-1124 -1948 750
-582 -2173 750
0 -2250 750
582 -2173 750
1125 -1948 750
1590 -1590 750
1948 -1124 750
2173 -582 750
2199 0 800
2125 569 800
1905 1100 800
1555 1555 800
1099 1905 800
569 2125 800
0 2199 800
-569 2125 800
-1100 1905 800
-1555 1555 800
-1905 1099 800
-2125 569 800
-2199 0 800
-2125 -569 800
-1905 -1100 800
-1555 -1555 800
-1099 -1905 800
-569 -2125 800
0 -2199 800
569 -2125 800
1100 -1905 800
1555 -1555 800
1905 -1099 800
2125 -569 800
2150 0 850
2076 556 850
1861 1075 850
1520 1520 850
1074 1861 850
556 2076 850
0 2150 850
-556 2076 850
-1075 1861 850
-1520 1520 850
-1861 1074 850
-2076 556 850
-2150 0 850
-2076 -556 850
-1861 -1075 850
-1520 -1520 850
-1074 -1861 850
-556 -2076 850
0 -2150 850
556 -2076 850
1075 -1861 850
1520 -1520 850
1861 -1074 850
2076 -556 850
2099 0 900
2028 543 900
1818 1050 900
1484 1484 900
1049 1818 900
543 2028 900
0 2099 900
-543 2028 900
-1050 1818 900
-1484 1484 900
-1818 1049 900
-2028 543 900
-2099 0 900
-2028 -543 900
-1818 -1050 900
-1484 -1484 900
-1049 -1818 900
-543 -2028 900
0 -2099 900
543 -2028 900
1050 -1818 900
1484 -1484 900
1818 -1049 900
2028 -543 900
2050 0 950
1980 530 950
1775 1025 950
1449 1449 950
1024 1775 950
530 1980 950
0 2050 950
-530 1980 950
-1025 1775 950
-1449 1449 950
-1775 1024 950
-1980 530 950
-2050 0 950
-1980 -530 950
-1775 -1025 950
-1449 -1449 950
-1024 -1775 950
-530 -1980 950
0 -2050 950
530 -1980 950
1025 -1775 950
1449 -1449 950
1775 -1024 950
1980 -530 950
2000 0 1000
1931 517 1000
1732 1000 1000
1414 1414 1000
999 1732 1000
517 1931 1000
0 2000 1000
-517 1931 1000
-1000 1732 1000
-1414 1414 1000
-1732 999 1000
-1931 517 1000
-2000 0 1000
-1931 -517 1000
-1732 -1000 1000
-1414 -1414 1000
-999 -1732 1000
-517 -1931 1000
0 -2000 1000
517 -1931 1000
1000 -1732 1000
1414 -1414 1000
1732 -999 1000
1931 -517 1000
2050 0 1050
1980 530 1050
1775 1025 1050
1449 1449 1050
1024 1775 1050
530 1980 1050
0 2050 1050
-530 1980 1050
-1025 1775 1050
-1449 1449 1050
-1775 1024 1050
-1980 530 1050
-2050 0 1050
-1980 -530 1050
-1775 -1025 1050
-1449 -1449 1050
-1024 -1775 1050
-530 -1980 1050
0 -2050 1050
530 -1980 1050
1025 -1775 1050
1449 -1449 1050
1775 -1024 1050
1980 -530 1050
2100 0 1100
2028 543 1100
1818 1050 1100
1484 1484 1100
1049 1818 1100
543 2028 1100
0 2100 1100
-543 2028 1100
-1050 1818 1100
-1484 1484 1100
-1818 1049 1100
-2028 543 1100
-2100 0 1100
-2028 -543 1100
-1818 -1050 1100
-1484 -1484 1100
-1049 -1818 1100
-543 -2028 1100
0 -2100 1100
543 -2028 1100
1050 -1818 1100
1484 -1484 1100
1818 -1049 1100
2028 -543 1100
2150 0 1150
2076 556 1150
1861 1075 1150
1520 1520 1150
1074 1861 1150
556 2076 1150
0 2150 1150
-556 2076 1150
-1075 1861 1150
-1520 1520 1150
-1861 1074 1150
-2076 556 1150
-2150 0 1150
-2076 -556 1150
-1861 -1075 1150
-1520 -1520 1150
-1074 -1861 1150
-556 -2076 1150
0 -2150 1150
556 -2076 1150
1075 -1861 1150
1520 -1520 1150
1861 -1074 1150
2076 -556 1150
2200 0 1200
2125 569 1200
1905 1100 1200
1555 1555 1200
1099 1905 1200
569 2125 1200
0 2200 1200
-569 2125 1200
-1100 1905 1200
-1555 1555 1200
-1905 1099 1200
-2125 569 1200
-2200 0 1200
-2125 -569 1200
-1905 -1100 1200
-1555 -1555 1200
-1099 -1905 1200
-569 -2125 1200
0 -2200 1200
569 -2125 1200
1100 -1905 1200
1555 -1555 1200
1905 -1099 1200
2125 -569 1200
2250 0 1250
2173 582 1250
1948 1125 1250
1590 1590 1250
1124 1948 1250
582 2173 1250
0 2250 1250
-582 2173 1250
-1125 1948 1250
-1590 1590 1250
-1948 1124 1250
-2173 582 1250
-2250 0 1250
-2173 -582 1250
-1948 -1125 1250
-1590 -1590 1250
-1124 -1948 1250
-582 -2173 1250
0 -2250 1250
582 -2173 1250
1125 -1948 1250
1590 -1590 1250
1948 -1124 1250
2173 -582 1250
2300 0 1300
2221 595 1300
1991 1150 1300
1626 1626 1300
1149 1991 1300
595 2221 1300
0 2300 1300
-595 2221 1300
-1150 1991 1300
-1626 1626 1300
-1991 1149 1300
-2221 595 1300
-2300 0 1300
-2221 -595 1300
-1991 -1150 1300
-1626 -1626 1300
-1149 -1991 1300
-595 -2221 1300
0 -2300 1300
595 -2221 1300
1150 -1991 1300
1626 -1626 1300
1991 -1149 1300
2221 -595 1300
2350 0 1350
2269 608 1350
2035 1175 1350
1661 1661 1350
1174 2035 1350
608 2269 1350
0 2350 1350
-608 2269 1350
-1175 2035 1350
-1661 1661 1350
-2035 1174 1350
-2269 608 1350
-2350 0 1350
-2269 -608 1350
-2035 -1175 1350
-1661 -1661 1350
-1174 -2035 1350
-608 -2269 1350
0 -2350 1350
608 -2269 1350
1175 -2035 1350
1661 -1661 1350
2035 -1174 1350
2269 -608 1350
2400 0 1400
2318 621 1400
2078 1200 1400
1697 1697 1400
1199 2078 1400
621 2318 1400
0 2400 1400
-621 2318 1400
-1200 2078 1400
-1697 1697 1400
-2078 1199 1400
-2318 621 1400
-2400 0 1400
-2318 -621 1400
-2078 -1200 1400
-1697 -1697 1400
-1199 -2078 1400
-621 -2318 1400
0 -2400 1400
621 -2318 1400
1200 -2078 1400
1697 -1697 1400
2078 -1199 1400
2318 -621 1400
2450 0 1450
2366 634 1450
2121 1225 1450
1732 1732 1450
1224 2121 1450
634 2366 1450
0 2450 1450
-634 2366 1450
-1225 2121 1450
-1732 1732 1450
-2121 1224 1450
-2366 634 1450
-2450 0 1450
-2366 -634 1450
-2121 -1225 1450
-1732 -1732 1450
-1224 -2121 1450
-634 -2366 1450
0 -2450 1450
634 -2366 1450
1225 -2121 1450
1732 -1732 1450
2121 -1224 1450
2366 -634 1450
2500 0 1500
2414 647 1500
2165 1250 1500
1767 1767 1500
1249 2165 1500
647 2414 1500
0 2500 1500
-647 2414 1500
-1250 2165 1500
-1767 1767 1500
-2165 1249 1500
-2414 647 1500
-2500 0 1500
-2414 -647 1500
-2165 -1250 1500
-1767 -1767 1500
-1249 -2165 1500
-647 -2414 1500
0 -2500 1500
647 -2414 1500
1250 -2165 1500
1767 -1767 1500
2165 -1249 1500
2414 -647 1500
2550 0 1550
2463 659 1550
2208 1275 1550
1803 1803 1550
1274 2208 1550
659 2463 1550
0 2550 1550
-659 2463 1550
-1275 2208 1550
-1803 1803 1550
-2208 1274 1550
-2463 659 1550
-2550 0 1550
-2463 -659 1550
-2208 -1275 1550
-1803 -1803 1550
-1274 -2208 1550
-659 -2463 1550
0 -2550 1550
659 -2463 1550
1275 -2208 1550
1803 -1803 1550
2208 -1274 1550
2463 -659 1550
2600 0 1600
2511 672 1600
2251 1300 1600
1838 1838 1600
1299 2251 1600
672 2511 1600
0 2600 1600
-672 2511 1600
-1300 2251 1600
-1838 1838 1600
-2251 1299 1600
-2511 672 1600
-2600 0 1600
-2511 -672 1600
-2251 -1300 1600
-1838 -1838 1600
-1299 -2251 1600
-672 -2511 1600
0 -2600 1600
672 -2511 1600
1300 -2251 1600
1838 -1838 1600
2251 -1299 1600
2511 -672 1600
2650 0 1650
2559 685 1650
2294 1325 1650
1873 1873 1650
1324 2294 1650
685 2559 1650
0 2650 1650
-685 2559 1650
-1325 2294 1650
-1873 1873 1650
-2294 1324 1650
-2559 685 1650
-2650 0 1650
-2559 -685 1650
-2294 -1325 1650
-1873 -1873 1650
-1324 -2294 1650
-685 -2559 1650
0 -2650 1650
685 -2559 1650
1325 -2294 1650
1873 -1873 1650
2294 -1324 1650
2559 -685 1650
2700 0 1700
2607 698 1700
2338 1350 1700
1909 1909 1700
1349 2338 1700
698 2607 1700
0 2700 1700
-698 2607 1700
-1350 2338 1700
-1909 1909 1700
-2338 1349 1700
-2607 698 1700
-2700 0 1700
-2607 -698 1700
-2338 -1350 1700
-1909 -1909 1700
-1349 -2338 1700
-698 -2607 1700
0 -2700 1700
698 -2607 1700
1350 -2338 1700
1909 -1909 1700
2338 -1349 1700
2607 -698 1700
2750 0 1750
2656 711 1750
2381 1375 1750
1944 1944 1750
1374 2381 1750
711 2656 1750
0 2750 1750
-711 2656 1750
-1375 2381 1750
-1944 1944 1750
-2381 1374 1750
-2656 711 1750
-2750 0 1750
-2656 -711 1750
-2381 -1375 1750
-1944 -1944 1750
-1374 -2381 1750
-711 -2656 1750
0 -2750 1750
711 -2656 1750
1375 -2381 1750
1944 -1944 1750
2381 -1374 1750
2656 -711 1750
2800 0 1800
2704 724 1800
2424 1400 1800
1979 1979 1800
1399 2424 1800
724 2704 1800
0 2800 1800
-724 2704 1800
-1400 2424 1800
-1979 1979 1800
-2424 1399 1800
-2704 724 1800
-2800 0 1800
-2704 -724 1800
-2424 -1400 1800
-1979 -1979 1800
-1399 -2424 1800
-724 -2704 1800
0 -2800 1800
724 -2704 1800
1400 -2424 1800
1979 -1979 1800
2424 -1399 1800
2704 -724 1800
2850 0 1850
2752 737 1850
2468 1425 1850
2015 2015 1850
1424 2468 1850
737 2752 1850
0 2850 1850
-737 2752 1850
-1425 2468 1850
-2015 2015 1850
-2468 1424 1850
-2752 737 1850
-2850 0 1850
-2752 -737 1850
-2468 -1425 1850
-2015 -2015 1850
-1424 -2468 1850
-737 -2752 1850
0 -2850 1850
737 -2752 1850
1425 -2468 1850
2015 -2015 1850
2468 -1424 1850
2752 -737 1850
2900 0 1900
2801 750 1900
2511 1450 1900
2050 2050 1900
1449 2511 1900
750 2801 1900
0 2900 1900
-750 2801 1900
-1450 2511 1900
-2050 2050 1900
-2511 1449 1900
-2801 750 1900
-2900 0 1900
-2801 -750 1900
-2511 -1450 1900
-2050 -2050 1900
-1449 -2511 1900
-750 -2801 1900
0 -2900 1900
750 -2801 1900
1450 -2511 1900
2050 -2050 1900
2511 -1449 1900
2801 -750 1900
2950 0 1950
2849 763 1950
2554 1475 1950
2085 2085 1950
1474 2554 1950
763 2849 1950
0 2950 1950
-763 2849 1950
-1475 2554 1950
-2085 2085 1950
-2554 1474 1950
-2849 763 1950
-2950 0 1950
-2849 -763 1950
-2554 -1475 1950
-2085 -2085 1950
-1474 -2554 1950
-763 -2849 1950
0 -2950 1950
763 -2849 1950
1475 -2554 1950
2085 -2085 1950
2554 -1474 1950
2849 -763 1950
4 0 24 25 1
4 1 25 26 2
4 2 26 27 3
4 3 27 28 4
4 4 28 29 5
4 5 29 30 6
4 6 30 31 7
4 7 31 32 8
4 8 32 33 9
4 9 33 34 10
4 10 34 35 11
4 11 35 36 12
4 12 36 37 13
4 13 37 38 14
4 14 38 39 15
4 15 39 40 16
4 16 40 41 17
4 17 41 42 18
4 18 42 43 19
4 19 43 44 20
4 20 44 45 21
4 21 45 46 22
4 22 46 47 23
4 23 47 48 24
4 24 48 49 25
4 25 49 50 26
4 26 50 51 27
4 27 51 52 28
4 28 52 53 29
4 29 53 54 30
4 30 54 55 31
4 31 55 56 32
4 32 56 57 33
4 33 57 58 34
4 34 58 59 35
4 35 59 60 36
4 36 60 61 37
4 37 61 62 38
4 38 62 63 39
4 39 63 64 40
4 40 64 65 41
4 41 65 66 42
4 42 66 67 43
4 43 67 68 44
4 44 68 69 45
4 45 69 70 46
4 46 70 71 47
4 47 71 72 48
4 48 72 73 49
4 49 73 74 50
4 50 74 75 51
4 51 75 76 52
4 52 76 77 53
4 53 77 78 54
4 54 78 79 55
4 55 79 80 56
4 56 80 81 57
4 57 81 82 58
4 58 82 83 59
4 59 83 84 60
4 60 84 85 61
4 61 85 86 62
4 62 86 87 63
4 63 87 88 64
4 64 88 89 65
4 65 89 90 66
4 66 90 91 67
4 67 91 92 68
4 68 92 93 69
4 69 93 94 70
4 70 94 95 71
4 71 95 96 72
4 72 96 97 73
4 73 97 98 74
4 74 98 99 75
4 75 99 100 76
4 76 100 101 77
4 77 101 102 78
4 78 102 103 79
4 79 103 104 80
4 80 104 105 81
4 81 105 106 82
4 82 106 107 83
4 83 107 108 84
4 84 108 109 85
4 85 109 110 86
4 86 110 111 87
4 87 111 112 88
4 88 112 113 89
4 89 113 114 90
4 90 114 115 91
4 91 115 116 92
4 92 116 117 93
4 93 117 118 94
4 94 118 119 95
4 95 119 120 96
4 96 120 121 97
4 97 121 122 98
4 98 122 123 99
4 99 123 124 100
4 100 124 125 101
4 101 125 126 102
4 102 126 127 103
4 103 127 128 104
4 104 128 129 105
4 105 129 130 106
4 106 130 131 107
4 107 131 132 108
4 108 132 133 109
4 109 133 134 110
4 110 134 135 111
4 111 135 136 112
4 112 136 137 113
4 113 137 138 114
4 114 138 139 115
4 115 139 140 116
4 116 140 141 117
4 117 141 142 118
4 118 142 143 119
4 119 143 144 120
4 120 144 145 121
4 121 145 146 122
4 122 146 147 123
4 123 147 148 124
4 124 148 149 125
4 125 149 150 126
4 126 150 151 127
4 127 151 152 128
4 128 152 153 129
4 129 153 154 130
4 130 154 155 131
4 131 155 156 132
4 132 156 157 133
4 133 157 158 134
4 134 158 159 135
4 135 159 160 136
4 136 160 161 137
4 137 161 162 138
4 138 162 163 139
4 139 163 164 140
4 140 164 165 141
4 141 165 166 142
4 142 166 167 143
4 143 167 168 144
4 144 168 169 145
4 145 169 170 146
4 146 170 171 147
4 147 171 172 148
4 148 172 173 149
4 149 173 174 150
4 150 174 175 151
4 151 175 176 152
4 152 176 177 153
4 153 177 178 154
4 154 178 179 155
4 155 179 180 156
4 156 180 181 157
4 157 181 182 158
4 158 182 183 159
4 159 183 184 160
4 160 184 185 161
4 161 185 186 162
4 162 186 187 163
4 163 187 188 164
4 164 188 189 165
4 165 189 190 166
4 166 190 191 167
4 167 191 192 168
4 168 192 193 169
4 169 193 194 170
4 170 194 195 171
4 171 195 196 172
4 172 196 197 173
4 173 197 198 174
4 174 198 199 175
4 175 199 200 176
4 176 200 201 177
4 177 201 202 178
4 178 202 203 179
4 179 203 204 180
4 180 204 205 181
4 181 205 206 182
4 182 206 207 183
4 183 207 208 184
4 184 208 209 185
4 185 209 210 186
4 186 210 211 187
4 187 211 212 188
4 188 212 213 189
4 189 213 214 190
4 190 214 215 191
4 191 215 216 192
4 192 216 217 193
4 193 217 218 194
4 194 218 219 195
4 195 219 220 196
4 196 220 221 197
4 197 221 222 198
4 198 222 223 199
4 199 223 224 200
4 200 224 225 201
4 201 225 226 202
4 202 226 227 203
4 203 227 228 204
4 204 228 229 205
4 205 229 230 206
4 206 230 231 207
4 207 231 232 208
4 208 232 233 209
4 209 233 234 210
4 210 234 235 211
4 211 235 236 212
4 212 236 237 213
4 213 237 238 214
4 214 238 239 215
4 215 239 240 216
4 216 240 241 217
4 217 241 242 218
4 218 242 243 219
4 219 243 244 220
4 220 244 245 221
4 221 245 246 222
4 222 246 247 223
4 223 247 248 224
4 224 248 249 225
4 225 249 250 226
4 226 250 251 227
4 227 251 252 228
4 228 252 253 229
4 229 253 254 230
4 230 254 255 231
4 231 255 256 232
4 232 256 257 233
4 233 257 258 234
4 234 258 259 235
4 235 259 260 236
4 236 260 261 237
4 237 261 262 238
4 238 262 263 239
4 239 263 264 240
4 240 264 265 241
4 241 265 266 242
4 242 266 267 243
4 243 267 268 244
4 244 268 269 245
4 245 269 270 246
4 246 270 271 247
4 247 271 272 248
4 248 272 273 249
4 249 273 274 250
4 250 274 275 251
4 251 275 276 252
4 252 276 277 253
4 253 277 278 254
4 254 278 279 255
4 255 279 280 256
4 256 280 281 257
4 257 281 282 258
4 258 282 283 259
4 259 283 284 260
4 260 284 285 261
4 261 285 286 262
4 262 286 287 263
4 263 287 288 264
4 264 288 289 265
4 265 289 290 266
4 266 290 291 267
4 267 291 292 268
4 268 292 293 269
4 269 293 294 270
4 270 294 295 271
4 271 295 296 272
4 272 296 297 273
4 273 297 298 274
4 274 298 299 275
4 275 299 300 276
4 276 300 301 277
4 277 301 302 278
4 278 302 303 279
4 279 303 304 280
4 280 304 305 281
4 281 305 306 282
4 282 306 307 283
4 283 307 308 284
4 284 308 309 285
4 285 309 310 286
4 286 310 311 287
4 287 311 312 288
4 288 312 313 289
4 289 313 314 290
4 290 314 315 291
4 291 315 316 292
4 292 316 317 293
4 293 317 318 294
4 294 318 319 295
4 295 319 320 296
4 296 320 321 297
4 297 321 322 298
4 298 322 323 299
4 299 323 324 300
4 300 324 325 301
4 301 325 326 302
4 302 326 327 303
4 303 327 328 304
4 304 328 329 305
4 305 329 330 306
4 306 330 331 307
4 307 331 332 308
4 308 332 333 309
4 309 333 334 310
4 310 334 335 311
4 311 335 336 312
4 312 336 337 313
4 313 337 338 314
4 314 338 339 315
4 315 339 340 316
4 316 340 341 317
4 317 341 342 318
4 318 342 343 319
4 319 343 344 320
4 320 344 345 321
4 321 345 346 322
4 322 346 347 323
4 323 347 348 324
4 324 348 349 325
4 325 349 350 326
4 326 350 351 327
4 327 351 352 328
4 328 352 353 329
4 329 353 354 330
4 330 354 355 331
4 331 355 356 332
4 332 356 357 333
4 333 357 358 334
4 334 358 359 335
4 335 359 360 336
4 336 360 361 337
4 337 361 362 338
4 338 362 363 339
4 339 363 364 340
4 340 364 365 341
4 341 365 366 342
4 342 366 367 343
4 343 367 368 344
4 344 368 369 345
4 345 369 370 346
4 346 370 371 347
4 347 371 372 348
4 348 372 373 349
4 349 373 374 350
4 350 374 375 351
4 351 375 376 352
4 352 376 377 353
4 353 377 378 354
4 354 378 379 355
4 355 379 380 356
4 356 380 381 357
4 357 381 382 358
4 358 382 383 359
4 359 383 384 360
4 360 384 385 361
4 361 385 386 362
4 362 386 387 363
4 363 387 388 364
4 364 388 389 365
4 365 389 390 366
4 366 390 391 367
4 367 391 392 368
4 368 392 393 369
4 369 393 394 370
4 370 394 395 371
4 371 395 396 372
4 372 396 397 373
4 373 397 398 374
4 374 398 399 375
4 375 399 400 376
4 376 400 401 377
4 377 401 402 378
4 378 402 403 379
4 379 403 404 380
4 380 404 405 381
4 381 405 406 382
4 382 406 407 383
4 383 407 408 384
4 384 408 409 385
4 385 409 410 386
4 386 410 411 387
4 387 411 412 388
4 388 412 413 389
4 389 413 414 390
4 390 414 415 391
4 391 415 416 392
4 392 416 417 393
4 393 417 418 394
4 394 418 419 395
4 395 419 420 396
4 396 420 421 397
4 397 421 422 398
4 398 422 423 399
4 399 423 424 400
4 400 424 425 401
4 401 425 426 402
4 402 426 427 403
4 403 427 428 404
4 404 428 429 405
4 405 429 430 406
4 406 430 431 407
4 407 431 432 408
4 408 432 433 409
4 409 433 434 410
4 410 434 435 411
4 411 435 436 412
4 412 436 437 413
4 413 437 438 414
4 414 438 439 415
4 415 439 440 416
4 416 440 441 417
4 417 441 442 418
4 418 442 443 419
4 419 443 444 420
4 420 444 445 421
4 421 445 446 422
4 422 446 447 423
4 423 447 448 424
4 424 448 449 425
4 425 449 450 426
4 426 450 451 427
4 427 451 452 428
4 428 452 453 429
4 429 453 454 430
4 430 454 455 431
4 431 455 456 432
4 432 456 457 433
4 433 457 458 434
4 434 458 459 435
4 435 459 460 436
4 436 460 461 437
4 437 461 462 438
4 438 462 463 439
4 439 463 464 440
4 440 464 465 441
4 441 465 466 442
4 442 466 467 443
4 443 467 468 444
4 444 468 469 445
4 445 469 470 446
4 446 470 471 447
4 447 471 472 448
4 448 472 473 449
4 449 473 474 450
4 450 474 475 451
4 451 475 476 452
4 452 476 477 453
4 453 477 478 454
4 454 478 479 455
4 455 479 480 456
4 456 480 481 457
4 457 481 482 458
4 458 482 483 459
4 459 483 484 460
4 460 484 485 461
4 461 485 486 462
4 462 486 487 463
4 463 487 488 464
4 464 488 489 465
4 465 489 490 466
4 466 490 491 467
4 467 491 492 468
4 468 492 493 469
4 469 493 494 470
4 470 494 495 471
4 471 495 496 472
4 472 496 497 473
4 473 497 498 474
4 474 498 499 475
4 475 499 500 476
4 476 500 501 477
4 477 501 502 478
4 478 502 503 479
4 479 503 504 480
4 480 504 505 481
4 481 505 506 482
4 482 506 507 483
4 483 507 508 484
4 484 508 509 485
4 485 509 510 486
4 486 510 511 487
4 487 511 512 488
4 488 512 513 489
4 489 513 514 490
4 490 514 515 491
4 491 515 516 492
4 492 516 517 493
4 493 517 518 494
4 494 518 519 495
4 495 519 520 496
4 496 520 521 497
4 497 521 522 498
4 498 522 523 499
4 499 523 524 500
4 500 524 525 501
4 501 525 526 502
4 502 526 527 503
4 503 527 528 504
4 504 528 529 505
4 505 529 530 506
4 506 530 531 507
4 507 531 532 508
4 508 532 533 509
4 509 533 534 510
4 510 534 535 511
4 511 535 536 512
4 512 536 537 513
4 513 537 538 514
4 514 538 539 515
4 515 539 540 516
4 516 540 541 517
4 517 541 542 518
4 518 542 543 519
4 519 543 544 520
4 520 544 545 521
4 521 545 546 522
4 522 546 547 523
4 523 547 548 524
4 524 548 549 525
4 525 549 550 526
4 526 550 551 527
4 527 551 552 528
4 528 552 553 529
4 529 553 554 530
4 530 554 555 531
4 531 555 556 532
4 532 556 557 533
4 533 557 558 534
4 534 558 559 535
4 535 559 560 536
4 536 560 561 537
4 537 561 562 538
4 538 562 563 539
4 539 563 564 540
4 540 564 565 541
4 541 565 566 542
4 542 566 567 543
4 543 567 568 544
4 544 568 569 545
4 545 569 570 546
4 546 570 571 547
4 547 571 572 548
4 548 572 573 549
4 549 573 574 550
4 550 574 575 551
4 551 575 576 552
4 552 576 577 553
4 553 577 578 554
4 554 578 579 555
4 555 579 580 556
4 556 580 581 557
4 557 581 582 558
4 558 582 583 559
4 559 583 584 560
4 560 584 585 561
4 561 585 586 562
4 562 586 587 563
4 563 587 588 564
4 564 588 589 565
4 565 589 590 566
4 566 590 591 567
4 567 591 592 568
4 568 592 593 569
4 569 593 594 570
4 570 594 595 571
4 571 595 596 572
4 572 596 597 573
4 573 597 598 574
4 574 598 599 575
4 575 599 600 576
4 576 600 601 577
4 577 601 602 578
4 578 602 603 579
4 579 603 604 580
4 580 604 605 581
4 581 605 606 582
4 582 606 607 583
4 583 607 608 584
4 584 608 609 585
4 585 609 610 586
4 586 610 611 587
4 587 611 612 588
4 588 612 613 589
4 589 613 614 590
4 590 614 615 591
4 591 615 616 592
4 592 616 617 593
4 593 617 618 594
4 594 618 619 595
4 595 619 620 596
4 596 620 621 597
4 597 621 622 598
4 598 622 623 599
4 599 623 624 600
4 600 624 625 601
4 601 625 626 602
4 602 626 627 603
4 603 627 628 604
4 604 628 629 605
4 605 629 630 606
4 606 630 631 607
4 607 631 632 608
4 608 632 633 609
4 609 633 634 610
4 610 634 635 611
4 611 635 636 612
4 612 636 637 613
4 613 637 638 614
4 614 638 639 615
4 615 639 640 616
4 616 640 641 617
4 617 641 642 618
4 618 642 643 619
4 619 643 644 620
4 620 644 645 621
4 621 645 646 622
4 622 646 647 623
4 623 647 648 624
4 624 648 649 625
4 625 649 650 626
4 626 650 651 627
4 627 651 652 628
4 628 652 653 629
4 629 653 654 630
4 630 654 655 631
4 631 655 656 632
4 632 656 657 633
4 633 657 658 634
4 634 658 659 635
4 635 659 660 636
4 636 660 661 637
4 637 661 662 638
4 638 662 663 639
4 639 663 664 640
4 640 664 665 641
4 641 665 666 642
4 642 666 667 643
4 643 667 668 644
4 644 668 669 645
4 645 669 670 646
4 646 670 671 647
4 647 671 672 648
4 648 672 673 649
4 649 673 674 650
4 650 674 675 651
4 651 675 676 652
4 652 676 677 653
4 653 677 678 654
4 654 678 679 655
4 655 679 680 656
4 656 680 681 657
4 657 681 682 658
4 658 682 683 659
4 659 683 684 660
4 660 684 685 661
4 661 685 686 662
4 662 686 687 663
4 663 687 688 664
4 664 688 689 665
4 665 689 690 666
4 666 690 691 667
4 667 691 692 668
4 668 692 693 669
4 669 693 694 670
4 670 694 695 671
4 671 695 696 672
4 672 696 697 673
4 673 697 698 674
4 674 698 699 675
4 675 699 700 676
4 676 700 701 677
4 677 701 702 678
4 678 702 703 679
4 679 703 704 680
4 680 704 705 681
4 681 705 706 682
4 682 706 707 683
4 683 707 708 684
4 684 708 709 685
4 685 709 710 686
4 686 710 711 687
4 687 711 712 688
4 688 712 713 689
4 689 713 714 690
4 690 714 715 691
4 691 715 716 692
4 692 716 717 693
4 693 717 718 694
4 694 718 719 695
4 695 719 720 696
4 696 720 721 697
4 697 721 722 698
4 698 722 723 699
4 699 723 724 700
4 700 724 725 701
4 701 725 726 702
4 702 726 727 703
4 703 727 728 704
4 704 728 729 705
4 705 729 730 706
4 706 730 731 707
4 707 731 732 708
4 708 732 733 709
4 709 733 734 710
4 710 734 735 711
4 711 735 736 712
4 712 736 737 713
4 713 737 738 714
4 714 738 739 715
4 715 739 740 716
4 716 740 741 717
4 717 741 742 718
4 718 742 743 719
4 719 743 744 720
4 720 744 745 721
4 721 745 746 722
4 722 746 747 723
4 723 747 748 724
4 724 748 749 725
4 725 749 750 726
4 726 750 751 727
4 727 751 752 728
4 728 752 753 729
4 729 753 754 730
4 730 754 755 731
4 731 755 756 732
4 732 756 757 733
4 733 757 758 734
4 734 758 759 735
4 735 759 760 736
4 736 760 761 737
4 737 761 762 738
4 738 762 763 739
4 739 763 764 740
4 740 764 765 741
4 741 765 766 742
4 742 766 767 743
4 743 767 768 744
4 744 768 769 745
4 745 769 770 746
4 746 770 771 747
4 747 771 772 748
4 748 772 773 749
4 749 773 774 750
4 750 774 775 751
4 751 775 776 752
4 752 776 777 753
4 753 777 778 754
4 754 778 779 755
4 755 779 780 756
4 756 780 781 757
4 757 781 782 758
4 758 782 783 759
4 759 783 784 760
4 760 784 785 761
4 761 785 786 762
4 762 786 787 763
4 763 787 788 764
4 764 788 789 765
4 765 789 790 766
4 766 790 791 767
4 767 791 792 768
4 768 792 793 769
4 769 793 794 770
4 770 794 795 771
4 771 795 796 772
4 772 796 797 773
4 773 797 798 774
4 774 798 799 775
4 775 799 800 776
4 776 800 801 777
4 777 801 802 778
4 778 802 803 779
4 779 803 804 780
4 780 804 805 781
4 781 805 806 782
4 782 806 807 783
4 783 807 808 784
4 784 808 809 785
4 785 809 810 786
4 786 810 811 787
4 787 811 812 788
4 788 812 813 789
4 789 813 814 790
4 790 814 815 791
4 791 815 816 792
4 792 816 817 793
4 793 817 818 794
4 794 818 819 795
4 795 819 820 796
4 796 820 821 797
4 797 821 822 798
4 798 822 823 799
4 799 823 824 800
4 800 824 825 801
4 801 825 826 802
4 802 826 827 803
4 803 827 828 804
4 804 828 829 805
4 805 829 830 806
4 806 830 831 807
4 807 831 832 808
4 808 832 833 809
4 809 833 834 810
4 810 834 835 811
4 811 835 836 812
4 812 836 837 813
4 813 837 838 814
4 814 838 839 815
4 815 839 840 816
4 816 840 841 817
4 817 841 842 818
4 818 842 843 819
4 819 843 844 820
4 820 844 845 821
4 821 845 846 822
4 822 846 847 823
4 823 847 848 824
4 824 848 849 825
4 825 849 850 826
4 826 850 851 827
4 827 851 852 828
4 828 852 853 829
4 829 853 854 830
4 830 854 855 831
4 831 855 856 832
4 832 856 857 833
4 833 857 858 834
4 834 858 859 835
4 835 859 860 836
4 836 860 861 837
4 837 861 862 838
4 838 862 863 839
4 839 863 864 840
4 840 864 865 841
4 841 865 866 842
4 842 866 867 843
4 843 867 868 844
4 844 868 869 845
4 845 869 870 846
4 846 870 871 847
4 847 871 872 848
4 848 872 873 849
4 849 873 874 850
4 850 874 875 851
4 851 875 876 852
4 852 876 877 853
4 853 877 878 854
4 854 878 879 855
4 855 879 880 856
4 856 880 881 857
4 857 881 882 858
4 858 882 883 859
4 859 883 884 860
4 860 884 885 861
4 861 885 886 862
4 862 886 887 863
4 863 887 888 864
4 864 888 889 865
4 865 889 890 866
4 866 890 891 867
4 867 891 892 868
4 868 892 893 869
4 869 893 894 870
4 870 894 895 871
4 871 895 896 872
4 872 896 897 873
4 873 897 898 874
4 874 898 899 875
4 875 899 900 876
4 876 900 901 877
4 877 901 902 878
4 878 902 903 879
4 879 903 904 880
4 880 904 905 881
4 881 905 906 882
4 882 906 907 883
4 883 907 908 884
4 884 908 909 885
4 885 909 910 886
4 886 910 911 887
4 887 911 912 888
4 888 912 913 889
4 889 913 914 890
4 890 914 915 891
4 891 915 916 892
4 892 916 917 893
4 893 917 918 894
4 894 918 919 895
4 895 919 920 896
4 896 920 921 897
4 897 921 922 898
4 898 922 923 899
4 899 923 924 900
4 900 924 925 901
4 901 925 926 902
4 902 926 927 903
4 903 927 928 904
4 904 928 929 905
4 905 929 930 906
4 906 930 931 907
4 907 931 932 908
4 908 932 933 909
4 909 933 934 910
4 910 934 935 911
4 911 935 936 912
4 912 936 937 913
4 913 937 938 914
4 914 938 939 915
4 915 939 940 916
4 916 940 941 917
4 917 941 942 918
4 918 942 943 919
4 919 943 944 920
4 920 944 945 921
4 921 945 946 922
4 922 946 947 923
4 923 947 948 924
4 924 948 949 925
4 925 949 950 926
4 926 950 951 927
4 927 951 952 928
4 928 952 953 929
4 929 953 954 930
4 930 954 955 931
4 931 955 956 932
4 932 956 957 933
4 933 957 958 934
4 934 958 959 935
