ply
format ascii 1.0
comment object: vertex cloud
element vertex 903
property double x
property double y
property double z
property uchar red                   { start of face colors }
property uchar green
property uchar blue
element face 900
property list uchar int vertex_indices
end_header
0 -2.06823e-15 0.02 0 0 0 
0 -0.0173205 -0.01 0 0 0 
0 0.0173205 -0.01 0 0 0 
0.0418879 -2.06823e-15 0.02 0 0 0 
0.0418879 -0.0173205 -0.01 0 0 0 
0.0418879 0.0173205 -0.01 0 0 0 
0.0837758 -2.06823e-15 0.02 0 0 0 
0.0837758 -0.0173205 -0.01 0 0 0 
0.0837758 0.0173205 -0.01 0 0 0 
0.125664 -2.06823e-15 0.02 0 0 0 
0.125664 -0.0173205 -0.01 0 0 0 
0.125664 0.0173205 -0.01 0 0 0 
0.167552 -2.06823e-15 0.02 0 0 0 
0.167552 -0.0173205 -0.01 0 0 0 
0.167552 0.0173205 -0.01 0 0 0 
0.20944 -2.06823e-15 0.02 0 0 0 
0.20944 -0.0173205 -0.01 0 0 0 
0.20944 0.0173205 -0.01 0 0 0 
0.251327 -2.06823e-15 0.02 0 0 0 
0.251327 -0.0173205 -0.01 0 0 0 
0.251327 0.0173205 -0.01 0 0 0 
0.293215 -2.06823e-15 0.02 0 0 0 
0.293215 -0.0173205 -0.01 0 0 0 
0.293215 0.0173205 -0.01 0 0 0 
0.335103 -2.06823e-15 0.02 0 0 0 
0.335103 -0.0173205 -0.01 0 0 0 
0.335103 0.0173205 -0.01 0 0 0 
0.376991 -2.06823e-15 0.02 0 0 0 
0.376991 -0.0173205 -0.01 0 0 0 
0.376991 0.0173205 -0.01 0 0 0 
0.418879 -2.06823e-15 0.02 0 0 0 
0.418879 -0.0173205 -0.01 0 0 0 
0.418879 0.0173205 -0.01 0 0 0 
0.460767 -2.06823e-15 0.02 0 0 0 
0.460767 -0.0173205 -0.01 0 0 0 
0.460767 0.0173205 -0.01 0 0 0 
0.502655 -2.06823e-15 0.02 0 0 0 
0.502655 -0.0173205 -0.01 0 0 0 
0.502655 0.0173205 -0.01 0 0 0 
0.544543 -2.06823e-15 0.02 0 0 0 
0.544543 -0.0173205 -0.01 0 0 0 
0.544543 0.0173205 -0.01 0 0 0 
0.586431 -2.06823e-15 0.02 0 0 0 
0.586431 -0.0173205 -0.01 0 0 0 
0.586431 0.0173205 -0.01 0 0 0 
0.628319 -2.06823e-15 0.02 0 0 0 
0.628319 -0.0173205 -0.01 0 0 0 
0.628319 0.0173205 -0.01 0 0 0 
0.670206 -2.06823e-15 0.02 0 0 0 
0.670206 -0.0173205 -0.01 0 0 0 
0.670206 0.0173205 -0.01 0 0 0 
0.712094 -2.06823e-15 0.02 0 0 0 
0.712094 -0.0173205 -0.01 0 0 0 
0.712094 0.0173205 -0.01 0 0 0 
0.753982 -2.06823e-15 0.02 0 0 0 
0.753982 -0.0173205 -0.01 0 0 0 
0.753982 0.0173205 -0.01 0 0 0 
0.79587 -2.06823e-15 0.02 0 0 0 
0.79587 -0.0173205 -0.01 0 0 0 
0.79587 0.0173205 -0.01 0 0 0 
0.837758 -2.06823e-15 0.02 0 0 0 
0.837758 -0.0173205 -0.01 0 0 0 
0.837758 0.0173205 -0.01 0 0 0 
0.879646 -2.06823e-15 0.02 0 0 0 
0.879646 -0.0173205 -0.01 0 0 0 
0.879646 0.0173205 -0.01 0 0 0 
0.921534 -2.06823e-15 0.02 0 0 0 
0.921534 -0.0173205 -0.01 0 0 0 
0.921534 0.0173205 -0.01 0 0 0 
0.963422 -2.06823e-15 0.02 0 0 0 
0.963422 -0.0173205 -0.01 0 0 0 
0.963422 0.0173205 -0.01 0 0 0 
1.00531 -2.06823e-15 0.02 0 0 0 
1.00531 -0.0173205 -0.01 0 0 0 
1.00531 0.0173205 -0.01 0 0 0 
1.0472 -2.06823e-15 0.02 0 0 0 
1.0472 -0.0173205 -0.01 0 0 0 
1.0472 0.0173205 -0.01 0 0 0 
1.08909 -2.06823e-15 0.02 0 0 0 
1.08909 -0.0173205 -0.01 0 0 0 
1.08909 0.0173205 -0.01 0 0 0 
1.13097 -2.06823e-15 0.02 0 0 0 
1.13097 -0.0173205 -0.01 0 0 0 
1.13097 0.0173205 -0.01 0 0 0 
1.17286 -2.06823e-15 0.02 0 0 0 
1.17286 -0.0173205 -0.01 0 0 0 
1.17286 0.0173205 -0.01 0 0 0 
1.21475 -2.06823e-15 0.02 0 0 0 
1.21475 -0.0173205 -0.01 0 0 0 
1.21475 0.0173205 -0.01 0 0 0 
1.25664 -2.06823e-15 0.02 0 0 0 
1.25664 -0.0173205 -0.01 0 0 0 
1.25664 0.0173205 -0.01 0 0 0 
1.29852 -2.06823e-15 0.02 0 0 0 
1.29852 -0.0173205 -0.01 0 0 0 
1.29852 0.0173205 -0.01 0 0 0 
1.34041 -2.06823e-15 0.02 0 0 0 
1.34041 -0.0173205 -0.01 0 0 0 
1.34041 0.0173205 -0.01 0 0 0 
1.3823 -2.06823e-15 0.02 0 0 0 
1.3823 -0.0173205 -0.01 0 0 0 
1.3823 0.0173205 -0.01 0 0 0 
1.42419 -2.06823e-15 0.02 0 0 0 
1.42419 -0.0173205 -0.01 0 0 0 
1.42419 0.0173205 -0.01 0 0 0 
1.46608 -2.06823e-15 0.02 0 0 0 
1.46608 -0.0173205 -0.01 0 0 0 
1.46608 0.0173205 -0.01 0 0 0 
1.50796 -2.06823e-15 0.02 0 0 0 
1.50796 -0.0173205 -0.01 0 0 0 
1.50796 0.0173205 -0.01 0 0 0 
1.54985 -2.06823e-15 0.02 0 0 0 
1.54985 -0.0173205 -0.01 0 0 0 
1.54985 0.0173205 -0.01 0 0 0 
1.59174 -2.06823e-15 0.02 0 0 0 
1.59174 -0.0173205 -0.01 0 0 0 
1.59174 0.0173205 -0.01 0 0 0 
1.63363 -2.06823e-15 0.02 0 0 0 
1.63363 -0.0173205 -0.01 0 0 0 
1.63363 0.0173205 -0.01 0 0 0 
1.67552 -2.06823e-15 0.02 0 0 0 
1.67552 -0.0173205 -0.01 0 0 0 
1.67552 0.0173205 -0.01 0 0 0 
1.7174 -2.06823e-15 0.02 0 0 0 
1.7174 -0.0173205 -0.01 0 0 0 
1.7174 0.0173205 -0.01 0 0 0 
1.75929 -2.06823e-15 0.02 0 0 0 
1.75929 -0.0173205 -0.01 0 0 0 
1.75929 0.0173205 -0.01 0 0 0 
1.80118 -2.06823e-15 0.02 0 0 0 
1.80118 -0.0173205 -0.01 0 0 0 
1.80118 0.0173205 -0.01 0 0 0 
1.84307 -2.06823e-15 0.02 0 0 0 
1.84307 -0.0173205 -0.01 0 0 0 
1.84307 0.0173205 -0.01 0 0 0 
1.88496 -2.06823e-15 0.02 0 0 0 
1.88496 -0.0173205 -0.01 0 0 0 
1.88496 0.0173205 -0.01 0 0 0 
1.92684 -2.06823e-15 0.02 0 0 0 
1.92684 -0.0173205 -0.01 0 0 0 
1.92684 0.0173205 -0.01 0 0 0 
1.96873 -2.06823e-15 0.02 0 0 0 
1.96873 -0.0173205 -0.01 0 0 0 
1.96873 0.0173205 -0.01 0 0 0 
2.01062 -2.06823e-15 0.02 0 0 0 
2.01062 -0.0173205 -0.01 0 0 0 
2.01062 0.0173205 -0.01 0 0 0 
2.05251 -2.06823e-15 0.02 0 0 0 
2.05251 -0.0173205 -0.01 0 0 0 
2.05251 0.0173205 -0.01 0 0 0 
2.0944 -2.06823e-15 0.02 0 0 0 
2.0944 -0.0173205 -0.01 0 0 0 
2.0944 0.0173205 -0.01 0 0 0 
2.13628 -2.06823e-15 0.02 0 0 0 
2.13628 -0.0173205 -0.01 0 0 0 
2.13628 0.0173205 -0.01 0 0 0 
2.17817 -2.06823e-15 0.02 0 0 0 
2.17817 -0.0173205 -0.01 0 0 0 
2.17817 0.0173205 -0.01 0 0 0 
2.22006 -2.06823e-15 0.02 0 0 0 
2.22006 -0.0173205 -0.01 0 0 0 
2.22006 0.0173205 -0.01 0 0 0 
2.26195 -2.06823e-15 0.02 0 0 0 
2.26195 -0.0173205 -0.01 0 0 0 
2.26195 0.0173205 -0.01 0 0 0 
2.30383 -2.06823e-15 0.02 0 0 0 
2.30383 -0.0173205 -0.01 0 0 0 
2.30383 0.0173205 -0.01 0 0 0 
2.34572 -2.06823e-15 0.02 0 0 0 
2.34572 -0.0173205 -0.01 0 0 0 
2.34572 0.0173205 -0.01 0 0 0 
2.38761 -2.06823e-15 0.02 0 0 0 
2.38761 -0.0173205 -0.01 0 0 0 
2.38761 0.0173205 -0.01 0 0 0 
2.4295 -2.06823e-15 0.02 0 0 0 
2.4295 -0.0173205 -0.01 0 0 0 
2.4295 0.0173205 -0.01 0 0 0 
2.47139 -2.06823e-15 0.02 0 0 0 
2.47139 -0.0173205 -0.01 0 0 0 
2.47139 0.0173205 -0.01 0 0 0 
2.51327 -2.06823e-15 0.02 0 0 0 
2.51327 -0.0173205 -0.01 0 0 0 
2.51327 0.0173205 -0.01 0 0 0 
2.55516 -2.06823e-15 0.02 0 0 0 
2.55516 -0.0173205 -0.01 0 0 0 
2.55516 0.0173205 -0.01 0 0 0 
2.59705 -2.06823e-15 0.02 0 0 0 
2.59705 -0.0173205 -0.01 0 0 0 
2.59705 0.0173205 -0.01 0 0 0 
2.63894 -2.06823e-15 0.02 0 0 0 
2.63894 -0.0173205 -0.01 0 0 0 
2.63894 0.0173205 -0.01 0 0 0 
2.68083 -2.06823e-15 0.02 0 0 0 
2.68083 -0.0173205 -0.01 0 0 0 
2.68083 0.0173205 -0.01 0 0 0 
2.72271 -2.06823e-15 0.02 0 0 0 
2.72271 -0.0173205 -0.01 0 0 0 
2.72271 0.0173205 -0.01 0 0 0 
2.7646 -2.06823e-15 0.02 0 0 0 
2.7646 -0.0173205 -0.01 0 0 0 
2.7646 0.0173205 -0.01 0 0 0 
2.80649 -2.06823e-15 0.02 0 0 0 
2.80649 -0.0173205 -0.01 0 0 0 
2.80649 0.0173205 -0.01 0 0 0 
2.84838 -2.06823e-15 0.02 0 0 0 
2.84838 -0.0173205 -0.01 0 0 0 
2.84838 0.0173205 -0.01 0 0 0 
2.89027 -2.06823e-15 0.02 0 0 0 
2.89027 -0.0173205 -0.01 0 0 0 
2.89027 0.0173205 -0.01 0 0 0 
2.93215 -2.06823e-15 0.02 0 0 0 
2.93215 -0.0173205 -0.01 0 0 0 
2.93215 0.0173205 -0.01 0 0 0 
2.97404 -2.06823e-15 0.02 0 0 0 
2.97404 -0.0173205 -0.01 0 0 0 
2.97404 0.0173205 -0.01 0 0 0 
3.01593 -2.06823e-15 0.02 0 0 0 
3.01593 -0.0173205 -0.01 0 0 0 
3.01593 0.0173205 -0.01 0 0 0 
3.05782 -2.06823e-15 0.02 0 0 0 
3.05782 -0.0173205 -0.01 0 0 0 
3.05782 0.0173205 -0.01 0 0 0 
3.0997 -2.06823e-15 0.02 0 0 0 
3.0997 -0.0173205 -0.01 0 0 0 
3.0997 0.0173205 -0.01 0 0 0 
3.14159 -2.06823e-15 0.02 0 0 0 
3.14159 -0.0173205 -0.01 0 0 0 
3.14159 0.0173205 -0.01 0 0 0 
3.18348 -2.06823e-15 0.02 0 0 0 
3.18348 -0.0173205 -0.01 0 0 0 
3.18348 0.0173205 -0.01 0 0 0 
3.22537 -2.06823e-15 0.02 0 0 0 
3.22537 -0.0173205 -0.01 0 0 0 
3.22537 0.0173205 -0.01 0 0 0 
3.26726 -2.06823e-15 0.02 0 0 0 
3.26726 -0.0173205 -0.01 0 0 0 
3.26726 0.0173205 -0.01 0 0 0 
3.30914 -2.06823e-15 0.02 0 0 0 
3.30914 -0.0173205 -0.01 0 0 0 
3.30914 0.0173205 -0.01 0 0 0 
3.35103 -2.06823e-15 0.02 0 0 0 
3.35103 -0.0173205 -0.01 0 0 0 
3.35103 0.0173205 -0.01 0 0 0 
3.39292 -2.06823e-15 0.02 0 0 0 
3.39292 -0.0173205 -0.01 0 0 0 
3.39292 0.0173205 -0.01 0 0 0 
3.43481 -2.06823e-15 0.02 0 0 0 
3.43481 -0.0173205 -0.01 0 0 0 
3.43481 0.0173205 -0.01 0 0 0 
3.4767 -2.06823e-15 0.02 0 0 0 
3.4767 -0.0173205 -0.01 0 0 0 
3.4767 0.0173205 -0.01 0 0 0 
3.51858 -2.06823e-15 0.02 0 0 0 
3.51858 -0.0173205 -0.01 0 0 0 
3.51858 0.0173205 -0.01 0 0 0 
3.56047 -2.06823e-15 0.02 0 0 0 
3.56047 -0.0173205 -0.01 0 0 0 
3.56047 0.0173205 -0.01 0 0 0 
3.60236 -2.06823e-15 0.02 0 0 0 
3.60236 -0.0173205 -0.01 0 0 0 
3.60236 0.0173205 -0.01 0 0 0 
3.64425 -2.06823e-15 0.02 0 0 0 
3.64425 -0.0173205 -0.01 0 0 0 
3.64425 0.0173205 -0.01 0 0 0 
3.68614 -2.06823e-15 0.02 0 0 0 
3.68614 -0.0173205 -0.01 0 0 0 
3.68614 0.0173205 -0.01 0 0 0 
3.72802 -2.06823e-15 0.02 0 0 0 
3.72802 -0.0173205 -0.01 0 0 0 
3.72802 0.0173205 -0.01 0 0 0 
3.76991 -2.06823e-15 0.02 0 0 0 
3.76991 -0.0173205 -0.01 0 0 0 
3.76991 0.0173205 -0.01 0 0 0 
3.8118 -2.06823e-15 0.02 0 0 0 
3.8118 -0.0173205 -0.01 0 0 0 
3.8118 0.0173205 -0.01 0 0 0 
3.85369 -2.06823e-15 0.02 0 0 0 
3.85369 -0.0173205 -0.01 0 0 0 
3.85369 0.0173205 -0.01 0 0 0 
3.89557 -2.06823e-15 0.02 0 0 0 
3.89557 -0.0173205 -0.01 0 0 0 
3.89557 0.0173205 -0.01 0 0 0 
3.93746 -2.06823e-15 0.02 0 0 0 
3.93746 -0.0173205 -0.01 0 0 0 
3.93746 0.0173205 -0.01 0 0 0 
3.97935 -2.06823e-15 0.02 0 0 0 
3.97935 -0.0173205 -0.01 0 0 0 
3.97935 0.0173205 -0.01 0 0 0 
4.02124 -2.06823e-15 0.02 0 0 0 
4.02124 -0.0173205 -0.01 0 0 0 
4.02124 0.0173205 -0.01 0 0 0 
4.06313 -2.06823e-15 0.02 0 0 0 
4.06313 -0.0173205 -0.01 0 0 0 
4.06313 0.0173205 -0.01 0 0 0 
4.10501 -2.06823e-15 0.02 0 0 0 
4.10501 -0.0173205 -0.01 0 0 0 
4.10501 0.0173205 -0.01 0 0 0 
4.1469 -2.06823e-15 0.02 0 0 0 
4.1469 -0.0173205 -0.01 0 0 0 
4.1469 0.0173205 -0.01 0 0 0 
4.18879 -2.06823e-15 0.02 0 0 0 
4.18879 -0.0173205 -0.01 0 0 0 
4.18879 0.0173205 -0.01 0 0 0 
4.23068 -2.06823e-15 0.02 0 0 0 
4.23068 -0.0173205 -0.01 0 0 0 
4.23068 0.0173205 -0.01 0 0 0 
4.27257 -2.06823e-15 0.02 0 0 0 
4.27257 -0.0173205 -0.01 0 0 0 
4.27257 0.0173205 -0.01 0 0 0 
4.31445 -2.06823e-15 0.02 0 0 0 
4.31445 -0.0173205 -0.01 0 0 0 
4.31445 0.0173205 -0.01 0 0 0 
4.35634 -2.06823e-15 0.02 0 0 0 
4.35634 -0.0173205 -0.01 0 0 0 
4.35634 0.0173205 -0.01 0 0 0 
4.39823 -2.06823e-15 0.02 0 0 0 
4.39823 -0.0173205 -0.01 0 0 0 
4.39823 0.0173205 -0.01 0 0 0 
4.44012 -2.06823e-15 0.02 0 0 0 
4.44012 -0.0173205 -0.01 0 0 0 
4.44012 0.0173205 -0.01 0 0 0 
4.48201 -2.06823e-15 0.02 0 0 0 
4.48201 -0.0173205 -0.01 0 0 0 
4.48201 0.0173205 -0.01 0 0 0 
4.52389 -2.06823e-15 0.02 0 0 0 
4.52389 -0.0173205 -0.01 0 0 0 
4.52389 0.0173205 -0.01 0 0 0 
4.56578 -2.06823e-15 0.02 0 0 0 
4.56578 -0.0173205 -0.01 0 0 0 
4.56578 0.0173205 -0.01 0 0 0 
4.60767 -2.06823e-15 0.02 0 0 0 
4.60767 -0.0173205 -0.01 0 0 0 
4.60767 0.0173205 -0.01 0 0 0 
4.64956 -2.06823e-15 0.02 0 0 0 
4.64956 -0.0173205 -0.01 0 0 0 
4.64956 0.0173205 -0.01 0 0 0 
4.69145 -2.06823e-15 0.02 0 0 0 
4.69145 -0.0173205 -0.01 0 0 0 
4.69145 0.0173205 -0.01 0 0 0 
4.73333 -2.06823e-15 0.02 0 0 0 
4.73333 -0.0173205 -0.01 0 0 0 
4.73333 0.0173205 -0.01 0 0 0 
4.77522 -2.06823e-15 0.02 0 0 0 
4.77522 -0.0173205 -0.01 0 0 0 
4.77522 0.0173205 -0.01 0 0 0 
4.81711 -2.06823e-15 0.02 0 0 0 
4.81711 -0.0173205 -0.01 0 0 0 
4.81711 0.0173205 -0.01 0 0 0 
4.859 -2.06823e-15 0.02 0 0 0 
4.859 -0.0173205 -0.01 0 0 0 
4.859 0.0173205 -0.01 0 0 0 
4.90088 -2.06823e-15 0.02 0 0 0 
4.90088 -0.0173205 -0.01 0 0 0 
4.90088 0.0173205 -0.01 0 0 0 
4.94277 -2.06823e-15 0.02 0 0 0 
4.94277 -0.0173205 -0.01 0 0 0 
4.94277 0.0173205 -0.01 0 0 0 
4.98466 -2.06823e-15 0.02 0 0 0 
4.98466 -0.0173205 -0.01 0 0 0 
4.98466 0.0173205 -0.01 0 0 0 
5.02655 -2.06823e-15 0.02 0 0 0 
5.02655 -0.0173205 -0.01 0 0 0 
5.02655 0.0173205 -0.01 0 0 0 
5.06844 -2.06823e-15 0.02 0 0 0 
5.06844 -0.0173205 -0.01 0 0 0 
5.06844 0.0173205 -0.01 0 0 0 
5.11032 -2.06823e-15 0.02 0 0 0 
5.11032 -0.0173205 -0.01 0 0 0 
5.11032 0.0173205 -0.01 0 0 0 
5.15221 -2.06823e-15 0.02 0 0 0 
5.15221 -0.0173205 -0.01 0 0 0 
5.15221 0.0173205 -0.01 0 0 0 
5.1941 -2.06823e-15 0.02 0 0 0 
5.1941 -0.0173205 -0.01 0 0 0 
5.1941 0.0173205 -0.01 0 0 0 
5.23599 -2.06823e-15 0.02 0 0 0 
5.23599 -0.0173205 -0.01 0 0 0 
5.23599 0.0173205 -0.01 0 0 0 
5.27788 -2.06823e-15 0.02 0 0 0 
5.27788 -0.0173205 -0.01 0 0 0 
5.27788 0.0173205 -0.01 0 0 0 
5.31976 -2.06823e-15 0.02 0 0 0 
5.31976 -0.0173205 -0.01 0 0 0 
5.31976 0.0173205 -0.01 0 0 0 
5.36165 -2.06823e-15 0.02 0 0 0 
5.36165 -0.0173205 -0.01 0 0 0 
5.36165 0.0173205 -0.01 0 0 0 
5.40354 -2.06823e-15 0.02 0 0 0 
5.40354 -0.0173205 -0.01 0 0 0 
5.40354 0.0173205 -0.01 0 0 0 
5.44543 -2.06823e-15 0.02 0 0 0 
5.44543 -0.0173205 -0.01 0 0 0 
5.44543 0.0173205 -0.01 0 0 0 
5.48732 -2.06823e-15 0.02 0 0 0 
5.48732 -0.0173205 -0.01 0 0 0 
5.48732 0.0173205 -0.01 0 0 0 
5.5292 -2.06823e-15 0.02 0 0 0 
5.5292 -0.0173205 -0.01 0 0 0 
5.5292 0.0173205 -0.01 0 0 0 
5.57109 -2.06823e-15 0.02 0 0 0 
5.57109 -0.0173205 -0.01 0 0 0 
5.57109 0.0173205 -0.01 0 0 0 
5.61298 -2.06823e-15 0.02 0 0 0 
5.61298 -0.0173205 -0.01 0 0 0 
5.61298 0.0173205 -0.01 0 0 0 
5.65487 -2.06823e-15 0.02 0 0 0 
5.65487 -0.0173205 -0.01 0 0 0 
5.65487 0.0173205 -0.01 0 0 0 
5.69675 -2.06823e-15 0.02 0 0 0 
5.69675 -0.0173205 -0.01 0 0 0 
5.69675 0.0173205 -0.01 0 0 0 
5.73864 -2.06823e-15 0.02 0 0 0 
5.73864 -0.0173205 -0.01 0 0 0 
5.73864 0.0173205 -0.01 0 0 0 
5.78053 -2.06823e-15 0.02 0 0 0 
5.78053 -0.0173205 -0.01 0 0 0 
5.78053 0.0173205 -0.01 0 0 0 
5.82242 -2.06823e-15 0.02 0 0 0 
5.82242 -0.0173205 -0.01 0 0 0 
5.82242 0.0173205 -0.01 0 0 0 
5.86431 -2.06823e-15 0.02 0 0 0 
5.86431 -0.0173205 -0.01 0 0 0 
5.86431 0.0173205 -0.01 0 0 0 
5.90619 -2.06823e-15 0.02 0 0 0 
5.90619 -0.0173205 -0.01 0 0 0 
5.90619 0.0173205 -0.01 0 0 0 
5.94808 -2.06823e-15 0.02 0 0 0 
5.94808 -0.0173205 -0.01 0 0 0 
5.94808 0.0173205 -0.01 0 0 0 
5.98997 -2.06823e-15 0.02 0 0 0 
5.98997 -0.0173205 -0.01 0 0 0 
5.98997 0.0173205 -0.01 0 0 0 
6.03186 -2.06823e-15 0.02 0 0 0 
6.03186 -0.0173205 -0.01 0 0 0 
6.03186 0.0173205 -0.01 0 0 0 
6.07375 -2.06823e-15 0.02 0 0 0 
6.07375 -0.0173205 -0.01 0 0 0 
6.07375 0.0173205 -0.01 0 0 0 
6.11563 -2.06823e-15 0.02 0 0 0 
6.11563 -0.0173205 -0.01 0 0 0 
6.11563 0.0173205 -0.01 0 0 0 
6.15752 -2.06823e-15 0.02 0 0 0 
6.15752 -0.0173205 -0.01 0 0 0 
6.15752 0.0173205 -0.01 0 0 0 
6.19941 -2.06823e-15 0.02 0 0 0 
6.19941 -0.0173205 -0.01 0 0 0 
6.19941 0.0173205 -0.01 0 0 0 
6.2413 -2.06823e-15 0.02 0 0 0 
6.2413 -0.0173205 -0.01 0 0 0 
6.2413 0.0173205 -0.01 0 0 0 
6.28319 -2.06823e-15 0.02 0 0 0 
6.28319 -0.0173205 -0.01 0 0 0 
6.28319 0.0173205 -0.01 0 0 0 
6.32507 -2.06823e-15 0.02 0 0 0 
6.32507 -0.0173205 -0.01 0 0 0 
6.32507 0.0173205 -0.01 0 0 0 
6.36696 -2.06823e-15 0.02 0 0 0 
6.36696 -0.0173205 -0.01 0 0 0 
6.36696 0.0173205 -0.01 0 0 0 
6.40885 -2.06823e-15 0.02 0 0 0 
6.40885 -0.0173205 -0.01 0 0 0 
6.40885 0.0173205 -0.01 0 0 0 
6.45074 -2.06823e-15 0.02 0 0 0 
6.45074 -0.0173205 -0.01 0 0 0 
6.45074 0.0173205 -0.01 0 0 0 
6.49262 -2.06823e-15 0.02 0 0 0 
6.49262 -0.0173205 -0.01 0 0 0 
6.49262 0.0173205 -0.01 0 0 0 
6.53451 -2.06823e-15 0.02 0 0 0 
6.53451 -0.0173205 -0.01 0 0 0 
6.53451 0.0173205 -0.01 0 0 0 
6.5764 -2.06823e-15 0.02 0 0 0 
6.5764 -0.0173205 -0.01 0 0 0 
6.5764 0.0173205 -0.01 0 0 0 
6.61829 -2.06823e-15 0.02 0 0 0 
6.61829 -0.0173205 -0.01 0 0 0 
6.61829 0.0173205 -0.01 0 0 0 
6.66018 -2.06823e-15 0.02 0 0 0 
6.66018 -0.0173205 -0.01 0 0 0 
6.66018 0.0173205 -0.01 0 0 0 
6.70206 -2.06823e-15 0.02 0 0 0 
6.70206 -0.0173205 -0.01 0 0 0 
6.70206 0.0173205 -0.01 0 0 0 
6.74395 -2.06823e-15 0.02 0 0 0 
6.74395 -0.0173205 -0.01 0 0 0 
6.74395 0.0173205 -0.01 0 0 0 
6.78584 -2.06823e-15 0.02 0 0 0 
6.78584 -0.0173205 -0.01 0 0 0 
6.78584 0.0173205 -0.01 0 0 0 
6.82773 -2.06823e-15 0.02 0 0 0 
6.82773 -0.0173205 -0.01 0 0 0 
6.82773 0.0173205 -0.01 0 0 0 
6.86962 -2.06823e-15 0.02 0 0 0 
6.86962 -0.0173205 -0.01 0 0 0 
6.86962 0.0173205 -0.01 0 0 0 
6.9115 -2.06823e-15 0.02 0 0 0 
6.9115 -0.0173205 -0.01 0 0 0 
6.9115 0.0173205 -0.01 0 0 0 
6.95339 -2.06823e-15 0.02 0 0 0 
6.95339 -0.0173205 -0.01 0 0 0 
6.95339 0.0173205 -0.01 0 0 0 
6.99528 -2.06823e-15 0.02 0 0 0 
6.99528 -0.0173205 -0.01 0 0 0 
6.99528 0.0173205 -0.01 0 0 0 
7.03717 -2.06823e-15 0.02 0 0 0 
7.03717 -0.0173205 -0.01 0 0 0 
7.03717 0.0173205 -0.01 0 0 0 
7.07906 -2.06823e-15 0.02 0 0 0 
7.07906 -0.0173205 -0.01 0 0 0 
7.07906 0.0173205 -0.01 0 0 0 
7.12094 -2.06823e-15 0.02 0 0 0 
7.12094 -0.0173205 -0.01 0 0 0 
7.12094 0.0173205 -0.01 0 0 0 
7.16283 -2.06823e-15 0.02 0 0 0 
7.16283 -0.0173205 -0.01 0 0 0 
7.16283 0.0173205 -0.01 0 0 0 
7.20472 -2.06823e-15 0.02 0 0 0 
7.20472 -0.0173205 -0.01 0 0 0 
7.20472 0.0173205 -0.01 0 0 0 
7.24661 -2.06823e-15 0.02 0 0 0 
7.24661 -0.0173205 -0.01 0 0 0 
7.24661 0.0173205 -0.01 0 0 0 
7.28849 -2.06823e-15 0.02 0 0 0 
7.28849 -0.0173205 -0.01 0 0 0 
7.28849 0.0173205 -0.01 0 0 0 
7.33038 -2.06823e-15 0.02 0 0 0 
7.33038 -0.0173205 -0.01 0 0 0 
7.33038 0.0173205 -0.01 0 0 0 
7.37227 -2.06823e-15 0.02 0 0 0 
7.37227 -0.0173205 -0.01 0 0 0 
7.37227 0.0173205 -0.01 0 0 0 
7.41416 -2.06823e-15 0.02 0 0 0 
7.41416 -0.0173205 -0.01 0 0 0 
7.41416 0.0173205 -0.01 0 0 0 
7.45605 -2.06823e-15 0.02 0 0 0 
7.45605 -0.0173205 -0.01 0 0 0 
7.45605 0.0173205 -0.01 0 0 0 
7.49793 -2.06823e-15 0.02 0 0 0 
7.49793 -0.0173205 -0.01 0 0 0 
7.49793 0.0173205 -0.01 0 0 0 
7.53982 -2.06823e-15 0.02 0 0 0 
7.53982 -0.0173205 -0.01 0 0 0 
7.53982 0.0173205 -0.01 0 0 0 
7.58171 -2.06823e-15 0.02 0 0 0 
7.58171 -0.0173205 -0.01 0 0 0 
7.58171 0.0173205 -0.01 0 0 0 
7.6236 -2.06823e-15 0.02 0 0 0 
7.6236 -0.0173205 -0.01 0 0 0 
7.6236 0.0173205 -0.01 0 0 0 
7.66549 -2.06823e-15 0.02 0 0 0 
7.66549 -0.0173205 -0.01 0 0 0 
7.66549 0.0173205 -0.01 0 0 0 
7.70737 -2.06823e-15 0.02 0 0 0 
7.70737 -0.0173205 -0.01 0 0 0 
7.70737 0.0173205 -0.01 0 0 0 
7.74926 -2.06823e-15 0.02 0 0 0 
7.74926 -0.0173205 -0.01 0 0 0 
7.74926 0.0173205 -0.01 0 0 0 
7.79115 -2.06823e-15 0.02 0 0 0 
7.79115 -0.0173205 -0.01 0 0 0 
7.79115 0.0173205 -0.01 0 0 0 
7.83304 -2.06823e-15 0.02 0 0 0 
7.83304 -0.0173205 -0.01 0 0 0 
7.83304 0.0173205 -0.01 0 0 0 
7.87493 -2.06823e-15 0.02 0 0 0 
7.87493 -0.0173205 -0.01 0 0 0 
7.87493 0.0173205 -0.01 0 0 0 
7.91681 -2.06823e-15 0.02 0 0 0 
7.91681 -0.0173205 -0.01 0 0 0 
7.91681 0.0173205 -0.01 0 0 0 
7.9587 -2.06823e-15 0.02 0 0 0 
7.9587 -0.0173205 -0.01 0 0 0 
7.9587 0.0173205 -0.01 0 0 0 
8.00059 -2.06823e-15 0.02 0 0 0 
8.00059 -0.0173205 -0.01 0 0 0 
8.00059 0.0173205 -0.01 0 0 0 
8.04248 -2.06823e-15 0.02 0 0 0 
8.04248 -0.0173205 -0.01 0 0 0 
8.04248 0.0173205 -0.01 0 0 0 
8.08437 -2.06823e-15 0.02 0 0 0 
8.08437 -0.0173205 -0.01 0 0 0 
8.08437 0.0173205 -0.01 0 0 0 
8.12625 -2.06823e-15 0.02 0 0 0 
8.12625 -0.0173205 -0.01 0 0 0 
8.12625 0.0173205 -0.01 0 0 0 
8.16814 -2.06823e-15 0.02 0 0 0 
8.16814 -0.0173205 -0.01 0 0 0 
8.16814 0.0173205 -0.01 0 0 0 
8.21003 -2.06823e-15 0.02 0 0 0 
8.21003 -0.0173205 -0.01 0 0 0 
8.21003 0.0173205 -0.01 0 0 0 
8.25192 -2.06823e-15 0.02 0 0 0 
8.25192 -0.0173205 -0.01 0 0 0 
8.25192 0.0173205 -0.01 0 0 0 
8.2938 -2.06823e-15 0.02 0 0 0 
8.2938 -0.0173205 -0.01 0 0 0 
8.2938 0.0173205 -0.01 0 0 0 
8.33569 -2.06823e-15 0.02 0 0 0 
8.33569 -0.0173205 -0.01 0 0 0 
8.33569 0.0173205 -0.01 0 0 0 
8.37758 -2.06823e-15 0.02 0 0 0 
8.37758 -0.0173205 -0.01 0 0 0 
8.37758 0.0173205 -0.01 0 0 0 
8.41947 -2.06823e-15 0.02 0 0 0 
8.41947 -0.0173205 -0.01 0 0 0 
8.41947 0.0173205 -0.01 0 0 0 
8.46136 -2.06823e-15 0.02 0 0 0 
8.46136 -0.0173205 -0.01 0 0 0 
8.46136 0.0173205 -0.01 0 0 0 
8.50324 -2.06823e-15 0.02 0 0 0 
8.50324 -0.0173205 -0.01 0 0 0 
8.50324 0.0173205 -0.01 0 0 0 
8.54513 -2.06823e-15 0.02 0 0 0 
8.54513 -0.0173205 -0.01 0 0 0 
8.54513 0.0173205 -0.01 0 0 0 
8.58702 -2.06823e-15 0.02 0 0 0 
8.58702 -0.0173205 -0.01 0 0 0 
8.58702 0.0173205 -0.01 0 0 0 
8.62891 -2.06823e-15 0.02 0 0 0 
8.62891 -0.0173205 -0.01 0 0 0 
8.62891 0.0173205 -0.01 0 0 0 
8.6708 -2.06823e-15 0.02 0 0 0 
8.6708 -0.0173205 -0.01 0 0 0 
8.6708 0.0173205 -0.01 0 0 0 
8.71268 -2.06823e-15 0.02 0 0 0 
8.71268 -0.0173205 -0.01 0 0 0 
8.71268 0.0173205 -0.01 0 0 0 
8.75457 -2.06823e-15 0.02 0 0 0 
8.75457 -0.0173205 -0.01 0 0 0 
8.75457 0.0173205 -0.01 0 0 0 
8.79646 -2.06823e-15 0.02 0 0 0 
8.79646 -0.0173205 -0.01 0 0 0 
8.79646 0.0173205 -0.01 0 0 0 
8.83835 -2.06823e-15 0.02 0 0 0 
8.83835 -0.0173205 -0.01 0 0 0 
8.83835 0.0173205 -0.01 0 0 0 
8.88024 -2.06823e-15 0.02 0 0 0 
8.88024 -0.0173205 -0.01 0 0 0 
8.88024 0.0173205 -0.01 0 0 0 
8.92212 -2.06823e-15 0.02 0 0 0 
8.92212 -0.0173205 -0.01 0 0 0 
8.92212 0.0173205 -0.01 0 0 0 
8.96401 -2.06823e-15 0.02 0 0 0 
8.96401 -0.0173205 -0.01 0 0 0 
8.96401 0.0173205 -0.01 0 0 0 
9.0059 -2.06823e-15 0.02 0 0 0 
9.0059 -0.0173205 -0.01 0 0 0 
9.0059 0.0173205 -0.01 0 0 0 
9.04779 -2.06823e-15 0.02 0 0 0 
9.04779 -0.0173205 -0.01 0 0 0 
9.04779 0.0173205 -0.01 0 0 0 
9.08967 -2.06823e-15 0.02 0 0 0 
9.08967 -0.0173205 -0.01 0 0 0 
9.08967 0.0173205 -0.01 0 0 0 
9.13156 -2.06823e-15 0.02 0 0 0 
9.13156 -0.0173205 -0.01 0 0 0 
9.13156 0.0173205 -0.01 0 0 0 
9.17345 -2.06823e-15 0.02 0 0 0 
9.17345 -0.0173205 -0.01 0 0 0 
9.17345 0.0173205 -0.01 0 0 0 
9.21534 -2.06823e-15 0.02 0 0 0 
9.21534 -0.0173205 -0.01 0 0 0 
9.21534 0.0173205 -0.01 0 0 0 
9.25723 -2.06823e-15 0.02 0 0 0 
9.25723 -0.0173205 -0.01 0 0 0 
9.25723 0.0173205 -0.01 0 0 0 
9.29911 -2.06823e-15 0.02 0 0 0 
9.29911 -0.0173205 -0.01 0 0 0 
9.29911 0.0173205 -0.01 0 0 0 
9.341 -2.06823e-15 0.02 0 0 0 
9.341 -0.0173205 -0.01 0 0 0 
9.341 0.0173205 -0.01 0 0 0 
9.38289 -2.06823e-15 0.02 0 0 0 
9.38289 -0.0173205 -0.01 0 0 0 
9.38289 0.0173205 -0.01 0 0 0 
9.42478 -2.06823e-15 0.02 0 0 0 
9.42478 -0.0173205 -0.01 0 0 0 
9.42478 0.0173205 -0.01 0 0 0 
9.46667 -2.06823e-15 0.02 0 0 0 
9.46667 -0.0173205 -0.01 0 0 0 
9.46667 0.0173205 -0.01 0 0 0 
9.50855 -2.06823e-15 0.02 0 0 0 
9.50855 -0.0173205 -0.01 0 0 0 
9.50855 0.0173205 -0.01 0 0 0 
9.55044 -2.06823e-15 0.02 0 0 0 
9.55044 -0.0173205 -0.01 0 0 0 
9.55044 0.0173205 -0.01 0 0 0 
9.59233 -2.06823e-15 0.02 0 0 0 
9.59233 -0.0173205 -0.01 0 0 0 
9.59233 0.0173205 -0.01 0 0 0 
9.63422 -2.06823e-15 0.02 0 0 0 
9.63422 -0.0173205 -0.01 0 0 0 
9.63422 0.0173205 -0.01 0 0 0 
9.67611 -2.06823e-15 0.02 0 0 0 
9.67611 -0.0173205 -0.01 0 0 0 
9.67611 0.0173205 -0.01 0 0 0 
9.71799 -2.06823e-15 0.02 0 0 0 
9.71799 -0.0173205 -0.01 0 0 0 
9.71799 0.0173205 -0.01 0 0 0 
9.75988 -2.06823e-15 0.02 0 0 0 
9.75988 -0.0173205 -0.01 0 0 0 
9.75988 0.0173205 -0.01 0 0 0 
9.80177 -2.06823e-15 0.02 0 0 0 
9.80177 -0.0173205 -0.01 0 0 0 
9.80177 0.0173205 -0.01 0 0 0 
9.84366 -2.06823e-15 0.02 0 0 0 
9.84366 -0.0173205 -0.01 0 0 0 
9.84366 0.0173205 -0.01 0 0 0 
9.88554 -2.06823e-15 0.02 0 0 0 
9.88554 -0.0173205 -0.01 0 0 0 
9.88554 0.0173205 -0.01 0 0 0 
9.92743 -2.06823e-15 0.02 0 0 0 
9.92743 -0.0173205 -0.01 0 0 0 
9.92743 0.0173205 -0.01 0 0 0 
9.96932 -2.06823e-15 0.02 0 0 0 
9.96932 -0.0173205 -0.01 0 0 0 
9.96932 0.0173205 -0.01 0 0 0 
10.0112 -2.06823e-15 0.02 0 0 0 
10.0112 -0.0173205 -0.01 0 0 0 
10.0112 0.0173205 -0.01 0 0 0 
10.0531 -2.06823e-15 0.02 0 0 0 
10.0531 -0.0173205 -0.01 0 0 0 
10.0531 0.0173205 -0.01 0 0 0 
10.095 -2.06823e-15 0.02 0 0 0 
10.095 -0.0173205 -0.01 0 0 0 
10.095 0.0173205 -0.01 0 0 0 
10.1369 -2.06823e-15 0.02 0 0 0 
10.1369 -0.0173205 -0.01 0 0 0 
10.1369 0.0173205 -0.01 0 0 0 
10.1788 -2.06823e-15 0.02 0 0 0 
10.1788 -0.0173205 -0.01 0 0 0 
10.1788 0.0173205 -0.01 0 0 0 
10.2206 -2.06823e-15 0.02 0 0 0 
10.2206 -0.0173205 -0.01 0 0 0 
10.2206 0.0173205 -0.01 0 0 0 
10.2625 -2.06823e-15 0.02 0 0 0 
10.2625 -0.0173205 -0.01 0 0 0 
10.2625 0.0173205 -0.01 0 0 0 
10.3044 -2.06823e-15 0.02 0 0 0 
10.3044 -0.0173205 -0.01 0 0 0 
10.3044 0.0173205 -0.01 0 0 0 
10.3463 -2.06823e-15 0.02 0 0 0 
10.3463 -0.0173205 -0.01 0 0 0 
10.3463 0.0173205 -0.01 0 0 0 
10.3882 -2.06823e-15 0.02 0 0 0 
10.3882 -0.0173205 -0.01 0 0 0 
10.3882 0.0173205 -0.01 0 0 0 
10.4301 -2.06823e-15 0.02 0 0 0 
10.4301 -0.0173205 -0.01 0 0 0 
10.4301 0.0173205 -0.01 0 0 0 
10.472 -2.06823e-15 0.02 0 0 0 
10.472 -0.0173205 -0.01 0 0 0 
10.472 0.0173205 -0.01 0 0 0 
10.5139 -2.06823e-15 0.02 0 0 0 
10.5139 -0.0173205 -0.01 0 0 0 
10.5139 0.0173205 -0.01 0 0 0 
10.5558 -2.06823e-15 0.02 0 0 0 
10.5558 -0.0173205 -0.01 0 0 0 
10.5558 0.0173205 -0.01 0 0 0 
10.5976 -2.06823e-15 0.02 0 0 0 
10.5976 -0.0173205 -0.01 0 0 0 
10.5976 0.0173205 -0.01 0 0 0 
10.6395 -2.06823e-15 0.02 0 0 0 
10.6395 -0.0173205 -0.01 0 0 0 
10.6395 0.0173205 -0.01 0 0 0 
10.6814 -2.06823e-15 0.02 0 0 0 
10.6814 -0.0173205 -0.01 0 0 0 
10.6814 0.0173205 -0.01 0 0 0 
10.7233 -2.06823e-15 0.02 0 0 0 
10.7233 -0.0173205 -0.01 0 0 0 
10.7233 0.0173205 -0.01 0 0 0 
10.7652 -2.06823e-15 0.02 0 0 0 
10.7652 -0.0173205 -0.01 0 0 0 
10.7652 0.0173205 -0.01 0 0 0 
10.8071 -2.06823e-15 0.02 0 0 0 
10.8071 -0.0173205 -0.01 0 0 0 
10.8071 0.0173205 -0.01 0 0 0 
10.849 -2.06823e-15 0.02 0 0 0 
10.849 -0.0173205 -0.01 0 0 0 
10.849 0.0173205 -0.01 0 0 0 
10.8909 -2.06823e-15 0.02 0 0 0 
10.8909 -0.0173205 -0.01 0 0 0 
10.8909 0.0173205 -0.01 0 0 0 
10.9327 -2.06823e-15 0.02 0 0 0 
10.9327 -0.0173205 -0.01 0 0 0 
10.9327 0.0173205 -0.01 0 0 0 
10.9746 -2.06823e-15 0.02 0 0 0 
10.9746 -0.0173205 -0.01 0 0 0 
10.9746 0.0173205 -0.01 0 0 0 
11.0165 -2.06823e-15 0.02 0 0 0 
11.0165 -0.0173205 -0.01 0 0 0 
11.0165 0.0173205 -0.01 0 0 0 
11.0584 -2.06823e-15 0.02 0 0 0 
11.0584 -0.0173205 -0.01 0 0 0 
11.0584 0.0173205 -0.01 0 0 0 
11.1003 -2.06823e-15 0.02 0 0 0 
11.1003 -0.0173205 -0.01 0 0 0 
11.1003 0.0173205 -0.01 0 0 0 
11.1422 -2.06823e-15 0.02 0 0 0 
11.1422 -0.0173205 -0.01 0 0 0 
11.1422 0.0173205 -0.01 0 0 0 
11.1841 -2.06823e-15 0.02 0 0 0 
11.1841 -0.0173205 -0.01 0 0 0 
11.1841 0.0173205 -0.01 0 0 0 
11.226 -2.06823e-15 0.02 0 0 0 
11.226 -0.0173205 -0.01 0 0 0 
11.226 0.0173205 -0.01 0 0 0 
11.2678 -2.06823e-15 0.02 0 0 0 
11.2678 -0.0173205 -0.01 0 0 0 
11.2678 0.0173205 -0.01 0 0 0 
11.3097 -2.06823e-15 0.02 0 0 0 
11.3097 -0.0173205 -0.01 0 0 0 
11.3097 0.0173205 -0.01 0 0 0 
11.3516 -2.06823e-15 0.02 0 0 0 
11.3516 -0.0173205 -0.01 0 0 0 
11.3516 0.0173205 -0.01 0 0 0 
11.3935 -2.06823e-15 0.02 0 0 0 
11.3935 -0.0173205 -0.01 0 0 0 
11.3935 0.0173205 -0.01 0 0 0 
11.4354 -2.06823e-15 0.02 0 0 0 
11.4354 -0.0173205 -0.01 0 0 0 
11.4354 0.0173205 -0.01 0 0 0 
11.4773 -2.06823e-15 0.02 0 0 0 
11.4773 -0.0173205 -0.01 0 0 0 
11.4773 0.0173205 -0.01 0 0 0 
11.5192 -2.06823e-15 0.02 0 0 0 
11.5192 -0.0173205 -0.01 0 0 0 
11.5192 0.0173205 -0.01 0 0 0 
11.5611 -2.06823e-15 0.02 0 0 0 
11.5611 -0.0173205 -0.01 0 0 0 
11.5611 0.0173205 -0.01 0 0 0 
11.6029 -2.06823e-15 0.02 0 0 0 
11.6029 -0.0173205 -0.01 0 0 0 
11.6029 0.0173205 -0.01 0 0 0 
11.6448 -2.06823e-15 0.02 0 0 0 
11.6448 -0.0173205 -0.01 0 0 0 
11.6448 0.0173205 -0.01 0 0 0 
11.6867 -2.06823e-15 0.02 0 0 0 
11.6867 -0.0173205 -0.01 0 0 0 
11.6867 0.0173205 -0.01 0 0 0 
11.7286 -2.06823e-15 0.02 0 0 0 
11.7286 -0.0173205 -0.01 0 0 0 
11.7286 0.0173205 -0.01 0 0 0 
11.7705 -2.06823e-15 0.02 0 0 0 
11.7705 -0.0173205 -0.01 0 0 0 
11.7705 0.0173205 -0.01 0 0 0 
11.8124 -2.06823e-15 0.02 0 0 0 
11.8124 -0.0173205 -0.01 0 0 0 
11.8124 0.0173205 -0.01 0 0 0 
11.8543 -2.06823e-15 0.02 0 0 0 
11.8543 -0.0173205 -0.01 0 0 0 
11.8543 0.0173205 -0.01 0 0 0 
11.8962 -2.06823e-15 0.02 0 0 0 
11.8962 -0.0173205 -0.01 0 0 0 
11.8962 0.0173205 -0.01 0 0 0 
11.9381 -2.06823e-15 0.02 0 0 0 
11.9381 -0.0173205 -0.01 0 0 0 
11.9381 0.0173205 -0.01 0 0 0 
11.9799 -2.06823e-15 0.02 0 0 0 
11.9799 -0.0173205 -0.01 0 0 0 
11.9799 0.0173205 -0.01 0 0 0 
12.0218 -2.06823e-15 0.02 0 0 0 
12.0218 -0.0173205 -0.01 0 0 0 
12.0218 0.0173205 -0.01 0 0 0 
12.0637 -2.06823e-15 0.02 0 0 0 
12.0637 -0.0173205 -0.01 0 0 0 
12.0637 0.0173205 -0.01 0 0 0 
12.1056 -2.06823e-15 0.02 0 0 0 
12.1056 -0.0173205 -0.01 0 0 0 
12.1056 0.0173205 -0.01 0 0 0 
12.1475 -2.06823e-15 0.02 0 0 0 
12.1475 -0.0173205 -0.01 0 0 0 
12.1475 0.0173205 -0.01 0 0 0 
12.1894 -2.06823e-15 0.02 0 0 0 
12.1894 -0.0173205 -0.01 0 0 0 
12.1894 0.0173205 -0.01 0 0 0 
12.2313 -2.06823e-15 0.02 0 0 0 
12.2313 -0.0173205 -0.01 0 0 0 
12.2313 0.0173205 -0.01 0 0 0 
12.2732 -2.06823e-15 0.02 0 0 0 
12.2732 -0.0173205 -0.01 0 0 0 
12.2732 0.0173205 -0.01 0 0 0 
12.315 -2.06823e-15 0.02 0 0 0 
12.315 -0.0173205 -0.01 0 0 0 
12.315 0.0173205 -0.01 0 0 0 
12.3569 -2.06823e-15 0.02 0 0 0 
12.3569 -0.0173205 -0.01 0 0 0 
12.3569 0.0173205 -0.01 0 0 0 
12.3988 -2.06823e-15 0.02 0 0 0 
12.3988 -0.0173205 -0.01 0 0 0 
12.3988 0.0173205 -0.01 0 0 0 
12.4407 -2.06823e-15 0.02 0 0 0 
12.4407 -0.0173205 -0.01 0 0 0 
12.4407 0.0173205 -0.01 0 0 0 
12.4826 -2.06823e-15 0.02 0 0 0 
12.4826 -0.0173205 -0.01 0 0 0 
12.4826 0.0173205 -0.01 0 0 0 
12.5245 -2.06823e-15 0.02 0 0 0 
12.5245 -0.0173205 -0.01 0 0 0 
12.5245 0.0173205 -0.01 0 0 0 
12.5664 -2.06823e-15 0.02 0 0 0 
12.5664 -0.0173205 -0.01 0 0 0 
12.5664 0.0173205 -0.01 0 0 0 
4 0 3 4 1
4 1 4 5 2
4 2 5 3 0
4 3 6 7 4
4 4 7 8 5
4 5 8 6 3
4 6 9 10 7
4 7 10 11 8
4 8 11 9 6
4 9 12 13 10
4 10 13 14 11
4 11 14 12 9
4 12 15 16 13
4 13 16 17 14
4 14 17 15 12
4 15 18 19 16
4 16 19 20 17
4 17 20 18 15
4 18 21 22 19
4 19 22 23 20
4 20 23 21 18
4 21 24 25 22
4 22 25 26 23
4 23 26 24 21
4 24 27 28 25
4 25 28 29 26
4 26 29 27 24
4 27 30 31 28
4 28 31 32 29
4 29 32 30 27
4 30 33 34 31
4 31 34 35 32
4 32 35 33 30
4 33 36 37 34
4 34 37 38 35
4 35 38 36 33
4 36 39 40 37
4 37 40 41 38
4 38 41 39 36
4 39 42 43 40
4 40 43 44 41
4 41 44 42 39
4 42 45 46 43
4 43 46 47 44
4 44 47 45 42
4 45 48 49 46
4 46 49 50 47
4 47 50 48 45
4 48 51 52 49
4 49 52 53 50
4 50 53 51 48
4 51 54 55 52
4 52 55 56 53
4 53 56 54 51
4 54 57 58 55
4 55 58 59 56
4 56 59 57 54
4 57 60 61 58
4 58 61 62 59
4 59 62 60 57
4 60 63 64 61
4 61 64 65 62
4 62 65 63 60
4 63 66 67 64
4 64 67 68 65
4 65 68 66 63
4 66 69 70 67
4 67 70 71 68
4 68 71 69 66
4 69 72 73 70
4 70 73 74 71
4 71 74 72 69
4 72 75 76 73
4 73 76 77 74
4 74 77 75 72
4 75 78 79 76
4 76 79 80 77
4 77 80 78 75
4 78 81 82 79
4 79 82 83 80
4 80 83 81 78
4 81 84 85 82
4 82 85 86 83
4 83 86 84 81
4 84 87 88 85
4 85 88 89 86
4 86 89 87 84
4 87 90 91 88
4 88 91 92 89
4 89 92 90 87
4 90 93 94 91
4 91 94 95 92
4 92 95 93 90
4 93 96 97 94
4 94 97 98 95
4 95 98 96 93
4 96 99 100 97
4 97 100 101 98
4 98 101 99 96
4 99 102 103 100
4 100 103 104 101
4 101 104 102 99
4 102 105 106 103
4 103 106 107 104
4 104 107 105 102
4 105 108 109 106
4 106 109 110 107
4 107 110 108 105
4 108 111 112 109
4 109 112 113 110
4 110 113 111 108
4 111 114 115 112
4 112 115 116 113
4 113 116 114 111
4 114 117 118 115
4 115 118 119 116
4 116 119 117 114
4 117 120 121 118
4 118 121 122 119
4 119 122 120 117
4 120 123 124 121
4 121 124 125 122
4 122 125 123 120
4 123 126 127 124
4 124 127 128 125
4 125 128 126 123
4 126 129 130 127
4 127 130 131 128
4 128 131 129 126
4 129 132 133 130
4 130 133 134 131
4 131 134 132 129
4 132 135 136 133
4 133 136 137 134
4 134 137 135 132
4 135 138 139 136
4 136 139 140 137
4 137 140 138 135
4 138 141 142 139
4 139 142 143 140
4 140 143 141 138
4 141 144 145 142
4 142 145 146 143
4 143 146 144 141
4 144 147 148 145
4 145 148 149 146
4 146 149 147 144
4 147 150 151 148
4 148 151 152 149
4 149 152 150 147
4 150 153 154 151
4 151 154 155 152
4 152 155 153 150
4 153 156 157 154
4 154 157 158 155
4 155 158 156 153
4 156 159 160 157
4 157 160 161 158
4 158 161 159 156
4 159 162 163 160
4 160 163 164 161
4 161 164 162 159
4 162 165 166 163
4 163 166 167 164
4 164 167 165 162
4 165 168 169 166
4 166 169 170 167
4 167 170 168 165
4 168 171 172 169
4 169 172 173 170
4 170 173 171 168
4 171 174 175 172
4 172 175 176 173
4 173 176 174 171
4 174 177 178 175
4 175 178 179 176
4 176 179 177 174
4 177 180 181 178
4 178 181 182 179
4 179 182 180 177
4 180 183 184 181
4 181 184 185 182
4 182 185 183 180
4 183 186 187 184
4 184 187 188 185
4 185 188 186 183
4 186 189 190 187
4 187 190 191 188
4 188 191 189 186
4 189 192 193 190
4 190 193 194 191
4 191 194 192 189
4 192 195 196 193
4 193 196 197 194
4 194 197 195 192
4 195 198 199 196
4 196 199 200 197
4 197 200 198 195
4 198 201 202 199
4 199 202 203 200
4 200 203 201 198
4 201 204 205 202
4 202 205 206 203
4 203 206 204 201
4 204 207 208 205
4 205 208 209 206
4 206 209 207 204
4 207 210 211 208
4 208 211 212 209
4 209 212 210 207
4 210 213 214 211
4 211 214 215 212
4 212 215 213 210
4 213 216 217 214
4 214 217 218 215
4 215 218 216 213
4 216 219 220 217
4 217 220 221 218
4 218 221 219 216
4 219 222 223 220
4 220 223 224 221
4 221 224 222 219
4 222 225 226 223
4 223 226 227 224
4 224 227 225 222
4 225 228 229 226
4 226 229 230 227
4 227 230 228 225
4 228 231 232 229
4 229 232 233 230
4 230 233 231 228
4 231 234 235 232
4 232 235 236 233
4 233 236 234 231
4 234 237 238 235
4 235 238 239 236
4 236 239 237 234
4 237 240 241 238
4 238 241 242 239
4 239 242 240 237
4 240 243 244 241
4 241 244 245 242
4 242 245 243 240
4 243 246 247 244
4 244 247 248 245
4 245 248 246 243
4 246 249 250 247
4 247 250 251 248
4 248 251 249 246
4 249 252 253 250
4 250 253 254 251
4 251 254 252 249
4 252 255 256 253
4 253 256 257 254
4 254 257 255 252
4 255 258 259 256
4 256 259 260 257
4 257 260 258 255
4 258 261 262 259
4 259 262 263 260
4 260 263 261 258
4 261 264 265 262
4 262 265 266 263
4 263 266 264 261
4 264 267 268 265
4 265 268 269 266
4 266 269 267 264
4 267 270 271 268
4 268 271 272 269
4 269 272 270 267
4 270 273 274 271
4 271 274 275 272
4 272 275 273 270
4 273 276 277 274
4 274 277 278 275
4 275 278 276 273
4 276 279 280 277
4 277 280 281 278
4 278 281 279 276
4 279 282 283 280
4 280 283 284 281
4 281 284 282 279
4 282 285 286 283
4 283 286 287 284
4 284 287 285 282
4 285 288 289 286
4 286 289 290 287
4 287 290 288 285
4 288 291 292 289
4 289 292 293 290
4 290 293 291 288
4 291 294 295 292
4 292 295 296 293
4 293 296 294 291
4 294 297 298 295
4 295 298 299 296
4 296 299 297 294
4 297 300 301 298
4 298 301 302 299
4 299 302 300 297
4 300 303 304 301
4 301 304 305 302
4 302 305 303 300
4 303 306 307 304
4 304 307 308 305
4 305 308 306 303
4 306 309 310 307
4 307 310 311 308
4 308 311 309 306
4 309 312 313 310
4 310 313 314 311
4 311 314 312 309
4 312 315 316 313
4 313 316 317 314
4 314 317 315 312
4 315 318 319 316
4 316 319 320 317
4 317 320 318 315
4 318 321 322 319
4 319 322 323 320
4 320 323 321 318
4 321 324 325 322
4 322 325 326 323
4 323 326 324 321
4 324 327 328 325
4 325 328 329 326
4 326 329 327 324
4 327 330 331 328
4 328 331 332 329
4 329 332 330 327
4 330 333 334 331
4 331 334 335 332
4 332 335 333 330
4 333 336 337 334
4 334 337 338 335
4 335 338 336 333
4 336 339 340 337
4 337 340 341 338
4 338 341 339 336
4 339 342 343 340
4 340 343 344 341
4 341 344 342 339
4 342 345 346 343
4 343 346 347 344
4 344 347 345 342
4 345 348 349 346
4 346 349 350 347
4 347 350 348 345
4 348 351 352 349
4 349 352 353 350
4 350 353 351 348
4 351 354 355 352
4 352 355 356 353
4 353 356 354 351
4 354 357 358 355
4 355 358 359 356
4 356 359 357 354
4 357 360 361 358
4 358 361 362 359
4 359 362 360 357
4 360 363 364 361
4 361 364 365 362
4 362 365 363 360
4 363 366 367 364
4 364 367 368 365
4 365 368 366 363
4 366 369 370 367
4 367 370 371 368
4 368 371 369 366
4 369 372 373 370
4 370 373 374 371
4 371 374 372 369
4 372 375 376 373
4 373 376 377 374
4 374 377 375 372
4 375 378 379 376
4 376 379 380 377
4 377 380 378 375
4 378 381 382 379
4 379 382 383 380
4 380 383 381 378
4 381 384 385 382
4 382 385 386 383
4 383 386 384 381
4 384 387 388 385
4 385 388 389 386
4 386 389 387 384
4 387 390 391 388
4 388 391 392 389
4 389 392 390 387
4 390 393 394 391
4 391 394 395 392
4 392 395 393 390
4 393 396 397 394
4 394 397 398 395
4 395 398 396 393
4 396 399 400 397
4 397 400 401 398
4 398 401 399 396
4 399 402 403 400
4 400 403 404 401
4 401 404 402 399
4 402 405 406 403
4 403 406 407 404
4 404 407 405 402
4 405 408 409 406
4 406 409 410 407
4 407 410 408 405
4 408 411 412 409
4 409 412 413 410
4 410 413 411 408
4 411 414 415 412
4 412 415 416 413
4 413 416 414 411
4 414 417 418 415
4 415 418 419 416
4 416 419 417 414
4 417 420 421 418
4 418 421 422 419
4 419 422 420 417
4 420 423 424 421
4 421 424 425 422
4 422 425 423 420
4 423 426 427 424
4 424 427 428 425
4 425 428 426 423
4 426 429 430 427
4 427 430 431 428
4 428 431 429 426
4 429 432 433 430
4 430 433 434 431
4 431 434 432 429
4 432 435 436 433
4 433 436 437 434
4 434 437 435 432
4 435 438 439 436
4 436 439 440 437
4 437 440 438 435
4 438 441 442 439
4 439 442 443 440
4 440 443 441 438
4 441 444 445 442
4 442 445 446 443
4 443 446 444 441
4 444 447 448 445
4 445 448 449 446
4 446 449 447 444
4 447 450 451 448
4 448 451 452 449
4 449 452 450 447
4 450 453 454 451
4 451 454 455 452
4 452 455 453 450
4 453 456 457 454
4 454 457 458 455
4 455 458 456 453
4 456 459 460 457
4 457 460 461 458
4 458 461 459 456
4 459 462 463 460
4 460 463 464 461
4 461 464 462 459
4 462 465 466 463
4 463 466 467 464
4 464 467 465 462
4 465 468 469 466
4 466 469 470 467
4 467 470 468 465
4 468 471 472 469
4 469 472 473 470
4 470 473 471 468
4 471 474 475 472
4 472 475 476 473
4 473 476 474 471
4 474 477 478 475
4 475 478 479 476
4 476 479 477 474
4 477 480 481 478
4 478 481 482 479
4 479 482 480 477
4 480 483 484 481
4 481 484 485 482
4 482 485 483 480
4 483 486 487 484
4 484 487 488 485
4 485 488 486 483
4 486 489 490 487
4 487 490 491 488
4 488 491 489 486
4 489 492 493 490
4 490 493 494 491
4 491 494 492 489
4 492 495 496 493
4 493 496 497 494
4 494 497 495 492
4 495 498 499 496
4 496 499 500 497
4 497 500 498 495
4 498 501 502 499
4 499 502 503 500
4 500 503 501 498
4 501 504 505 502
4 502 505 506 503
4 503 506 504 501
4 504 507 508 505
4 505 508 509 506
4 506 509 507 504
4 507 510 511 508
4 508 511 512 509
4 509 512 510 507
4 510 513 514 511
4 511 514 515 512
4 512 515 513 510
4 513 516 517 514
4 514 517 518 515
4 515 518 516 513
4 516 519 520 517
4 517 520 521 518
4 518 521 519 516
4 519 522 523 520
4 520 523 524 521
4 521 524 522 519
4 522 525 526 523
4 523 526 527 524
4 524 527 525 522
4 525 528 529 526
4 526 529 530 527
4 527 530 528 525
4 528 531 532 529
4 529 532 533 530
4 530 533 531 528
4 531 534 535 532
4 532 535 536 533
4 533 536 534 531
4 534 537 538 535
4 535 538 539 536
4 536 539 537 534
4 537 540 541 538
4 538 541 542 539
4 539 542 540 537
4 540 543 544 541
4 541 544 545 542
4 542 545 543 540
4 543 546 547 544
4 544 547 548 545
4 545 548 546 543
4 546 549 550 547
4 547 550 551 548
4 548 551 549 546
4 549 552 553 550
4 550 553 554 551
4 551 554 552 549
4 552 555 556 553
4 553 556 557 554
4 554 557 555 552
4 555 558 559 556
4 556 559 560 557
4 557 560 558 555
4 558 561 562 559
4 559 562 563 560
4 560 563 561 558
4 561 564 565 562
4 562 565 566 563
4 563 566 564 561
4 564 567 568 565
4 565 568 569 566
4 566 569 567 564
4 567 570 571 568
4 568 571 572 569
4 569 572 570 567
4 570 573 574 571
4 571 574 575 572
4 572 575 573 570
4 573 576 577 574
4 574 577 578 575
4 575 578 576 573
4 576 579 580 577
4 577 580 581 578
4 578 581 579 576
4 579 582 583 580
4 580 583 584 581
4 581 584 582 579
4 582 585 586 583
4 583 586 587 584
4 584 587 585 582
4 585 588 589 586
4 586 589 590 587
4 587 590 588 585
4 588 591 592 589
4 589 592 593 590
4 590 593 591 588
4 591 594 595 592
4 592 595 596 593
4 593 596 594 591
4 594 597 598 595
4 595 598 599 596
4 596 599 597 594
4 597 600 601 598
4 598 601 602 599
4 599 602 600 597
4 600 603 604 601
4 601 604 605 602
4 602 605 603 600
4 603 606 607 604
4 604 607 608 605
4 605 608 606 603
4 606 609 610 607
4 607 610 611 608
4 608 611 609 606
4 609 612 613 610
4 610 613 614 611
4 611 614 612 609
4 612 615 616 613
4 613 616 617 614
4 614 617 615 612
4 615 618 619 616
4 616 619 620 617
4 617 620 618 615
4 618 621 622 619
4 619 622 623 620
4 620 623 621 618
4 621 624 625 622
4 622 625 626 623
4 623 626 624 621
4 624 627 628 625
4 625 628 629 626
4 626 629 627 624
4 627 630 631 628
4 628 631 632 629
4 629 632 630 627
4 630 633 634 631
4 631 634 635 632
4 632 635 633 630
4 633 636 637 634
4 634 637 638 635
4 635 638 636 633
4 636 639 640 637
4 637 640 641 638
4 638 641 639 636
4 639 642 643 640
4 640 643 644 641
4 641 644 642 639
4 642 645 646 643
4 643 646 647 644
4 644 647 645 642
4 645 648 649 646
4 646 649 650 647
4 647 650 648 645
4 648 651 652 649
4 649 652 653 650
4 650 653 651 648
4 651 654 655 652
4 652 655 656 653
4 653 656 654 651
4 654 657 658 655
4 655 658 659 656
4 656 659 657 654
4 657 660 661 658
4 658 661 662 659
4 659 662 660 657
4 660 663 664 661
4 661 664 665 662
4 662 665 663 660
4 663 666 667 664
4 664 667 668 665
4 665 668 666 663
4 666 669 670 667
4 667 670 671 668
4 668 671 669 666
4 669 672 673 670
4 670 673 674 671
4 671 674 672 669
4 672 675 676 673
4 673 676 677 674
4 674 677 675 672
4 675 678 679 676
4 676 679 680 677
4 677 680 678 675
4 678 681 682 679
4 679 682 683 680
4 680 683 681 678
4 681 684 685 682
4 682 685 686 683
4 683 686 684 681
4 684 687 688 685
4 685 688 689 686
4 686 689 687 684
4 687 690 691 688
4 688 691 692 689
4 689 692 690 687
4 690 693 694 691
4 691 694 695 692
4 692 695 693 690
4 693 696 697 694
4 694 697 698 695
4 695 698 696 693
4 696 699 700 697
4 697 700 701 698
4 698 701 699 696
4 699 702 703 700
4 700 703 704 701
4 701 704 702 699
4 702 705 706 703
4 703 706 707 704
4 704 707 705 702
4 705 708 709 706
4 706 709 710 707
4 707 710 708 705
4 708 711 712 709
4 709 712 713 710
4 710 713 711 708
4 711 714 715 712
4 712 715 716 713
4 713 716 714 711
4 714 717 718 715
4 715 718 719 716
4 716 719 717 714
4 717 720 721 718
4 718 721 722 719
4 719 722 720 717
4 720 723 724 721
4 721 724 725 722
4 722 725 723 720
4 723 726 727 724
4 724 727 728 725
4 725 728 726 723
4 726 729 730 727
4 727 730 731 728
4 728 731 729 726
4 729 732 733 730
4 730 733 734 731
4 731 734 732 729
4 732 735 736 733
4 733 736 737 734
4 734 737 735 732
4 735 738 739 736
4 736 739 740 737
4 737 740 738 735
4 738 741 742 739
4 739 742 743 740
4 740 743 741 738
4 741 744 745 742
4 742 745 746 743
4 743 746 744 741
4 744 747 748 745
4 745 748 749 746
4 746 749 747 744
4 747 750 751 748
4 748 751 752 749
4 749 752 750 747
4 750 753 754 751
4 751 754 755 752
4 752 755 753 750
4 753 756 757 754
4 754 757 758 755
4 755 758 756 753
4 756 759 760 757
4 757 760 761 758
4 758 761 759 756
4 759 762 763 760
4 760 763 764 761
4 761 764 762 759
4 762 765 766 763
4 763 766 767 764
4 764 767 765 762
4 765 768 769 766
4 766 769 770 767
4 767 770 768 765
4 768 771 772 769
4 769 772 773 770
4 770 773 771 768
4 771 774 775 772
4 772 775 776 773
4 773 776 774 771
4 774 777 778 775
4 775 778 779 776
4 776 779 777 774
4 777 780 781 778
4 778 781 782 779
4 779 782 780 777
4 780 783 784 781
4 781 784 785 782
4 782 785 783 780
4 783 786 787 784
4 784 787 788 785
4 785 788 786 783
4 786 789 790 787
4 787 790 791 788
4 788 791 789 786
4 789 792 793 790
4 790 793 794 791
4 791 794 792 789
4 792 795 796 793
4 793 796 797 794
4 794 797 795 792
4 795 798 799 796
4 796 799 800 797
4 797 800 798 795
4 798 801 802 799
4 799 802 803 800
4 800 803 801 798
4 801 804 805 802
4 802 805 806 803
4 803 806 804 801
4 804 807 808 805
4 805 808 809 806
4 806 809 807 804
4 807 810 811 808
4 808 811 812 809
4 809 812 810 807
4 810 813 814 811
4 811 814 815 812
4 812 815 813 810
4 813 816 817 814
4 814 817 818 815
4 815 818 816 813
4 816 819 820 817
4 817 820 821 818
4 818 821 819 816
4 819 822 823 820
4 820 823 824 821
4 821 824 822 819
4 822 825 826 823
4 823 826 827 824
4 824 827 825 822
4 825 828 829 826
4 826 829 830 827
4 827 830 828 825
4 828 831 832 829
4 829 832 833 830
4 830 833 831 828
4 831 834 835 832
4 832 835 836 833
4 833 836 834 831
4 834 837 838 835
4 835 838 839 836
4 836 839 837 834
4 837 840 841 838
4 838 841 842 839
4 839 842 840 837
4 840 843 844 841
4 841 844 845 842
4 842 845 843 840
4 843 846 847 844
4 844 847 848 845
4 845 848 846 843
4 846 849 850 847
4 847 850 851 848
4 848 851 849 846
4 849 852 853 850
4 850 853 854 851
4 851 854 852 849
4 852 855 856 853
4 853 856 857 854
4 854 857 855 852
4 855 858 859 856
4 856 859 860 857
4 857 860 858 855
4 858 861 862 859
4 859 862 863 860
4 860 863 861 858
4 861 864 865 862
4 862 865 866 863
4 863 866 864 861
4 864 867 868 865
4 865 868 869 866
4 866 869 867 864
4 867 870 871 868
4 868 871 872 869
4 869 872 870 867
4 870 873 874 871
4 871 874 875 872
4 872 875 873 870
4 873 876 877 874
4 874 877 878 875
4 875 878 876 873
4 876 879 880 877
4 877 880 881 878
4 878 881 879 876
4 879 882 883 880
4 880 883 884 881
4 881 884 882 879
4 882 885 886 883
4 883 886 887 884
4 884 887 885 882
4 885 888 889 886
4 886 889 890 887
4 887 890 888 885
4 888 891 892 889
4 889 892 893 890
4 890 893 891 888
4 891 894 895 892
4 892 895 896 893
4 893 896 894 891
4 894 897 898 895
4 895 898 899 896
4 896 899 897 894
4 897 900 901 898
4 898 901 902 899
4 899 902 900 897
